<?xml version="1.0" encoding="UTF-8" standalone="no"?>
<!-- Created with Inkscape (http://www.inkscape.org/) -->

<svg
   version="1.1"
   id="svg2"
   width="521.14667"
   height="533.33331"
   viewBox="0 0 521.14667 533.33331"
   sodipodi:docname="D-Pine_CMYK.eps"
   xmlns:inkscape="http://www.inkscape.org/namespaces/inkscape"
   xmlns:sodipodi="http://sodipodi.sourceforge.net/DTD/sodipodi-0.dtd"
   xmlns="http://www.w3.org/2000/svg"
   xmlns:svg="http://www.w3.org/2000/svg">
  <defs
     id="defs6" />
  <sodipodi:namedview
     id="namedview4"
     pagecolor="#ffffff"
     bordercolor="#000000"
     borderopacity="0.25"
     inkscape:showpageshadow="2"
     inkscape:pageopacity="0.0"
     inkscape:pagecheckerboard="0"
     inkscape:deskcolor="#d1d1d1" />
  <g
     id="g8"
     inkscape:groupmode="layer"
     inkscape:label="ink_ext_XXXXXX"
     transform="matrix(1.3333333,0,0,-1.3333333,0,533.33333)">
    <g
       id="g10"
       transform="scale(0.1)">
      <path
         d="M 1731.44,4000 H 0 v -74.3 c 154.297,-91.4 222.891,-200 222.891,-634.25 V 708.551 C 222.891,274.301 154.297,165.699 0,74.3008 V 0 h 1622.89 c 42.59,0 84.55,0.820313 126,2.26172 C 1764.3,166.449 1781.7,404.219 1792.96,641.82 l 6.11,166.512 c -0.89,9.258 -5.29,15.969 -15.78,4.93 -140.62,-147.934 -147.92,-125.082 -206.14,-108.043 -65.08,19.043 -261.53,90.562 -290.71,110.851 -26.11,18.11 -18.63,27.711 11.15,40.262 148.3,62.52 462.97,202.738 507.04,221.258 3.04,1.26 5.08,4.23 5.18,7.52 l 3.7,94.41 c 0.23,6.11 -5.77,10.48 -11.48,8.33 -76.74,-28.63 -468.14,-190.178 -525.59,-211.44 -63.26,-23.41 -99.11,-20.371 -149.37,14.41 -38.56,26.66 -165.48,175.96 -186.515,211.55 -7.852,13.3 -16.336,26.26 8.781,31.59 23.848,5.08 785.174,159.59 866.324,174.85 3.89,0.71 6.74,4.04 6.9,8.01 l 3.74,92.55 c 0.21,5.37 -4.48,9.59 -9.78,8.74 -87,-13.48 -678.34,-117.89 -744.15,-128.67 -70.85,-11.59 -86.335,15.49 -110.819,46.41 -24.481,30.93 -106.699,210.19 -115.887,227.15 -16.738,30.93 -18.184,44.48 11.445,46.37 247.701,15.96 892.191,54 972.111,58.93 4.33,0.29 7.78,3.81 7.97,8.18 l 3.18,86.48 c 0.19,4.96 -3.82,9.04 -8.78,8.89 -83.04,-2.74 -748.66,-23.04 -792.96,-21.55 -45.036,1.48 -64.411,6.44 -88.896,57.96 -22.031,46.37 -49.961,244.89 -52.546,266.74 -1.926,16.56 -3.821,29.7 24.695,24.44 226.337,-41.89 835.677,-109.48 917.667,-119.66 4.97,-0.6 9.34,3.14 9.56,8.14 l 3.08,79.71 c 0.17,4.33 -2.89,8.11 -7.19,8.78 -69.79,10.88 -627.15,94.59 -688.78,105.85 -66.3,12.11 -78.11,24.63 -93.55,72.93 -10.64,33.22 -22.01,196.4 -22.23,213.85 -0.22,18.18 -1.74,28.88 22.97,21.66 376.3,-110.11 723.55,-197.81 786.63,-213.62 5.25,-1.34 10.37,2.55 10.58,7.96 l 3.01,76.92 c 0.15,4 -2.45,7.56 -6.3,8.6 -60.04,16.11 -514.15,137.99 -552.08,150.7 -43.1,14.44 -79.44,34.52 -87.62,84.74 -8.27,50.67 -9.26,159.41 -7.74,183.56 1.55,24.55 4.63,31 24.92,21 170.81,-84.34 555.31,-228.23 625.19,-254.19 5.44,-2.04 11.26,1.85 11.47,7.67 l 2.89,74.44 c 0.12,3.56 -1.96,6.85 -5.29,8.22 -46.48,19 -372.78,152.52 -426.74,175.93 -52.41,22.78 -62.48,41.15 -67.59,89.11 -2.78,26.11 -3.74,97.81 2.55,141.11 3.97,27.26 1.97,33.97 43.37,9.34 82.97,-49.34 384.82,-206.53 448.68,-239.67 5.55,-2.89 12.21,1 12.44,7.26 l 2.85,73.3 c 0.11,3.25 -1.59,6.29 -4.48,7.85 -32.55,17.44 -225.67,120.85 -270.89,145.59 -58.78,32.22 -75.41,57.11 -76.71,84.7 -2.4,51.15 2.78,111.15 5.82,132.82 5.29,38.07 13.82,43.15 38.92,23.15 108.74,-86.74 257.75,-184.41 301.52,-212.75 5.53,-3.59 12.86,0.26 13.11,6.89 l 2.56,65.52 c 0.11,2.7 -1.07,5.3 -3.18,7 -25.45,20.33 -186.67,137.34 -186.67,137.34 0,0 -21.14,19.29 -20.96,39.33 0.29,36 12.55,108.11 17.07,120.81 5.74,16.15 9.3,24.96 26.86,7.41 78.87,-78.85 128.47,-119.63 160.89,-146.33 8.99,-7.41 12.36,-8.86 12.36,-1.26 0,75.11 -34.14,223.96 40,264.92 1.22,0.67 2.6,1 3.96,1 1.37,0.04 2.78,-0.33 4,-1 74.15,-40.96 40.01,-189.81 40.01,-264.92 0,-7.6 3.37,-6.15 12.36,1.26 32.41,26.7 82,67.48 160.89,146.33 17.56,17.55 21.11,8.74 26.85,-7.41 4.57,-12.7 16.78,-84.81 17.08,-120.81 0.19,-20.04 -20.96,-39.33 -20.96,-39.33 0,0 -161.22,-117.01 -186.67,-137.34 -2.11,-1.7 -3.3,-4.3 -3.19,-7 l 2.56,-65.52 c 0.26,-6.63 7.59,-10.48 13.15,-6.89 43.74,28.34 192.73,126.01 301.48,212.75 25.11,20 33.63,14.92 38.96,-23.15 3.01,-21.67 8.18,-81.67 5.82,-132.82 -1.3,-27.59 -17.93,-52.48 -76.7,-84.7 -45.27,-24.74 -238.38,-128.15 -270.93,-145.59 -2.89,-1.56 -4.6,-4.6 -4.48,-7.85 l 2.85,-73.3 c 0.22,-6.26 6.88,-10.15 12.44,-7.26 63.85,33.14 365.7,190.33 448.67,239.67 41.41,24.63 39.41,17.92 43.37,-9.34 6.29,-43.3 5.33,-115 2.55,-141.11 -5.11,-47.96 -15.18,-66.33 -67.59,-89.11 -53.96,-23.41 -380.26,-156.93 -426.74,-175.93 -3.34,-1.37 -5.41,-4.66 -5.26,-8.22 l 2.85,-74.44 c 0.27,-5.82 6.04,-9.71 11.49,-7.67 69.89,25.96 454.36,169.85 625.18,254.19 20.3,10 23.37,3.55 24.92,-21 1.53,-24.15 0.52,-132.89 -7.73,-183.56 -8.19,-50.22 -44.48,-70.3 -87.64,-84.74 -37.88,-12.71 -492.03,-134.59 -552.07,-150.7 -3.85,-1.04 -6.44,-4.6 -6.3,-8.6 l 3,-76.92 c 0.23,-5.41 5.34,-9.3 10.6,-7.96 63.07,15.81 410.33,103.51 786.63,213.62 24.74,7.22 23.22,-3.48 22.96,-21.66 -0.22,-17.45 -11.59,-180.63 -22.22,-213.85 -15.45,-48.3 -27.25,-60.82 -93.52,-72.93 -61.63,-11.26 -619.04,-94.97 -688.81,-105.85 -4.3,-0.67 -7.34,-4.45 -7.19,-8.78 l 3.08,-79.71 c 0.22,-5 4.59,-8.74 9.55,-8.14 82,10.18 691.33,77.77 917.7,119.66 28.53,5.26 26.59,-7.88 24.67,-24.44 -2.56,-21.85 -30.52,-220.37 -52.56,-266.74 -24.48,-51.52 -43.81,-56.48 -88.89,-57.96 -44.25,-1.49 -709.92,18.81 -792.95,21.55 -4.97,0.15 -8.97,-3.93 -8.75,-8.89 l 3.15,-86.48 c 0.19,-4.37 3.63,-7.89 8,-8.18 79.93,-4.93 724.37,-42.97 972.07,-58.93 29.67,-1.89 28.19,-15.44 11.45,-46.37 -9.19,-16.96 -91.41,-196.22 -115.89,-227.15 -24.48,-30.92 -39.93,-58 -110.82,-46.41 -65.82,10.78 -657.11,115.19 -744.15,128.67 -5.29,0.85 -10,-3.37 -9.77,-8.74 l 3.74,-92.55 c 0.18,-3.97 3,-7.3 6.93,-8.01 81.11,-15.26 842.44,-169.77 866.29,-174.85 25.15,-5.33 16.63,-18.29 8.78,-31.59 -21,-35.59 -147.96,-184.89 -186.52,-211.55 -50.26,-34.781 -86.11,-37.82 -149.37,-14.41 -57.44,21.262 -448.85,182.81 -525.55,211.44 -5.75,2.15 -11.71,-2.22 -11.49,-8.33 l 3.67,-94.41 c 0.11,-3.29 2.15,-6.26 5.23,-7.52 44.03,-18.52 358.7,-158.738 507.03,-221.258 29.73,-12.551 37.23,-22.152 11.15,-40.262 -29.22,-20.289 -225.67,-91.808 -290.78,-110.851 -58.18,-17.039 -65.48,-39.891 -206.11,108.043 -10.48,11.039 -14.86,4.328 -15.78,-4.93 l 6.15,-166.512 c 10.41,-220.601 26.15,-441.3 40.7,-603.1911 C 3296.26,221.109 3908.59,1033.52 3908.59,2097.15 3908.59,3188.55 3165.74,4000 1731.44,4000"
         style="fill:#075f26;fill-opacity:1;fill-rule:nonzero;stroke:none"
         id="path12" />
    </g>
  </g>
</svg>
