<?xml version="1.0" standalone="no"?>
<!DOCTYPE svg PUBLIC "-//W3C//DTD SVG 20010904//EN"
 "http://www.w3.org/TR/2001/REC-SVG-20010904/DTD/svg10.dtd">
<svg version="1.0" xmlns="http://www.w3.org/2000/svg"
 width="480.000000pt" height="640.000000pt" viewBox="0 0 480.000000 640.000000"
 preserveAspectRatio="xMidYMid meet">

<g transform="translate(0.000000,640.000000) scale(0.100000,-0.100000)"
fill="#000000" stroke="none">
<path d="M3520 6390 c0 -6 7 -27 15 -47 11 -25 12 -39 5 -48 -8 -9 -7 -23 4
-47 l14 -33 -5 38 c-7 47 15 76 52 69 22 -4 25 -10 25 -46 0 -22 3 -58 6 -78
6 -36 5 -38 -19 -38 -31 0 -83 47 -90 81 -3 20 -5 18 -6 -7 -2 -45 26 -74 77
-81 25 -3 42 -11 42 -19 0 -7 4 -102 10 -211 5 -109 17 -394 25 -633 9 -239
20 -484 25 -545 5 -60 12 -258 16 -440 4 -181 8 -333 10 -336 2 -3 4 -90 4
-192 1 -103 5 -217 10 -254 5 -38 14 -225 20 -418 6 -192 13 -389 16 -437 3
-67 1 -88 -8 -88 -7 0 -85 -7 -173 -15 -88 -7 -232 -19 -320 -25 -88 -6 -200
-15 -250 -21 -49 -6 -173 -19 -275 -30 -187 -19 -449 -52 -550 -68 -42 -7 -67
-5 -103 6 -51 17 -67 13 -47 -12 11 -13 8 -15 -16 -15 -16 0 -74 -7 -129 -16
-102 -16 -258 -33 -263 -29 -2 2 -4 12 -5 24 -2 29 -17 27 -17 -3 0 -22 -5
-25 -62 -31 -35 -3 -83 -10 -108 -15 -108 -23 -593 -75 -615 -66 -11 4 -14 12
-10 26 10 31 -18 25 -42 -9 -18 -23 -32 -30 -75 -35 -132 -15 -122 -9 -143
-92 -10 -41 -22 -74 -26 -74 -4 0 -9 -10 -13 -23 -3 -13 -14 -34 -25 -46 -16
-18 -26 -21 -50 -16 -22 5 -31 3 -32 -7 0 -7 -5 2 -10 20 -13 42 -29 41 -29
-3 0 -19 -4 -35 -10 -35 -5 0 -10 9 -10 20 0 12 -7 20 -17 21 -14 0 -13 2 5 9
16 7 22 18 22 42 0 18 4 50 9 71 8 31 6 37 -8 37 -20 -1 -51 -24 -51 -39 0 -6
-7 -11 -15 -11 -8 0 -15 -7 -15 -15 0 -9 -9 -15 -24 -15 -13 0 -31 -3 -40 -6
-10 -4 -19 3 -27 20 -7 14 -20 26 -31 26 -10 0 -18 4 -18 9 0 5 -11 12 -25 15
-13 3 -43 29 -67 56 -24 28 -46 50 -50 50 -5 0 -8 -61 -8 -136 0 -118 2 -139
18 -151 16 -14 16 -14 0 -9 -15 4 -18 -1 -18 -29 l0 -35 63 -1 c56 -1 58 -2
27 -10 -19 -4 -43 -6 -54 -2 -10 3 -22 -1 -27 -8 -5 -8 -8 -75 -8 -149 1 -74
3 -127 6 -118 2 10 10 15 19 11 8 -3 14 0 14 6 0 9 6 8 20 -2 12 -8 42 -12 86
-11 37 1 61 -2 54 -6 -10 -6 -8 -9 6 -13 10 -3 1 -3 -21 1 -56 10 -119 6 -123
-7 -2 -6 -8 -9 -13 -5 -5 3 -18 3 -28 -1 -17 -5 -19 -15 -19 -71 0 -55 3 -64
17 -60 55 17 74 18 81 6 7 -11 14 -11 38 -1 17 7 40 10 52 6 11 -4 27 -2 34 4
13 11 116 11 116 0 0 -4 -16 -9 -35 -11 -19 -2 -35 0 -35 4 0 4 -7 8 -16 8 -9
0 -14 -6 -11 -13 4 -10 -3 -12 -24 -9 -20 3 -31 -1 -35 -13 -5 -13 -14 -15
-45 -10 -22 4 -39 3 -39 -2 0 -5 -14 -8 -30 -5 -26 4 -29 7 -18 19 10 13 8 14
-12 11 -33 -4 -39 -35 -8 -41 21 -4 21 -4 -3 -6 -26 -1 -27 -3 -27 -71 -1 -38
3 -72 9 -75 5 -4 9 -25 8 -48 -1 -36 -2 -38 -9 -17 -5 14 -8 -61 -8 -175 0
-110 2 -192 5 -182 2 9 13 17 22 17 14 0 17 -6 13 -25 -3 -16 -11 -25 -23 -25
-18 0 -19 -15 -19 -400 l0 -400 1755 0 c1499 0 1754 2 1749 14 -9 23 13 28 46
11 l30 -16 0 40 c0 26 -6 43 -16 49 -13 7 -14 13 -5 31 10 17 9 41 -3 109 -39
220 -69 415 -77 497 -5 50 -13 104 -18 120 -6 17 -17 91 -26 165 -8 74 -20
155 -25 180 -6 25 -17 105 -25 179 -9 73 -17 137 -20 140 -2 4 -13 88 -25 186
-11 99 -24 194 -29 210 -5 17 -15 65 -22 108 -7 42 -17 77 -21 77 -21 0 -4 19
30 32 50 21 88 21 140 1 55 -21 78 -59 56 -92 -13 -18 -25 -21 -84 -21 l-69 0
5 -52 c3 -29 10 -80 16 -113 5 -33 19 -118 29 -190 11 -71 30 -195 43 -275 13
-80 33 -201 45 -270 11 -69 25 -145 31 -170 5 -25 17 -85 25 -135 8 -49 24
-144 35 -210 12 -66 22 -127 23 -135 2 -8 6 -21 11 -28 4 -7 6 -15 3 -18 -2
-2 2 -30 9 -61 7 -31 11 -60 8 -65 -3 -4 1 -8 8 -8 7 0 21 19 30 41 14 34 20
39 31 30 11 -8 22 -8 48 4 l34 14 -43 -1 c-23 -1 -44 1 -46 3 -3 2 5 26 17 52
24 51 22 50 117 31 21 -5 19 -1 -13 20 -21 14 -42 26 -47 26 -6 0 -10 7 -10
16 0 13 2 13 15 2 8 -7 20 -18 27 -23 14 -11 128 -55 128 -49 0 2 -34 20 -75
40 -41 21 -76 43 -79 49 -8 22 6 63 32 92 15 16 26 37 24 46 -2 9 1 17 6 17 5
0 15 18 22 41 8 22 17 42 21 45 4 2 27 44 50 92 23 48 77 159 119 247 145 300
210 441 210 454 0 5 4 11 8 13 4 2 20 28 34 58 81 170 191 396 195 399 7 8 67
-31 103 -68 20 -20 45 -42 55 -50 11 -8 -12 18 -52 58 -40 40 -75 82 -78 92
-7 20 1 39 106 255 33 67 59 124 59 127 0 4 14 30 31 59 25 42 29 56 20 70
-16 26 -15 28 32 28 31 0 38 3 27 10 -10 6 -11 10 -2 10 6 0 12 5 12 10 0 6
-28 10 -63 10 -57 0 -65 2 -77 24 -7 14 -22 27 -34 29 -20 4 -20 4 2 6 18 1
21 6 18 24 -11 52 -28 221 -74 739 -9 102 -19 189 -22 191 -3 3 -86 -4 -185
-14 -99 -10 -217 -22 -262 -25 l-83 -7 0 64 c-1 35 -2 100 -4 144 -2 44 -7
150 -10 235 -4 85 -9 179 -12 207 -7 67 0 89 31 97 41 10 34 43 -17 79 -15 10
-20 38 -28 172 -6 88 -15 236 -21 328 -6 93 -8 171 -5 174 3 4 6 -5 6 -18 1
-13 7 -37 15 -54 14 -29 15 -27 8 35 -3 36 -6 80 -5 98 2 24 -4 39 -19 51 -27
21 -20 66 11 76 10 3 22 16 26 28 5 16 -1 27 -25 47 l-31 26 -5 130 c-3 71 -8
136 -10 144 -2 8 -7 100 -11 204 -3 105 -8 199 -10 210 -12 56 -19 158 -11
163 5 3 6 16 2 30 -3 15 -2 22 4 19 12 -8 30 24 24 41 -2 6 1 14 6 18 29 17 3
25 -83 25 -67 0 -96 -4 -99 -12 -3 -10 -7 -10 -20 1 -15 12 -17 11 -17 -6 0
-11 -3 -22 -6 -26 -10 -9 -34 4 -34 19 0 32 -31 25 -71 -16 -22 -23 -44 -39
-47 -35 -4 3 -1 9 5 13 8 5 3 16 -13 35 -13 16 -24 23 -24 17z m110 -40 c0 -5
-4 -10 -10 -10 -5 0 -10 5 -10 10 0 6 5 10 10 10 6 0 10 -4 10 -10z m120 -5
c0 -8 -4 -15 -10 -15 -5 0 -10 7 -10 15 0 8 5 15 10 15 6 0 10 -7 10 -15z
m-46 -38 c13 -10 17 -24 14 -59 -3 -42 -4 -45 -25 -37 -20 7 -23 16 -23 59 0
53 5 58 34 37z m54 -45 c2 -12 8 -22 13 -22 15 0 10 -27 -7 -34 -29 -11 -34
-6 -34 40 0 32 4 44 13 42 6 -3 13 -14 15 -26z m52 -77 c0 -26 -14 -31 -39
-16 -12 8 -12 12 -2 25 20 24 41 19 41 -9z m-90 -76 c0 -42 -3 -50 -17 -47
-18 3 -38 61 -29 84 3 8 15 14 26 14 17 0 20 -6 20 -51z m100 -48 c0 -44 -3
-52 -16 -47 -9 3 -19 6 -24 6 -22 0 -40 34 -40 74 0 23 2 45 5 48 3 3 21 -2
40 -11 33 -15 34 -18 35 -70z m-109 -41 c15 -9 19 -22 19 -64 0 -54 0 -54 -25
-43 -22 11 -25 18 -25 65 0 56 1 57 31 42z m103 -48 c2 -4 7 -28 10 -54 8 -53
0 -59 -49 -36 -22 10 -25 17 -25 64 l0 53 30 -11 c17 -5 32 -13 34 -16z m-90
-101 c11 -17 19 -121 9 -121 -24 0 -42 29 -48 78 -6 48 -5 52 13 52 12 0 23
-4 26 -9z m73 -32 c27 -9 31 -16 37 -60 8 -59 2 -73 -25 -59 -12 7 -19 21 -19
40 0 38 -20 40 -21 3 -1 -17 -5 -8 -10 21 -7 43 -5 66 5 66 2 0 17 -5 33 -11z
m-66 -119 c15 -9 19 -22 19 -65 0 -37 -4 -55 -12 -55 -29 1 -41 20 -46 74 -5
59 1 66 39 46z m50 -65 c6 -6 12 -2 15 13 7 23 12 26 30 14 14 -9 25 -110 13
-118 -5 -3 -21 2 -37 10 -29 15 -44 56 -41 111 l1 20 5 -20 c3 -11 9 -24 14
-30z m-49 -87 c22 -17 36 -118 16 -118 -28 0 -39 19 -45 73 -6 58 0 67 29 45z
m96 -34 c28 -20 32 -84 5 -84 -51 1 -63 11 -63 56 0 49 17 57 58 28z m-5 -146
c22 -11 27 -22 33 -66 3 -29 4 -55 2 -57 -2 -3 -20 0 -40 6 -34 9 -37 13 -44
54 -6 46 -1 75 14 75 4 0 20 -6 35 -12z m-63 -53 c0 -44 0 -44 -25 -33 -31 14
-32 42 -3 62 12 9 24 16 25 16 2 0 3 -20 3 -45z m-6 -74 c3 -4 9 -34 12 -66 7
-56 7 -57 -17 -53 -22 3 -24 9 -29 66 -4 54 -3 62 12 62 9 0 19 -4 22 -9z m56
-21 c16 -9 18 -15 10 -36 -6 -14 -10 -36 -10 -50 0 -15 -6 -24 -15 -24 -12 0
-15 13 -15 60 0 64 1 66 30 50z m47 -126 c-2 -2 -12 -1 -22 3 -18 6 -18 7 1
13 17 7 33 -5 21 -16z m-93 -16 c8 -13 6 -26 -7 -52 -24 -52 -37 -44 -37 20 0
46 3 55 16 52 9 -2 22 -11 28 -20z m98 -32 c4 -6 8 -33 8 -60 0 -42 -2 -47
-17 -41 -10 4 -25 9 -34 12 -18 5 -33 70 -23 97 7 18 53 12 66 -8z m-95 -68
c-3 -7 -5 -2 -5 12 0 14 2 19 5 13 2 -7 2 -19 0 -25z m1 -40 c7 -7 12 -36 12
-66 0 -50 -2 -53 -22 -50 -21 3 -23 9 -26 66 -3 64 8 78 36 50z m93 -27 c8 -8
19 -118 12 -124 -11 -12 -33 6 -33 27 0 11 -4 27 -9 35 -7 11 -11 10 -20 -5
-8 -15 -10 -9 -11 34 0 52 0 52 28 46 15 -4 30 -9 33 -13z m-88 -128 c2 -5 7
-37 11 -71 7 -58 6 -63 -11 -60 -24 5 -43 45 -43 96 0 35 3 42 19 42 11 0 22
-3 24 -7z m58 -78 c5 4 9 17 9 31 0 19 5 25 18 22 13 -2 18 -17 23 -63 3 -33
5 -61 3 -63 -1 -2 -18 0 -38 3 l-36 7 2 67 c1 41 3 52 5 28 2 -20 8 -35 14
-32z m-37 -97 c11 -42 7 -118 -6 -118 -27 0 -35 17 -41 78 -5 60 -4 62 18 62
15 0 25 -7 29 -22z m93 -11 c1 -1 3 -29 4 -62 3 -66 -5 -74 -54 -56 -25 10
-27 15 -27 72 l0 61 38 -7 c20 -4 38 -8 39 -8z m-97 -137 c9 -6 10 -10 3 -10
-6 0 -18 -3 -27 -6 -11 -4 -16 -1 -16 10 0 18 17 21 40 6z m91 -60 c26 -15 28
-90 2 -90 -51 1 -63 11 -63 56 0 38 3 44 21 44 11 0 29 -5 40 -10z m-81 -35
c0 -28 -4 -35 -19 -35 -11 0 -23 5 -26 10 -10 16 4 48 23 53 9 3 18 5 20 6 1
0 2 -15 2 -34z m-6 -61 c12 -5 16 -21 16 -74 0 -66 0 -67 -25 -62 -24 4 -25 8
-25 73 0 68 3 75 34 63z m72 -16 c29 -10 32 -15 38 -71 7 -69 2 -81 -25 -67
-14 8 -19 21 -19 51 0 37 -2 39 -20 29 -18 -10 -20 -8 -20 30 0 44 0 45 46 28z
m-16 -103 c0 -28 -15 -34 -24 -9 -10 25 -7 34 9 34 9 0 15 -9 15 -25z m-40
-121 c0 -72 0 -73 -22 -65 -20 7 -23 16 -26 78 l-3 70 26 -4 c24 -5 25 -8 25
-79z m41 39 c0 -27 1 -27 9 -5 6 12 18 22 30 22 18 0 20 -6 20 -70 0 -64 -2
-70 -21 -70 -49 0 -60 17 -57 86 2 62 17 92 19 37z m-37 -139 c3 -9 6 -43 6
-76 0 -56 -1 -59 -22 -56 -21 3 -24 10 -28 71 -3 38 -3 71 -1 73 10 10 39 3
45 -12z m94 -9 c8 -7 13 -133 6 -137 -5 -3 -23 -1 -40 3 -29 8 -32 13 -38 63
-8 74 -2 89 38 80 17 -3 32 -7 34 -9z m-88 -220 c0 -73 -1 -75 -25 -75 -24 0
-25 2 -25 75 0 73 1 75 25 75 24 0 25 -2 25 -75z m84 59 c12 -5 16 -21 16 -75
l0 -69 -34 0 -34 0 -4 68 c-3 37 -3 70 -1 75 5 9 35 9 57 1z m-76 -181 c3 -19
-1 -23 -21 -23 -23 0 -37 16 -37 41 0 6 12 9 28 7 19 -2 28 -9 30 -25z m96 6
c14 -12 5 -18 -35 -21 -29 -3 -34 0 -37 19 -3 21 0 22 30 17 18 -4 37 -10 42
-15z m582 -116 c-3 -76 -11 -210 -16 -298 -12 -204 -13 -535 -1 -535 5 0 11
105 15 233 12 431 19 569 28 507 11 -80 59 -582 65 -672 l5 -78 -41 0 c-43 0
-50 -9 -26 -34 8 -8 15 -16 15 -18 0 -2 -29 -4 -65 -5 -63 -3 -64 -2 -48 16 9
11 22 17 29 14 8 -3 14 2 14 11 0 17 -24 16 -133 -5 -26 -5 -67 -9 -90 -9 -23
0 -49 -5 -57 -11 -12 -8 -9 -10 13 -6 15 2 27 1 27 -3 0 -10 -120 -30 -184
-30 -60 0 -78 17 -24 22 32 3 33 4 31 53 -4 125 -14 358 -20 433 l-6 82 32 0
c29 0 31 2 31 36 0 20 -4 33 -10 29 -15 -9 -49 13 -49 33 0 28 -10 181 -16
254 l-6 67 33 5 c18 3 98 10 178 17 80 6 168 15 195 19 98 15 89 28 81 -127z
m-573 40 c13 -44 3 -63 -31 -63 -37 0 -52 17 -52 56 0 26 5 34 23 37 40 8 51
2 60 -30z m-103 -13 c0 -40 -5 -45 -34 -34 -19 7 -22 60 -3 67 30 13 37 6 37
-33z m5 -72 c2 -7 5 -41 7 -76 l4 -63 -30 3 -31 3 -3 73 c-3 71 -3 72 23 72
14 0 27 -6 30 -12z m81 2 c23 0 24 -2 24 -75 0 -73 -1 -75 -24 -75 -51 0 -56
7 -56 87 0 64 2 74 16 69 9 -3 27 -6 40 -6z m-85 -160 c11 -6 19 -21 19 -36 0
-22 -4 -25 -27 -22 -28 3 -40 25 -29 54 6 17 11 17 37 4z m93 -10 c42 -15 33
-40 -13 -40 -42 0 -57 11 -47 35 6 17 25 19 60 5z m-74 -125 c0 -20 -5 -25
-25 -25 -30 0 -36 36 -7 43 31 8 32 7 32 -18z m40 -6 c0 -10 -4 -19 -10 -19
-5 0 -10 12 -10 26 0 14 4 23 10 19 6 -3 10 -15 10 -26z m60 6 c0 -18 -5 -25
-20 -25 -15 0 -20 7 -20 25 0 18 5 25 20 25 15 0 20 -7 20 -25z m-96 -57 c3
-13 6 -51 6 -85 0 -53 -3 -63 -17 -64 -16 -1 -16 -2 -1 -6 18 -4 32 -74 27
-135 -1 -18 1 -66 5 -105 5 -40 6 -74 5 -76 -2 -1 6 -13 19 -27 24 -26 28 -40
12 -40 -5 0 -10 7 -10 15 0 19 -9 19 -29 1 -9 -8 -22 -12 -28 -8 -18 11 -32
130 -31 270 0 68 -3 126 -6 129 -3 4 -6 39 -6 80 0 70 1 73 24 73 16 0 26 -7
30 -22z m34 0 c-2 -11 3 -23 10 -25 7 -3 12 5 12 21 0 19 5 26 19 26 15 0 19
-11 25 -61 11 -108 11 -109 -29 -109 -29 0 -37 5 -45 26 -14 35 -13 144 1 144
5 0 9 -10 7 -22z m72 -222 c0 -35 3 -71 6 -80 5 -13 -1 -16 -30 -16 -44 0 -56
23 -56 106 l0 54 40 0 40 0 0 -64z m7 -120 c8 -8 8 -155 0 -162 -12 -12 -24
13 -32 63 -8 55 -25 56 -26 1 -1 -38 -3 -35 -11 21 -11 83 -7 95 34 87 17 -3
33 -8 35 -10z m746 -158 c-2 -5 -32 -8 -66 -8 -44 0 -58 3 -47 10 17 11 120 9
113 -2z m-4349 -505 c-4 -21 -7 -48 -7 -60 1 -25 -4 -28 -26 -14 -8 6 -11 17
-6 32 22 78 54 110 39 42z m239 -190 c-7 -2 -21 -2 -30 0 -10 3 -4 5 12 5 17
0 24 -2 18 -5z m65 -10 c-10 -2 -26 -2 -35 0 -10 3 -2 5 17 5 19 0 27 -2 18
-5z m95 -10 c-13 -2 -33 -2 -45 0 -13 2 -3 4 22 4 25 0 35 -2 23 -4z m105 -20
c-10 -2 -28 -2 -40 0 -13 2 -5 4 17 4 22 1 32 -1 23 -4z m129 -10 c-20 -2 -52
-2 -70 0 -17 2 0 4 38 4 39 0 53 -2 32 -4z m-639 -58 c7 -14 12 -29 12 -33 -1
-10 -40 38 -40 49 0 18 17 8 28 -16z m76 9 c3 -8 1 -14 -4 -14 -6 0 -10 6 -10
13 -1 7 -6 5 -14 -5 -17 -23 -21 -23 -23 1 -2 22 43 27 51 5z m649 -109 c1 -5
-6 -11 -15 -13 -11 -2 -18 3 -18 13 0 17 30 18 33 0z m96 -41 c5 4 11 0 14 -6
2 -8 8 -9 13 -4 5 5 4 11 -3 13 -7 3 -13 11 -13 19 0 23 39 16 66 -11 23 -23
25 -23 19 -5 -5 17 -2 20 19 20 27 0 35 -15 14 -23 -9 -4 -5 -12 11 -25 18
-14 20 -21 10 -24 -12 -4 -12 -7 0 -21 7 -10 22 -17 32 -17 11 0 19 -4 19 -10
0 -5 -7 -10 -15 -10 -17 0 -55 35 -55 50 0 6 -5 10 -11 10 -7 0 -9 -9 -6 -21
7 -24 -17 -37 -38 -19 -8 6 -18 9 -23 6 -5 -3 -21 8 -37 24 -15 15 -33 26 -39
24 -7 -2 -17 11 -24 29 -18 49 -15 53 13 23 14 -15 29 -25 34 -22z m-2 14 c-3
-8 -6 -5 -6 6 -1 11 2 17 5 13 3 -3 4 -12 1 -19z m-67 -30 c0 -5 -7 -8 -15 -8
-8 0 -15 2 -15 4 0 2 -3 12 -6 21 -6 15 -4 15 15 4 11 -8 21 -17 21 -21z m338
-33 c29 -36 49 -65 44 -65 -5 0 -15 7 -22 15 -16 20 -50 19 -50 -1 0 -8 -4
-12 -10 -9 -5 3 -10 17 -10 30 0 13 -4 26 -9 29 -14 9 -19 66 -6 66 6 0 35
-29 63 -65z m20 28 c19 -21 32 -31 29 -23 -2 8 -7 25 -11 38 -4 13 -3 22 3 22
6 0 14 -17 20 -37 28 -113 24 -117 -34 -38 -22 30 -43 54 -47 55 -5 0 -8 5 -8
10 0 19 15 10 48 -27z m138 4 c41 -37 54 -98 22 -105 -28 -5 -75 35 -88 74
-23 69 8 84 66 31z m102 0 c12 -11 22 -29 22 -40 0 -10 9 -32 21 -48 26 -37
12 -38 -17 -1 -24 30 -46 23 -26 -8 10 -16 10 -20 0 -20 -11 1 -80 124 -78
141 0 13 56 -4 78 -24z m-558 -52 c0 -15 -41 -2 -50 16 -11 20 -11 20 19 4 17
-8 31 -18 31 -20z m29 -10 c0 -5 -4 -3 -9 5 -5 8 -9 22 -9 30 0 16 17 -16 18
-35z m-924 5 c19 -8 19 -9 -2 -9 -12 -1 -25 4 -28 9 -7 12 2 12 30 0z m-210
-519 c-3 -6 -11 -8 -17 -5 -6 4 -5 9 3 15 16 10 23 4 14 -10z m6 -42 c-5 -13
-10 -19 -10 -12 -1 15 10 45 15 40 3 -2 0 -15 -5 -28z m37 -38 c3 -8 -1 -12
-9 -9 -7 2 -15 10 -17 17 -3 8 1 12 9 9 7 -2 15 -10 17 -17z m22 -73 c0 -4 -4
-8 -9 -8 -6 0 -12 4 -15 8 -3 5 1 9 9 9 8 0 15 -4 15 -9z m37 -80 c-3 -8 -6
-5 -6 6 -1 11 2 17 5 13 3 -3 4 -12 1 -19z m127 11 c13 11 16 11 16 -1 0 -16
-20 -20 -58 -12 -13 2 -20 9 -17 14 4 6 13 5 25 -2 14 -9 22 -9 34 1z m-85
-30 c-9 -18 -17 -20 -49 -15 -22 3 -41 2 -45 -4 -3 -5 -16 -10 -28 -10 -20 0
-19 2 7 15 15 8 43 15 62 15 18 0 36 5 39 10 12 20 26 10 14 -11z m38 -5 c-3
-3 -12 -4 -19 -1 -8 3 -5 6 6 6 11 1 17 -2 13 -5z m-94 -31 c-7 -2 -19 -2 -25
0 -7 3 -2 5 12 5 14 0 19 -2 13 -5z m-93 -23 c0 -5 -2 -10 -4 -10 -3 0 -8 5
-11 10 -3 6 -1 10 4 10 6 0 11 -4 11 -10z m47 4 c-3 -3 -12 -4 -19 -1 -8 3 -5
6 6 6 11 1 17 -2 13 -5z m-43 -60 c3 -8 2 -12 -4 -9 -6 3 -10 10 -10 16 0 14
7 11 14 -7z m3512 -659 c14 -13 13 -15 -5 -15 -12 0 -21 6 -21 15 0 8 3 15 6
15 3 0 12 -7 20 -15z"/>
<path d="M4371 3132 c-2 -34 22 -156 36 -180 14 -26 15 -25 9 28 -6 52 -44
180 -45 152z"/>
<path d="M4421 2881 c-1 -24 2 -32 9 -25 7 7 7 19 1 35 -9 23 -10 22 -10 -10z"/>
<path d="M4430 2816 c0 -8 5 -18 10 -21 6 -3 10 3 10 14 0 12 -4 21 -10 21 -5
0 -10 -6 -10 -14z"/>
<path d="M4088 2707 c-2 -18 -1 -44 3 -58 5 -16 7 -5 8 34 1 63 -5 76 -11 24z"/>
<path d="M1220 1688 c0 -18 38 -78 49 -78 10 0 23 41 16 49 -3 2 -5 -2 -5 -10
0 -8 -9 1 -20 19 -20 32 -40 42 -40 20z"/>
<path d="M1210 1655 c0 -5 5 -17 10 -25 5 -8 10 -10 10 -5 0 6 -5 17 -10 25
-5 8 -10 11 -10 5z"/>
<path d="M1410 1640 c0 -5 5 -10 11 -10 5 0 7 5 4 10 -3 6 -8 10 -11 10 -2 0
-4 -4 -4 -10z"/>
<path d="M1557 1666 c-11 -27 41 -91 59 -73 10 10 -14 61 -35 74 -15 10 -20 9
-24 -1z"/>
<path d="M1672 1644 c9 -9 21 -13 27 -9 16 10 3 25 -22 25 -20 0 -20 -1 -5
-16z"/>
<path d="M3572 6375 c0 -16 2 -22 5 -12 2 9 2 23 0 30 -3 6 -5 -1 -5 -18z"/>
<path d="M1115 5545 c17 -7 32 -11 35 -9 7 8 -24 24 -45 23 -15 0 -13 -4 10
-14z"/>
<path d="M1613 5548 c-13 -6 -23 -15 -23 -20 0 -4 -6 -8 -12 -8 -7 0 -24 -9
-38 -20 -21 -17 -23 -21 -10 -30 10 -6 16 -6 18 1 2 5 23 19 45 31 23 11 53
29 66 39 l24 19 -24 -1 c-13 0 -34 -5 -46 -11z"/>
<path d="M1051 5506 c-8 -10 -6 -19 9 -39 11 -14 20 -30 20 -36 0 -6 7 -11 15
-11 8 0 15 -3 15 -8 0 -4 36 -52 80 -106 44 -54 80 -103 80 -109 0 -7 -12 -48
-27 -92 -22 -63 -29 -74 -31 -52 -3 27 -22 39 -22 13 0 -8 -6 -17 -12 -19 -10
-4 -10 -6 0 -6 17 -1 15 -46 -4 -83 -9 -16 -11 -27 -5 -24 7 5 11 -3 11 -20 0
-29 -6 -29 -102 -3 -36 9 -38 12 -38 50 0 22 4 38 9 35 4 -3 6 6 3 19 -8 42
-21 27 -24 -27 l-3 -53 -40 1 c-22 1 -62 5 -90 10 -44 8 -50 12 -53 36 -2 16
-11 28 -23 31 -13 4 -17 10 -12 23 4 12 3 15 -5 10 -7 -4 -12 -24 -12 -44 0
-27 3 -33 10 -22 16 26 24 1 11 -40 -6 -22 -14 -70 -17 -107 -3 -38 -10 -83
-16 -100 -5 -18 -11 -49 -13 -69 -2 -19 -6 -38 -9 -41 -3 -4 38 -21 91 -39
l98 -33 -1 -61 c-1 -33 -3 -62 -5 -65 -3 -2 -15 -2 -27 2 -15 3 -22 13 -22 29
0 38 -16 28 -17 -10 0 -30 4 -37 33 -51 l34 -16 -6 -157 c-3 -86 -8 -160 -10
-164 -3 -5 -14 -8 -24 -8 -13 0 -20 8 -22 27 -5 40 -28 42 -28 1 0 -28 6 -36
38 -53 28 -15 36 -26 34 -42 -3 -24 4 -27 96 -38 33 -4 52 -2 52 5 0 5 5 10
10 10 6 0 23 9 38 20 19 14 48 21 102 24 l75 4 12 44 11 43 1 -45 c1 -44 2
-46 41 -58 22 -6 48 -12 57 -12 29 -1 62 -35 68 -70 5 -31 5 -32 -24 -25 -17
3 -32 2 -36 -4 -4 -7 5 -11 22 -12 15 0 52 -2 82 -4 33 -2 48 0 40 6 -23 14
20 38 67 39 39 0 42 2 46 31 4 25 0 33 -24 45 -28 14 -38 34 -17 34 5 0 7 -4
4 -10 -3 -5 -2 -10 3 -10 5 0 14 11 20 24 10 22 8 25 -11 28 -18 2 -23 11 -25
40 -3 32 0 38 15 35 27 -3 28 17 1 23 -19 5 -23 13 -26 52 -3 46 -3 47 30 50
28 3 33 7 36 32 2 18 0 26 -7 21 -6 -3 -8 -11 -5 -17 5 -8 -1 -9 -17 -5 -13 4
-28 7 -32 7 -5 0 -7 17 -5 38 3 37 4 37 68 54 36 9 79 14 96 11 28 -4 38 2 88
51 l56 56 -6 92 c-3 51 -7 98 -9 104 -2 7 -18 14 -37 17 -18 2 -42 7 -53 11
-11 3 -51 13 -90 21 -69 16 -89 29 -80 53 3 8 5 22 5 32 0 11 9 20 23 23 12 2
1 5 -25 6 -46 1 -48 2 -48 31 0 22 6 33 22 39 21 8 21 8 1 13 -11 3 -34 4 -51
3 -28 -2 -32 1 -32 21 0 13 9 33 19 43 11 11 17 21 15 24 -2 2 2 9 10 16 11 9
16 6 25 -20 10 -30 12 -31 53 -24 24 4 47 11 51 15 5 4 -27 79 -72 166 -44 88
-92 185 -106 217 l-26 57 -55 0 c-47 0 -54 -3 -54 -20 0 -18 -40 -50 -40 -33
0 4 -7 0 -14 -10 -13 -17 -17 -17 -62 -3 -27 8 -68 20 -91 26 -39 10 -68 30
-44 30 6 0 11 11 11 24 0 18 -8 27 -31 35 -43 15 -74 14 -88 -3z m187 -130
c62 -19 82 -42 40 -48 -18 -2 -22 -8 -20 -28 2 -14 8 -30 13 -36 5 -6 6 -14 3
-17 -7 -6 -124 134 -124 148 0 7 -1 7 88 -19z m202 -2 c0 -9 -10 -14 -27 -14
-25 0 -26 1 -8 20 19 21 35 18 35 -6z m112 -169 c-3 -19 0 -25 14 -25 27 0 54
-30 54 -62 0 -32 -9 -34 -50 -13 -22 11 -30 12 -34 2 -5 -9 -7 -9 -12 1 -9 20
-24 3 -24 -29 0 -22 -5 -29 -20 -29 -11 0 -20 7 -20 15 0 8 5 15 10 15 6 0 10
9 10 20 0 31 28 80 46 80 12 0 15 7 12 25 -3 16 -1 25 7 25 8 0 10 -9 7 -25z
m-180 8 c-10 -4 -10 -8 -1 -19 12 -15 4 -64 -10 -64 -12 0 -19 56 -9 74 5 9
14 16 21 15 8 0 8 -2 -1 -6z m-74 -119 c-1 -35 -5 -64 -9 -64 -5 0 -6 -7 -3
-15 5 -11 -1 -15 -19 -15 -27 0 -46 18 -31 29 5 3 9 11 9 16 1 25 39 124 47
119 4 -3 7 -34 6 -70z m162 11 c0 -13 -29 -29 -37 -21 -3 2 0 14 7 25 11 22
30 20 30 -4z m-133 -17 c-3 -7 -5 -2 -5 12 0 14 2 19 5 13 2 -7 2 -19 0 -25z
m17 -44 c23 -9 20 -24 -4 -24 -11 0 -20 7 -20 15 0 17 2 18 24 9z m106 -3 c0
-5 -7 -11 -15 -15 -9 -3 -15 0 -15 9 0 8 7 15 15 15 8 0 15 -4 15 -9z m90
-110 c0 -11 3 -26 6 -35 4 -10 1 -16 -9 -16 -8 0 -18 7 -21 16 -11 28 -6 54 9
54 8 0 15 -9 15 -19z m56 -20 c0 -11 -4 -17 -8 -15 -4 3 -8 0 -8 -5 0 -6 -4
-11 -10 -11 -5 0 -10 11 -10 25 0 17 5 25 18 25 11 0 18 -7 18 -19z m-604
-403 c7 -7 39 -35 71 -61 42 -36 57 -55 58 -75 0 -15 3 -22 5 -16 3 6 16 9 30
6 24 -4 26 -3 20 25 -6 24 -2 32 23 51 17 12 33 22 37 22 3 0 3 -21 -1 -46 -6
-40 -4 -45 11 -42 12 2 21 17 26 43 12 60 29 95 45 95 19 0 12 -44 -21 -140
l-23 -65 -84 -6 c-65 -4 -72 -6 -31 -7 45 -2 53 -5 50 -19 -2 -14 -17 -19 -63
-24 -56 -5 -55 -6 29 -7 75 -2 87 -4 77 -16 -7 -8 -14 -27 -17 -42 -6 -33 -15
-44 -21 -26 -8 21 -26 13 -20 -9 6 -24 2 -26 -80 -32 -50 -4 -63 -2 -63 9 0
10 16 15 58 16 l57 2 -56 3 -57 4 0 39 c-1 22 4 40 9 40 5 0 4 6 -3 14 -7 7
-19 11 -27 8 -10 -4 -13 -1 -8 11 6 15 4 16 -15 6 -20 -11 -20 -12 -4 -24 13
-10 14 -14 4 -19 -7 -3 -3 -3 9 0 20 5 22 2 21 -30 -1 -35 -11 -46 -23 -26
-13 20 -25 9 -23 -21 2 -26 5 -29 25 -24 33 8 29 -13 -4 -26 -16 -6 -36 -18
-47 -27 -18 -17 -18 -13 -12 123 9 188 18 325 21 325 2 0 10 -6 17 -12z m84
-10 c28 -14 44 -28 44 -40 0 -23 -18 -15 -69 31 -41 37 -34 39 25 9z m315
-139 c19 -19 20 -22 4 -39 -18 -20 -13 -42 9 -34 7 3 19 -2 26 -11 15 -18 0
-21 -18 -3 -9 9 -12 8 -12 -4 0 -9 -6 -19 -12 -21 -21 -9 13 -27 47 -26 23 0
26 2 12 8 -17 6 -16 8 8 19 22 10 26 18 23 42 -4 26 -1 29 36 39 22 5 41 9 42
8 7 -9 -21 -137 -30 -137 -7 0 -6 -4 3 -9 10 -6 11 -13 2 -29 -6 -11 -11 -34
-11 -51 0 -33 -19 -41 -50 -21 -12 7 -8 10 15 11 17 0 23 3 15 6 -8 3 -18 10
-21 16 -8 12 -88 27 -106 20 -7 -3 -13 -14 -13 -24 0 -22 -29 -25 -79 -8 -29
10 -43 29 -22 29 5 0 7 8 5 18 -9 36 11 77 42 83 23 5 24 7 7 8 -23 1 -32 24
-14 35 5 3 12 25 15 49 4 23 13 54 20 69 8 15 18 42 23 60 7 30 8 29 11 -25 2
-42 9 -64 23 -78z m-223 84 c-2 -10 -11 -19 -20 -21 -12 -2 -15 2 -11 17 7 25
36 28 31 4z m240 -30 c-4 -34 -28 -43 -28 -10 0 25 7 37 22 37 5 0 8 -12 6
-27z m152 -23 c0 -13 -12 -25 -36 -35 -39 -16 -104 -20 -104 -7 0 13 29 48 30
35 0 -14 35 -5 51 13 18 22 59 18 59 -6z m37 -2 c-3 -8 -6 -5 -6 6 -1 11 2 17
5 13 3 -3 4 -12 1 -19z m2 -150 c-1 -72 -5 -116 -13 -120 -8 -6 -7 -11 4 -18
13 -9 13 -11 0 -20 -13 -9 -13 -11 0 -19 20 -13 9 -22 -18 -14 -23 6 -31 33
-10 33 6 0 4 6 -7 13 -11 9 -15 19 -10 27 7 11 16 70 16 110 1 34 23 120 31
120 5 0 8 -51 7 -112z m-329 48 c0 -18 -15 -36 -31 -36 -12 0 -19 7 -19 20 0
15 7 20 25 20 14 0 25 -2 25 -4z m213 -251 c8 -20 0 -22 -60 -17 -37 3 -53 8
-53 18 0 20 106 20 113 -1z m177 -75 c0 -11 -7 -20 -15 -20 -18 0 -19 6 -2 25
16 19 17 18 17 -5z"/>
<path d="M1017 4355 c-18 -24 -17 -26 6 -49 14 -14 23 -27 20 -30 -3 -2 5 -2
17 1 14 4 18 8 10 13 -8 5 -7 9 4 13 9 4 16 13 16 21 0 12 -5 14 -26 6 -19 -7
-23 -7 -18 2 5 8 2 9 -12 4 -10 -4 -15 -3 -10 1 4 4 20 8 34 8 35 0 37 29 2
32 -17 2 -31 -5 -43 -22z"/>
<path d="M1203 4213 c-18 -7 -16 -23 2 -23 8 0 15 7 15 15 0 8 -1 15 -2 14 -2
0 -9 -3 -15 -6z"/>
<path d="M1086 4191 c5 -5 27 -6 49 -1 l40 8 -49 1 c-30 1 -46 -3 -40 -8z"/>
<path d="M1348 4283 c7 -3 16 -2 19 1 4 3 -2 6 -13 5 -11 0 -14 -3 -6 -6z"/>
<path d="M1288 4193 c7 -3 16 -2 19 1 4 3 -2 6 -13 5 -11 0 -14 -3 -6 -6z"/>
<path d="M1288 4143 c6 -2 18 -2 25 0 6 3 1 5 -13 5 -14 0 -19 -2 -12 -5z"/>
<path d="M1628 5472 c-35 -21 -36 -35 -2 -22 14 6 46 10 72 10 52 0 47 15 -8
23 -23 3 -44 -1 -62 -11z"/>
<path d="M1628 5403 c7 -3 16 -2 19 1 4 3 -2 6 -13 5 -11 0 -14 -3 -6 -6z"/>
<path d="M1607 5358 c-16 -12 -16 -16 -1 -55 9 -24 25 -45 36 -49 13 -4 17
-11 13 -25 -6 -17 -4 -18 20 -9 14 5 37 10 51 10 38 0 104 37 104 59 0 24 -30
58 -64 71 -38 14 -139 13 -159 -2z"/>
<path d="M582 5248 c6 -18 28 -21 28 -4 0 9 -7 16 -16 16 -9 0 -14 -5 -12 -12z"/>
<path d="M1212 5150 c0 -14 2 -19 5 -12 2 6 2 18 0 25 -3 6 -5 1 -5 -13z"/>
<path d="M711 5125 c13 -13 21 -15 35 -6 17 9 17 10 2 11 -9 0 -25 3 -35 6
-17 6 -17 6 -2 -11z"/>
<path d="M830 5130 c0 -5 -6 -15 -13 -22 -11 -11 -10 -18 5 -43 l18 -30 0 42
c0 38 2 42 24 40 14 -1 26 3 28 8 2 6 -12 11 -29 12 -18 1 -33 -3 -33 -7z"/>
<path d="M897 5089 c7 -7 15 -10 18 -7 3 3 -2 9 -12 12 -14 6 -15 5 -6 -5z"/>
<path d="M1028 5083 c7 -3 16 -2 19 1 4 3 -2 6 -13 5 -11 0 -14 -3 -6 -6z"/>
<path d="M756 5067 c3 -10 9 -15 12 -12 3 3 0 11 -7 18 -10 9 -11 8 -5 -6z"/>
<path d="M1820 4860 l-55 -6 80 -5 c77 -4 93 -3 84 5 -10 9 -59 12 -109 6z"/>
<path d="M1723 4853 c9 -2 23 -2 30 0 6 3 -1 5 -18 5 -16 0 -22 -2 -12 -5z"/>
<path d="M2128 4843 c7 -3 16 -2 19 1 4 3 -2 6 -13 5 -11 0 -14 -3 -6 -6z"/>
<path d="M1922 4805 c0 -16 2 -22 5 -12 2 9 2 23 0 30 -3 6 -5 -1 -5 -18z"/>
<path d="M1719 4818 c-7 -15 -6 -58 2 -58 5 0 9 14 9 30 0 25 -6 39 -11 28z"/>
<path d="M1980 4806 c0 -8 51 -13 56 -5 3 5 -9 9 -25 9 -17 0 -31 -2 -31 -4z"/>
<path d="M2083 4793 c9 -2 25 -2 35 0 9 3 1 5 -18 5 -19 0 -27 -2 -17 -5z"/>
<path d="M1798 4753 c6 -2 18 -2 25 0 6 3 1 5 -13 5 -14 0 -19 -2 -12 -5z"/>
<path d="M1921 4734 c0 -11 3 -14 6 -6 3 7 2 16 -1 19 -3 4 -6 -2 -5 -13z"/>
<path d="M795 4341 c-6 -11 9 -23 19 -14 9 9 7 23 -3 23 -6 0 -12 -4 -16 -9z"/>
<path d="M1230 3930 c-36 -15 -76 -19 -195 -21 l-150 -3 130 -7 c72 -4 160
-10 196 -14 l67 -7 -2 -49 c-1 -56 4 -55 -126 -25 -87 21 -100 20 -100 -4 0
-18 -7 -20 -77 -22 -63 -1 -68 -2 -23 -5 77 -4 100 -11 100 -28 0 -13 -25 -15
-160 -15 -157 0 -161 0 -170 23 -9 22 -9 22 -9 1 -1 -14 -9 -23 -23 -27 -13
-2 -31 -8 -41 -12 -15 -6 -17 -3 -14 26 4 42 27 87 61 118 l26 24 0 -36 c0
-20 -5 -39 -10 -42 -22 -14 4 -25 58 -25 41 0 53 3 42 10 -8 5 -30 10 -49 10
-33 0 -34 0 -27 38 3 20 6 43 6 50 0 10 10 12 43 7 30 -4 38 -3 27 4 -31 22
-83 13 -115 -21 -63 -66 -75 -89 -75 -144 0 -29 -5 -54 -10 -56 -7 -2 -6 -10
3 -22 13 -18 15 -18 45 4 31 23 57 21 34 -2 -23 -23 -11 -27 67 -21 61 4 86 2
112 -11 42 -21 52 -20 74 4 17 19 28 19 213 15 107 -2 198 -8 201 -12 7 -10
19 -11 151 -18 58 -3 116 -10 130 -15 14 -5 70 -16 125 -24 55 -8 111 -18 125
-21 14 -4 45 -11 70 -16 25 -5 50 -16 56 -24 8 -11 13 -12 22 -3 9 9 12 8 12
-6 0 -14 7 -17 33 -16 17 1 34 1 37 0 3 -1 19 -3 36 -4 27 -3 31 -1 26 16 -2
10 4 28 14 39 17 19 17 20 -4 26 -12 3 -22 9 -22 13 0 5 -8 6 -17 4 -10 -3
-52 6 -93 20 -41 13 -68 25 -60 27 13 2 -38 11 -117 22 -13 2 -26 7 -30 10 -3
4 -17 7 -29 7 -21 0 -23 4 -23 72 0 42 5 75 11 79 6 4 -4 10 -22 14 -19 4 -35
3 -39 -3 -3 -5 -15 -12 -26 -15 -11 -2 -1 -3 23 -1 l42 4 0 -40 0 -39 -90 6
c-64 4 -90 3 -90 -6 0 -7 29 -11 90 -11 88 0 90 -1 90 -24 0 -19 -6 -24 -37
-30 -52 -8 -73 -7 -48 3 13 5 -6 8 -50 7 -38 0 -87 3 -108 7 -33 7 -36 11 -31
31 5 20 1 24 -28 31 -32 7 -33 7 -8 15 24 8 24 8 -6 9 -38 1 -42 -3 -37 -34 4
-17 13 -25 32 -28 18 -3 14 -4 -14 -5 -55 -2 -72 10 -49 33 17 17 17 17 -4 11
-12 -4 -22 -3 -22 2 0 5 -16 13 -35 16 -35 7 -35 8 -35 57 l0 51 50 -7 c32 -4
50 -3 50 3 0 6 -4 13 -9 16 -5 3 -7 14 -4 25 5 19 -19 31 -64 31 -42 0 -22
-36 22 -42 17 -2 0 -5 -37 -5 -38 0 -68 3 -68 8 0 5 9 9 20 9 11 0 20 7 20 15
0 18 -3 18 -60 -5z m-70 -151 c18 -1 20 -3 7 -6 -27 -7 -69 6 -61 18 4 8 10 7
17 0 6 -6 22 -12 37 -12z m15 -29 c7 -12 -39 -24 -61 -16 -8 3 -12 10 -9 16 8
13 62 13 70 0z m185 -26 c0 -2 -12 -4 -26 -4 -14 0 -23 4 -20 9 6 8 46 4 46
-5z m-435 -84 c3 -6 -1 -13 -10 -16 -19 -8 -30 0 -20 15 8 14 22 14 30 1z"/>
<path d="M878 3863 c6 -2 18 -2 25 0 6 3 1 5 -13 5 -14 0 -19 -2 -12 -5z"/>
<path d="M928 3853 c7 -3 16 -2 19 1 4 3 -2 6 -13 5 -11 0 -14 -3 -6 -6z"/>
<path d="M1638 3853 c6 -2 18 -2 25 0 6 3 1 5 -13 5 -14 0 -19 -2 -12 -5z"/>
<path d="M968 3843 c7 -3 16 -2 19 1 4 3 -2 6 -13 5 -11 0 -14 -3 -6 -6z"/>
<path d="M1703 3843 c9 -2 23 -2 30 0 6 3 -1 5 -18 5 -16 0 -22 -2 -12 -5z"/>
<path d="M1018 3823 c7 -3 16 -2 19 1 4 3 -2 6 -13 5 -11 0 -14 -3 -6 -6z"/>
<path d="M1838 3813 c6 -2 18 -2 25 0 6 3 1 5 -13 5 -14 0 -19 -2 -12 -5z"/>
<path d="M1643 3803 c9 -2 25 -2 35 0 9 3 1 5 -18 5 -19 0 -27 -2 -17 -5z"/>
<path d="M1888 3803 c6 -2 18 -2 25 0 6 3 1 5 -13 5 -14 0 -19 -2 -12 -5z"/>
<path d="M1562 3788 c7 -20 48 -23 48 -4 0 11 -9 16 -26 16 -16 0 -24 -5 -22
-12z"/>
<path d="M1940 3790 c0 -5 7 -10 16 -10 8 0 12 5 9 10 -3 6 -10 10 -16 10 -5
0 -9 -4 -9 -10z"/>
<path d="M1988 3773 c6 -2 18 -2 25 0 6 3 1 5 -13 5 -14 0 -19 -2 -12 -5z"/>
<path d="M2038 3763 c7 -3 16 -2 19 1 4 3 -2 6 -13 5 -11 0 -14 -3 -6 -6z"/>
<path d="M2110 3741 c0 -6 -37 -12 -97 -14 l-98 -3 115 -2 c82 -2 111 -5 100
-12 -11 -8 -8 -9 12 -4 22 5 27 2 31 -18 3 -18 5 -17 6 8 1 22 -4 33 -16 37
-10 2 -26 8 -35 12 -11 4 -18 3 -18 -4z"/>
<path d="M1558 3713 c6 -2 18 -2 25 0 6 3 1 5 -13 5 -14 0 -19 -2 -12 -5z"/>
<path d="M1610 3701 c0 -5 9 -7 20 -4 11 3 20 7 20 9 0 2 -9 4 -20 4 -11 0
-20 -4 -20 -9z"/>
<path d="M616 3579 c-3 -17 -6 -44 -6 -60 0 -22 -5 -29 -20 -29 -15 0 -20 -7
-20 -25 0 -21 5 -25 28 -25 30 0 77 32 65 44 -3 3 -15 6 -25 6 -25 0 -23 18 5
40 18 15 20 21 10 31 -7 7 -13 21 -13 31 0 30 -17 20 -24 -13z"/>
<path d="M496 3521 c-3 -5 1 -22 9 -38 8 -17 16 -49 17 -72 1 -27 6 -41 15
-41 16 0 17 12 2 27 -7 7 -8 17 -3 25 8 13 13 29 18 58 1 9 5 20 9 27 4 6 0
14 -9 17 -23 9 -52 7 -58 -3z"/>
<path d="M570 3390 c0 -5 9 -10 19 -10 11 0 23 5 26 10 4 6 -5 10 -19 10 -14
0 -26 -4 -26 -10z"/>
<path d="M1013 3394 c-22 -9 -15 -41 10 -46 39 -7 58 2 55 25 -3 22 -37 33
-65 21z"/>
<path d="M624 3356 c-61 -71 -64 -75 -56 -96 6 -17 10 -18 25 -8 9 7 18 22 20
33 1 11 7 20 12 20 14 0 10 -82 -6 -101 -10 -12 -10 -15 1 -12 9 2 15 -10 17
-36 6 -66 13 -54 14 25 1 59 3 67 9 39 7 -33 8 -31 10 20 6 101 7 111 19 123
17 17 13 27 -13 27 -15 0 -35 -13 -52 -34z"/>
<path d="M881 3374 c0 -11 3 -14 6 -6 3 7 2 16 -1 19 -3 4 -6 -2 -5 -13z"/>
<path d="M1243 3374 c-7 -19 13 -34 45 -34 17 0 22 6 22 25 0 21 -5 25 -30 25
-19 0 -33 -6 -37 -16z"/>
<path d="M455 3343 c-122 -13 -165 -24 -165 -43 0 -11 108 -5 165 9 18 5 37 4
47 -3 12 -7 24 -6 42 3 21 12 43 40 34 45 -2 1 -57 -4 -123 -11z"/>
<path d="M1656 3345 c-8 -21 46 -49 63 -32 6 6 11 19 11 29 0 14 -8 18 -34 18
-21 0 -36 -6 -40 -15z"/>
<path d="M1848 3335 c-10 -10 4 -45 18 -45 8 0 14 -5 14 -11 0 -7 -14 -8 -39
-4 -45 7 -40 18 -59 -121 l-8 -62 35 -6 c20 -3 50 -6 67 -6 30 0 32 2 38 53 4
28 10 69 13 90 5 33 3 37 -16 37 -12 0 -21 6 -21 15 0 8 7 15 16 15 10 0 14 7
12 23 -2 16 -11 23 -33 25 -17 2 -33 0 -37 -3z"/>
<path d="M733 3318 c-4 -7 -9 -55 -11 -105 l-4 -93 38 0 c22 0 62 -3 90 -6
l51 -6 6 33 c4 19 9 69 13 112 l7 77 -91 0 c-62 0 -93 -4 -99 -12z"/>
<path d="M967 3317 c-3 -8 -8 -54 -12 -104 l-7 -89 93 0 94 1 7 94 c4 52 6 96
5 97 -1 1 -41 5 -88 9 -71 6 -87 5 -92 -8z"/>
<path d="M1197 3313 c-4 -6 -9 -54 -13 -107 l-7 -97 89 3 89 3 8 94 c4 52 6
95 5 97 -9 8 -166 15 -171 7z"/>
<path d="M1976 3306 c7 -18 39 -27 52 -14 6 6 20 4 40 -6 19 -10 42 -14 62
-10 17 4 29 8 28 10 -2 1 -35 8 -73 14 -39 5 -80 12 -92 15 -17 4 -21 1 -17
-9z"/>
<path d="M1403 3213 c-5 -48 -7 -91 -4 -94 3 -4 40 -9 82 -11 l76 -5 8 71 c13
135 21 121 -71 124 l-81 3 -10 -88z"/>
<path d="M1605 3206 c-6 -64 -12 -89 -24 -95 -10 -6 13 -10 71 -13 l88 -3 5
45 c3 25 9 64 14 88 5 27 5 45 -2 49 -5 3 -40 8 -77 11 l-68 5 -7 -87z"/>
<path d="M250 3270 c0 -5 5 -10 10 -10 6 0 10 5 10 10 0 6 -4 10 -10 10 -5 0
-10 -4 -10 -10z"/>
<path d="M1958 3249 c-6 -4 -7 -39 -2 -92 7 -91 11 -96 70 -97 24 0 29 15 40
124 l7 64 -53 3 c-28 2 -56 1 -62 -2z m86 -56 c-5 -20 -7 -20 -24 -5 -15 15
-16 18 -2 30 20 15 33 3 26 -25z m-27 -25 c-3 -8 -6 -5 -6 6 -1 11 2 17 5 13
3 -3 4 -12 1 -19z m18 -50 c-10 -47 -15 -52 -30 -31 -11 15 -10 21 8 39 29 29
30 29 22 -8z"/>
<path d="M280 3203 c0 -7 9 -13 19 -13 10 0 21 6 24 13 3 8 -4 13 -19 13 -13
0 -24 -6 -24 -13z"/>
<path d="M601 3168 c1 -7 5 -24 9 -38 7 -22 8 -21 9 13 1 20 -3 37 -9 37 -5 0
-10 -6 -9 -12z"/>
<path d="M0 3112 c0 -40 36 -131 53 -132 4 0 7 13 7 29 0 27 -15 68 -45 121
-14 25 -15 24 -15 -18z"/>
<path d="M585 3137 c-4 -10 -5 -21 -1 -24 10 -10 18 4 13 24 -4 17 -4 17 -12
0z"/>
<path d="M528 3103 c6 -2 18 -2 25 0 6 3 1 5 -13 5 -14 0 -19 -2 -12 -5z"/>
<path d="M1320 3044 c0 -15 26 -19 34 -5 3 5 -3 11 -14 14 -13 3 -20 0 -20 -9z"/>
<path d="M77 2965 c-7 -38 3 -57 23 -45 12 8 12 13 -1 42 l-16 32 -6 -29z"/>
<path d="M111 2911 c-10 -6 -10 -10 -1 -16 13 -8 24 -1 19 14 -3 6 -10 7 -18
2z"/>
<path d="M3063 2866 c10 -25 -41 -36 -163 -36 -100 0 -120 3 -120 15 0 8 -8
15 -17 14 -11 0 -13 -3 -5 -6 17 -7 5 -23 -19 -23 -10 0 -19 -4 -19 -10 0 -5
11 -10 25 -10 14 0 25 -6 25 -12 0 -10 2 -10 8 -1 5 7 59 12 167 13 235 3 248
3 393 0 73 -1 136 1 139 4 4 3 -37 6 -90 6 -72 0 -99 4 -111 15 -16 17 -41 21
-31 5 8 -14 -68 -13 -116 1 -25 8 -36 16 -32 25 3 9 -2 14 -17 14 -15 0 -20
-5 -17 -14z"/>
<path d="M5 2850 c-3 -4 -5 -47 -4 -94 1 -73 3 -86 17 -86 15 -1 15 -2 -1 -14
-9 -7 -17 -16 -17 -20 0 -3 35 -6 78 -5 46 0 69 3 58 8 -19 7 -19 8 2 13 18 5
22 14 23 50 3 59 4 70 13 90 19 41 4 53 -64 55 -35 1 -73 4 -82 6 -10 3 -20 1
-23 -3z"/>
<path d="M609 2816 c-2 -2 -47 -5 -99 -7 -131 -3 -217 -17 -217 -35 0 -19 38
-28 81 -20 38 7 59 -8 24 -17 -21 -6 -21 -7 -4 -26 11 -13 15 -27 11 -40 -4
-12 -2 -21 4 -21 6 0 11 16 11 36 0 33 2 35 28 32 23 -3 27 -8 30 -38 2 -19
10 -38 17 -43 8 -4 17 -28 21 -52 4 -32 11 -45 23 -45 13 0 13 2 3 9 -8 5 -12
17 -10 26 3 18 4 18 21 1 9 -10 15 -22 12 -27 -4 -5 9 -9 27 -9 19 0 28 4 21
8 -9 6 -9 24 1 82 8 41 19 88 25 103 6 16 11 40 12 55 0 15 3 21 6 15 7 -18
23 -16 23 2 0 10 -10 15 -33 15 -19 0 -36 -2 -38 -4z"/>
<path d="M2469 2783 c-28 -34 -66 -98 -72 -123 l-6 -25 17 24 c22 32 83 141
78 141 -1 0 -9 -8 -17 -17z"/>
<path d="M2185 2777 c-4 -10 -5 -21 -1 -24 10 -10 18 4 13 24 -4 17 -4 17 -12
0z"/>
<path d="M2235 2780 c3 -5 1 -10 -4 -10 -6 0 -11 -18 -11 -41 0 -50 21 -49 32
2 8 38 4 59 -12 59 -6 0 -8 -4 -5 -10z"/>
<path d="M2278 2773 c6 -2 18 -2 25 0 6 3 1 5 -13 5 -14 0 -19 -2 -12 -5z"/>
<path d="M192 2761 c2 -7 7 -12 11 -12 12 1 9 15 -3 20 -7 2 -11 -2 -8 -8z"/>
<path d="M1189 2758 c-11 -38 12 -71 33 -50 7 7 20 12 30 12 10 0 18 4 18 9 0
12 -77 39 -81 29z"/>
<path d="M1290 2731 c0 -13 54 -17 168 -13 140 5 111 22 -38 22 -74 0 -130 -4
-130 -9z"/>
<path d="M1580 2729 c0 -7 441 -19 449 -12 2 1 2 5 0 7 -7 7 -449 11 -449 5z"/>
<path d="M2180 2720 c0 -11 5 -20 10 -20 6 0 10 9 10 20 0 11 -4 20 -10 20 -5
0 -10 -9 -10 -20z"/>
<path d="M344 2695 c-3 -20 -4 -39 0 -42 3 -4 6 1 6 10 0 10 5 17 10 17 6 0
10 11 10 25 0 37 -18 30 -26 -10z"/>
<path d="M2056 2721 c-6 -10 61 -21 81 -13 7 2 10 8 7 13 -7 12 -81 12 -88 0z"/>
<path d="M462 2675 c0 -16 2 -22 5 -12 2 9 2 23 0 30 -3 6 -5 -1 -5 -18z"/>
<path d="M1920 2655 c0 -16 16 -20 24 -6 3 5 -1 11 -9 15 -9 3 -15 0 -15 -9z"/>
<path d="M730 2614 c0 -8 5 -12 10 -9 6 3 10 10 10 16 0 5 -4 9 -10 9 -5 0
-10 -7 -10 -16z"/>
<path d="M2375 2622 c-13 -9 -37 -63 -31 -69 3 -3 14 13 26 36 21 43 22 46 5
33z"/>
<path d="M370 2580 c0 -19 3 -21 12 -12 9 9 9 15 0 24 -9 9 -12 7 -12 -12z"/>
<path d="M330 2561 c0 -15 -8 -21 -37 -24 -36 -3 -35 -4 8 -5 44 -2 46 -1 41
23 -5 30 -12 33 -12 6z"/>
<path d="M442 2548 c-7 -7 -12 -20 -12 -29 0 -15 -19 -29 -40 -29 -5 0 -11 12
-13 28 -3 15 -4 1 -3 -30 1 -31 -1 -55 -6 -52 -6 4 -11 -81 -8 -143 1 -7 140
-7 146 0 1 1 5 14 9 30 6 24 4 27 -17 27 -19 0 -25 5 -25 23 1 96 -4 187 -11
187 -4 0 -13 -5 -20 -12z"/>
<path d="M2300 2500 c0 -5 5 -10 11 -10 5 0 7 5 4 10 -3 6 -8 10 -11 10 -2 0
-4 -4 -4 -10z"/>
<path d="M40 2472 c0 -6 -10 -13 -22 -17 -14 -4 -18 -8 -10 -12 6 -2 9 -10 5
-16 -4 -6 -7 -42 -8 -80 0 -60 3 -72 22 -87 13 -10 23 -21 23 -25 0 -12 48
-53 78 -69 48 -24 79 -27 86 -10 6 15 -20 51 -30 41 -3 -3 -16 5 -29 17 -13
11 -40 30 -62 41 -44 22 -90 55 -77 55 5 0 27 -12 49 -25 22 -14 56 -25 75
-26 19 0 29 -3 22 -6 -10 -4 -10 -8 -1 -20 10 -12 15 -7 26 26 14 41 14 41
-22 72 -19 17 -38 42 -41 55 -7 26 -24 33 -24 10 0 -9 -8 -12 -26 -8 -19 3
-22 7 -12 13 10 7 11 12 1 28 -7 11 -8 21 -4 23 5 2 3 9 -5 16 -8 7 -14 9 -14
4z m74 -143 c-8 -14 -24 -10 -24 6 0 9 6 12 15 9 8 -4 12 -10 9 -15z"/>
<path d="M485 2388 c1 -12 7 -24 14 -26 8 -3 12 4 9 19 -4 29 -25 36 -23 7z"/>
<path d="M880 2390 c0 -5 7 -10 15 -10 8 0 15 5 15 10 0 6 -7 10 -15 10 -8 0
-15 -4 -15 -10z"/>
<path d="M800 2350 c0 -5 7 -10 15 -10 8 0 15 5 15 10 0 6 -7 10 -15 10 -8 0
-15 -4 -15 -10z"/>
<path d="M870 2290 c37 -29 55 -26 24 4 -8 9 -23 16 -32 16 -13 0 -11 -5 8
-20z"/>
<path d="M236 2273 c-4 -4 -15 -8 -24 -8 -11 0 -18 -10 -20 -27 -4 -35 24 -39
38 -5 9 20 10 20 9 2 -2 -38 1 -55 10 -55 5 0 7 19 4 42 -5 36 -4 41 11 35 12
-5 16 -3 14 5 -5 15 -31 22 -42 11z"/>
<path d="M300 2245 c0 -8 5 -15 10 -15 6 0 10 7 10 15 0 8 -4 15 -10 15 -5 0
-10 -7 -10 -15z"/>
<path d="M443 2233 c-3 -10 -13 -26 -21 -35 -14 -16 -13 -18 4 -19 11 0 13 -3
7 -6 -15 -5 -16 -67 -3 -98 5 -11 9 -14 9 -7 1 6 8 12 16 12 19 0 21 76 3 83
-10 4 -10 6 0 6 15 1 17 67 2 76 -6 3 -13 -2 -17 -12z"/>
<path d="M500 2175 c0 -8 5 -15 10 -15 6 0 10 7 10 15 0 8 -4 15 -10 15 -5 0
-10 -7 -10 -15z"/>
<path d="M290 2170 c0 -5 9 -10 20 -10 11 0 20 5 20 10 0 6 -9 10 -20 10 -11
0 -20 -4 -20 -10z"/>
<path d="M230 2150 c0 -17 2 -19 14 -8 14 13 12 28 -5 28 -5 0 -9 -9 -9 -20z"/>
<path d="M507 2120 c3 -11 9 -17 15 -14 5 3 4 12 -3 20 -16 19 -18 18 -12 -6z"/>
<path d="M3290 2085 c0 -8 7 -15 15 -15 8 0 15 4 15 9 0 5 -7 11 -15 15 -9 3
-15 0 -15 -9z"/>
<path d="M3357 2059 c7 -7 15 -10 18 -7 3 3 -2 9 -12 12 -14 6 -15 5 -6 -5z"/>
<path d="M3313 2045 c0 -8 4 -15 9 -15 4 0 8 7 8 15 0 8 -4 15 -8 15 -5 0 -9
-7 -9 -15z"/>
<path d="M4740 1846 c0 -2 8 -10 18 -17 15 -13 16 -12 3 4 -13 16 -21 21 -21
13z"/>
<path d="M4718 1633 c6 -2 18 -2 25 0 6 3 1 5 -13 5 -14 0 -19 -2 -12 -5z"/>
<path d="M4708 1473 c12 -2 32 -2 45 0 12 2 2 4 -23 4 -25 0 -35 -2 -22 -4z"/>
<path d="M150 1444 c0 -9 5 -14 12 -12 18 6 21 28 4 28 -9 0 -16 -7 -16 -16z"/>
<path d="M4698 1443 c7 -3 16 -2 19 1 4 3 -2 6 -13 5 -11 0 -14 -3 -6 -6z"/>
<path d="M4628 1223 c7 -3 16 -2 19 1 4 3 -2 6 -13 5 -11 0 -14 -3 -6 -6z"/>
<path d="M4338 1113 c7 -3 16 -2 19 1 4 3 -2 6 -13 5 -11 0 -14 -3 -6 -6z"/>
<path d="M4381 1111 c-7 -5 -9 -11 -5 -14 5 -3 15 1 22 9 14 16 5 18 -17 5z"/>
<path d="M4455 1070 c3 -5 8 -10 11 -10 2 0 4 5 4 10 0 6 -5 10 -11 10 -5 0
-7 -4 -4 -10z"/>
<path d="M4488 1073 c6 -2 18 -2 25 0 6 3 1 5 -13 5 -14 0 -19 -2 -12 -5z"/>
<path d="M4628 1053 c6 -2 18 -2 25 0 6 3 1 5 -13 5 -14 0 -19 -2 -12 -5z"/>
<path d="M4350 1000 c0 -5 5 -10 11 -10 5 0 7 5 4 10 -3 6 -8 10 -11 10 -2 0
-4 -4 -4 -10z"/>
<path d="M4272 968 c2 -6 19 -14 38 -16 30 -3 32 -2 21 12 -16 19 -65 22 -59
4z"/>
<path d="M4610 940 c-12 -8 -12 -10 3 -14 9 -4 25 -9 35 -12 9 -3 30 -8 46
-11 41 -7 24 13 -19 21 -19 4 -35 11 -35 16 0 12 -11 12 -30 0z"/>
<path d="M4478 933 c6 -2 18 -2 25 0 6 3 1 5 -13 5 -14 0 -19 -2 -12 -5z"/>
<path d="M4293 922 c-13 -2 -23 -8 -23 -13 0 -5 11 -7 25 -3 15 4 25 2 25 -5
0 -6 12 -10 28 -10 16 1 20 3 10 6 -10 2 -18 10 -18 17 0 13 -8 14 -47 8z"/>
<path d="M4520 915 c-10 -12 -10 -15 3 -15 8 0 17 7 21 15 3 8 2 15 -3 15 -5
0 -14 -7 -21 -15z"/>
<path d="M4582 882 c-16 -3 -20 -7 -13 -15 10 -13 121 -10 121 3 0 9 -72 17
-108 12z"/>
<path d="M4780 865 c0 -11 -11 -15 -37 -15 -47 0 -40 -6 16 -13 25 -3 39 -2
32 2 -9 6 -10 11 -2 15 14 9 14 26 1 26 -5 0 -10 -7 -10 -15z"/>
<path d="M4300 782 c6 -13 14 -21 18 -18 3 4 -2 14 -12 24 -18 16 -18 16 -6
-6z"/>
<path d="M4235 760 c-3 -5 -2 -10 4 -10 5 0 13 5 16 10 3 6 2 10 -4 10 -5 0
-13 -4 -16 -10z"/>
<path d="M4450 743 c-8 -3 -22 -11 -30 -18 -8 -7 -26 -15 -40 -18 -16 -3 -11
-5 17 -6 23 0 45 4 48 9 3 6 17 10 31 10 27 0 32 15 8 24 -9 3 -16 6 -17 5 -1
0 -9 -3 -17 -6z"/>
<path d="M4550 740 c-1 -8 -2 -19 -1 -23 1 -5 -8 -6 -19 -2 -11 4 -20 2 -20
-4 0 -6 -6 -11 -14 -11 -7 0 -19 -7 -26 -15 -11 -13 -8 -15 15 -15 16 0 37 8
47 17 10 9 38 18 62 19 39 3 43 1 39 -17 -3 -10 0 -19 6 -19 19 0 12 39 -8 50
-11 5 -31 10 -45 10 -13 0 -27 6 -29 13 -4 8 -6 8 -7 -3z"/>
<path d="M4660 707 c0 -8 6 -14 13 -14 6 0 25 -4 41 -8 21 -6 27 -5 22 4 -4 6
-16 11 -27 11 -10 0 -19 5 -19 10 0 6 -7 10 -15 10 -8 0 -15 -6 -15 -13z"/>
<path d="M4785 700 c3 -5 8 -10 11 -10 2 0 4 5 4 10 0 6 -5 10 -11 10 -5 0 -7
-4 -4 -10z"/>
<path d="M4168 693 c7 -3 16 -2 19 1 4 3 -2 6 -13 5 -11 0 -14 -3 -6 -6z"/>
<path d="M4546 674 c-18 -13 -16 -14 25 -13 24 0 37 3 29 6 -8 3 -20 9 -25 14
-6 4 -19 1 -29 -7z"/>
<path d="M4220 649 c13 -6 33 -9 45 -8 11 1 22 0 25 -1 15 -5 58 -13 80 -14
16 -1 25 4 25 14 0 12 -19 15 -100 17 -73 1 -93 -1 -75 -8z"/>
<path d="M4745 630 c21 -23 55 -27 55 -6 0 13 -29 26 -59 26 -11 0 -10 -5 4
-20z"/>
<path d="M4495 620 c-3 -5 -2 -10 4 -10 5 0 18 -3 28 -7 17 -6 17 -6 1 10 -19
20 -24 21 -33 7z"/>
<path d="M4135 610 c3 -5 8 -10 11 -10 2 0 4 5 4 10 0 6 -5 10 -11 10 -5 0 -7
-4 -4 -10z"/>
<path d="M4667 609 c-11 -6 -24 -12 -30 -14 -7 -2 -22 -6 -35 -10 -23 -7 -23
-8 -3 -22 12 -8 26 -13 33 -12 35 4 50 -2 44 -17 -5 -12 -2 -15 10 -10 9 4 22
2 28 -3 11 -9 38 -14 69 -12 13 1 17 10 17 36 0 34 -1 35 -39 35 -22 0 -43 -4
-46 -10 -11 -18 -35 -11 -35 10 0 11 5 20 10 20 6 0 10 5 10 10 0 13 -10 12
-33 -1z m-17 -31 c0 -4 -7 -8 -15 -8 -8 0 -15 4 -15 8 0 5 7 9 15 9 8 0 15 -4
15 -9z"/>
<path d="M4428 603 c6 -2 18 -2 25 0 6 3 1 5 -13 5 -14 0 -19 -2 -12 -5z"/>
<path d="M4201 591 c-8 -5 -11 -16 -8 -25 5 -12 2 -14 -17 -6 -32 12 -40 1
-14 -19 20 -17 18 -17 -43 -14 -60 4 -63 3 -38 -11 14 -8 50 -16 80 -19 31 -2
60 -7 66 -10 6 -4 13 4 16 19 3 18 -2 32 -17 46 l-21 21 38 -6 c22 -4 35 -2
32 4 -4 5 -14 9 -24 9 -9 0 -21 4 -27 10 -5 5 -15 6 -23 1z"/>
<path d="M3825 540 c3 -5 12 -7 20 -3 21 7 19 13 -6 13 -11 0 -18 -4 -14 -10z"/>
<path d="M4420 537 c8 -8 29 -18 45 -21 27 -7 28 -6 15 8 -8 8 -28 18 -45 22
-27 6 -28 5 -15 -9z"/>
<path d="M4310 510 c20 -13 43 -13 35 0 -3 6 -16 10 -28 10 -18 0 -19 -2 -7
-10z"/>
<path d="M4554 509 c-3 -5 6 -9 20 -9 31 0 34 6 6 13 -11 3 -23 1 -26 -4z"/>
<path d="M3944 473 c2 -10 11 -20 22 -21 10 -2 23 -8 29 -13 12 -12 35 -11 35
1 0 20 -24 36 -47 32 -13 -2 -23 1 -23 7 0 6 -4 11 -9 11 -5 0 -8 -8 -7 -17z"/>
<path d="M4408 483 c7 -3 16 -2 19 1 4 3 -2 6 -13 5 -11 0 -14 -3 -6 -6z"/>
<path d="M4050 462 c0 -13 40 -30 83 -36 29 -4 34 -2 25 7 -30 28 -108 49
-108 29z"/>
<path d="M4455 460 c-4 -6 6 -10 22 -10 22 0 25 2 13 10 -19 12 -27 12 -35 0z"/>
<path d="M4288 453 c6 -2 18 -2 25 0 6 3 1 5 -13 5 -14 0 -19 -2 -12 -5z"/>
<path d="M4690 430 c-25 -6 -25 -6 4 -12 17 -3 39 -3 50 1 19 7 18 8 -5 12
-13 3 -35 2 -49 -1z"/>
<path d="M4188 413 c7 -3 16 -2 19 1 4 3 -2 6 -13 5 -11 0 -14 -3 -6 -6z"/>
<path d="M4480 405 c0 -17 73 -39 106 -31 17 5 24 1 29 -15 10 -31 -1 -34 -53
-16 -55 20 -70 21 -54 5 7 -7 12 -16 12 -20 0 -14 -27 -9 -40 7 -9 11 -27 15
-56 13 -47 -3 -47 -11 -1 -35 19 -9 27 -18 19 -21 -10 -3 -8 -7 5 -17 16 -12
15 -13 -10 -8 -15 3 -27 9 -27 14 0 5 -7 9 -15 9 -28 0 -15 -18 25 -36 22 -10
40 -22 40 -27 0 -5 -8 -6 -17 -2 -10 4 -31 10 -48 12 l-30 5 30 -20 c29 -18
65 -30 115 -37 14 -2 47 -13 73 -25 27 -12 51 -19 54 -16 4 3 12 1 20 -5 7 -7
13 -7 13 -2 0 5 -11 15 -25 21 -14 7 -30 23 -35 37 -5 13 -20 27 -33 30 -13 4
-24 13 -24 20 0 8 4 12 8 9 4 -2 9 1 11 7 3 9 11 8 29 -3 13 -9 47 -19 74 -23
l50 -7 -22 24 c-69 71 -73 78 -53 78 11 0 20 7 20 15 0 8 -4 15 -10 15 -5 0
-10 -5 -10 -11 0 -5 -5 -7 -11 -4 -6 4 -8 13 -5 20 6 17 -19 27 -48 19 -18 -4
-25 -1 -29 17 -5 19 -8 20 -22 9 -12 -10 -19 -10 -27 -2 -16 16 -28 15 -28 -3z
m-35 -75 c3 -6 -1 -7 -9 -4 -18 7 -21 14 -7 14 6 0 13 -4 16 -10z"/>
<path d="M4766 396 c7 -19 38 -22 32 -3 -3 6 -12 13 -21 15 -12 2 -15 -1 -11
-12z"/>
<path d="M4004 382 c6 -17 3 -19 -16 -14 -21 5 -22 4 -9 -11 15 -19 52 -22 68
-6 8 8 18 6 36 -6 16 -10 34 -14 47 -10 12 4 20 2 20 -5 0 -8 12 -10 38 -6 20
3 49 6 64 6 20 0 25 4 21 18 -2 10 -12 18 -21 18 -9 0 -39 3 -67 6 -27 3 -39
3 -25 0 l25 -5 -25 -6 c-27 -7 -70 8 -70 24 0 6 -4 3 -10 -5 -7 -12 -12 -12
-37 0 -15 8 -32 16 -37 18 -4 3 -5 -5 -2 -16z"/>
<path d="M4415 380 c-4 -6 3 -10 14 -10 25 0 27 6 6 13 -8 4 -17 2 -20 -3z"/>
<path d="M4675 360 c10 -11 29 -20 43 -20 13 0 37 -9 53 -21 l29 -20 0 25 c0
32 -32 50 -76 43 -19 -3 -36 -1 -39 4 -4 5 -11 9 -17 9 -6 0 -3 -9 7 -20z"/>
<path d="M3821 336 c2 -2 24 -6 49 -9 30 -4 38 -3 25 3 -19 8 -83 14 -74 6z"/>
<path d="M4720 300 c0 -12 5 -17 14 -14 19 7 52 -26 35 -37 -7 -4 -17 -5 -21
-3 -4 3 -8 -4 -8 -16 0 -17 32 -40 56 -40 2 0 4 23 4 50 0 44 -3 50 -20 50
-11 0 -23 7 -26 15 -9 22 -34 18 -34 -5z"/>
<path d="M3950 298 c0 -6 -10 -8 -23 -6 -13 2 -29 -1 -35 -9 -10 -10 -5 -12
28 -10 22 1 40 5 40 9 0 3 8 8 18 10 14 3 13 5 -5 10 -13 3 -23 2 -23 -4z"/>
<path d="M3655 270 c3 -5 10 -10 16 -10 5 0 9 5 9 10 0 6 -7 10 -16 10 -8 0
-12 -4 -9 -10z"/>
<path d="M3813 246 c3 -8 1 -16 -5 -18 -6 -2 21 -5 61 -6 39 -2 71 1 71 6 0
11 -58 24 -71 16 -5 -3 -9 -1 -9 3 0 5 -12 10 -26 11 -19 1 -25 -2 -21 -12z"/>
<path d="M4036 241 c12 -5 25 -15 29 -21 6 -9 2 -9 -13 -1 -27 14 -29 14 -34
-7 -3 -10 1 -23 8 -29 7 -7 18 -20 26 -30 7 -10 38 -30 68 -45 57 -30 43 -37
-25 -14 -22 8 -41 21 -43 30 -2 9 -8 14 -13 10 -5 -3 -12 1 -15 9 -4 12 -12
13 -36 6 -17 -4 -35 -6 -41 -2 -6 3 -7 1 -3 -5 4 -7 18 -12 31 -12 26 0 46
-21 27 -28 -7 -2 -12 -7 -12 -12 0 -11 54 -32 76 -30 11 1 21 1 24 0 3 -1 31
-3 64 -5 32 -2 63 -8 69 -14 9 -9 1 -10 -28 -6 -56 7 -177 17 -195 16 -8 -1
-28 -2 -45 -2 -29 -1 -29 -1 8 -11 20 -5 37 -16 37 -24 0 -8 8 -14 18 -13 9 0
12 3 5 5 -7 3 -9 12 -6 20 6 16 33 19 33 4 0 -5 14 -10 31 -10 17 0 39 -5 50
-10 10 -6 54 -10 96 -8 l78 3 -65 47 c-76 55 -110 90 -110 112 0 9 -6 16 -13
16 -7 0 -18 10 -26 23 -13 21 -13 21 5 6 29 -25 97 -57 112 -52 7 3 12 -4 12
-15 0 -11 7 -22 15 -26 8 -3 15 -10 15 -16 0 -6 -4 -9 -9 -6 -5 3 -11 -1 -15
-9 -6 -16 -2 -20 36 -29 26 -6 26 -5 16 27 -6 17 -15 42 -19 55 -8 20 -6 23 8
18 10 -2 34 -7 53 -11 28 -5 31 -4 18 5 -27 16 -22 28 10 23 l27 -4 -25 15
c-28 17 -64 21 -55 7 3 -5 -8 -3 -25 6 -17 8 -67 21 -113 28 -45 8 -95 16
-112 20 -25 4 -26 4 -9 -4z"/>
<path d="M4660 200 c0 -5 10 -10 23 -10 18 0 19 2 7 10 -19 13 -30 13 -30 0z"/>
<path d="M3698 172 c-6 -7 -17 -11 -25 -8 -7 3 -13 -1 -13 -10 0 -8 12 -19 27
-25 15 -6 30 -14 33 -20 6 -9 102 -30 109 -23 2 2 -10 7 -27 10 -18 4 -32 13
-32 21 0 10 -6 12 -21 8 -22 -7 -39 7 -39 33 0 18 18 15 53 -10 57 -41 77 -49
77 -31 0 9 8 22 18 29 16 12 15 13 -6 14 -13 0 -33 5 -45 12 -30 16 -96 16
-109 0z"/>
<path d="M4716 165 c4 -8 1 -15 -5 -15 -6 0 -11 -3 -11 -8 0 -4 22 -7 50 -7
58 0 65 15 17 33 -44 16 -58 15 -51 -3z"/>
<path d="M3887 107 c-9 -11 -16 -22 -14 -23 1 -1 22 1 46 5 40 5 43 7 27 21
-26 21 -40 20 -59 -3z"/>
<path d="M4360 117 c0 -10 -6 -14 -14 -11 -8 3 -23 0 -33 -6 -16 -10 -16 -11
0 -6 19 6 24 -10 5 -17 -10 -4 -9 -6 1 -6 11 -1 10 -6 -4 -21 -18 -20 -18 -21
1 -35 24 -18 37 -19 31 -2 -2 6 -10 11 -16 9 -15 -3 -13 19 4 42 13 18 20 15
16 -6 0 -5 2 -7 7 -7 18 3 26 -2 14 -9 -18 -12 -4 -42 19 -42 10 0 19 5 19 10
0 13 27 13 32 0 2 -7 33 -10 82 -8 l78 3 -19 24 c-14 17 -25 22 -39 17 -16 -6
-16 -9 -4 -16 25 -16 -5 -11 -38 6 -36 18 -42 29 -11 19 16 -5 20 -3 17 6 -3
8 -16 14 -29 14 -14 0 -24 6 -24 15 0 21 -37 39 -52 27 -9 -6 -18 -5 -28 3
-12 10 -15 10 -15 -3z"/>
<path d="M4725 120 c3 -5 8 -10 11 -10 2 0 4 5 4 10 0 6 -5 10 -11 10 -5 0 -7
-4 -4 -10z"/>
<path d="M4480 99 c0 -5 5 -7 10 -4 6 3 10 8 10 11 0 2 -4 4 -10 4 -5 0 -10
-5 -10 -11z"/>
<path d="M4600 59 c0 -5 8 -9 18 -10 10 0 12 -3 5 -6 -21 -8 -15 -20 17 -32
29 -10 30 -9 27 17 -3 21 -11 28 -35 33 -18 4 -32 3 -32 -2z"/>
<path d="M3729 53 c-1 -5 -1 -12 0 -16 1 -5 -8 -11 -19 -14 -41 -11 -18 -23
45 -23 41 0 65 4 65 11 0 7 -12 9 -35 5 -29 -6 -34 -4 -29 9 3 8 10 15 15 15
5 0 9 5 9 10 0 11 -49 14 -51 3z"/>
</g>
</svg>
