<svg id="Ebene_1" data-name="Ebene 1" xmlns="http://www.w3.org/2000/svg" viewBox="0 0 283.465 113.862">
  <defs>
    <style>
      .cls-1 {
        fill: #fff;
      }
    </style>
  </defs>
  <title>geomar_logo_kurz_white</title>
  <g>
    <g>
      <path class="cls-1" d="M485.546,211.056c-20.9-6.456-39.559-1.212-41.055,5.15-2.378,10.157,12.961,16.786,21.8,19.731,1.323-3.89,2.662-7.417,3.969-10.519-6.347-2-16.8-6.126-15.307-11.291,1.386-4.866,13.117-4.819,21.291-3.449,0.645,0.143,1.307.269,1.952,0.426,28.409,6.8,43.968,34.582,37.149,62.864-6.835,28.3-33.464,45.716-61.873,38.913-1.228-.3-3.921-1.087-4.062-1.134a0.776,0.776,0,0,0,.126.646,41.751,41.751,0,0,0,8.361,2.725c28.929,6.85,58.393-11.213,65.338-39.968A53.569,53.569,0,0,0,485.546,211.056Z" transform="translate(-241.27 -208.105)"/>
      <path class="cls-1" d="M459.735,258.535c0.961-3.936,1.984-7.748,3.023-11.369-21.149-7.732-26.235-17.182-26.881-23.165-0.457-4.362,3.07-8.016,3.07-8.016-4.929,3.291-9.228,6.645-9.748,9.638C426.146,243.512,447.625,254.126,459.735,258.535Z" transform="translate(-241.27 -208.105)"/>
      <path class="cls-1" d="M457.011,270.394c-22.062-8.378-31.18-19.212-34.408-29.559a16.493,16.493,0,0,1,.3-10.283,52.761,52.761,0,0,0-5.858,11.685c-0.362,1.166-.314,5.812.851,9.149,5.481,15.89,23.559,25.936,37.086,30.866C455.53,278.661,456.208,274.33,457.011,270.394Z" transform="translate(-241.27 -208.105)"/>
    </g>
    <g>
      <path class="cls-1" d="M300.812,306.251a15.694,15.694,0,1,1,0,.047v-0.047Zm7.023-.236c0,5.087,3.621,9.543,8.976,9.543,5.591,0,8.866-4.913,8.866-9.512,0-4.677-3.275-9.559-8.9-9.559-5.512,0-8.944,4.6-8.944,9.481v0.047Z" transform="translate(-241.27 -208.105)"/>
      <path class="cls-1" d="M255.774,304.582H268.4v15.59a40.58,40.58,0,0,1-10.015,1.26c-5.118,0-8.945-1.087-11.953-3.338-3.37-2.6-5.165-6.645-5.165-11.56,0-9.638,6.961-15.968,17.5-15.968a24.387,24.387,0,0,1,9.559,1.89v6.456a17.163,17.163,0,0,0-8.9-2.314c-6.661,0-10.818,3.779-10.818,9.858,0,5.795,3.574,9.181,9.605,9.181a21.368,21.368,0,0,0,3.48-.252V310.5h-5.921v-5.921Z" transform="translate(-241.27 -208.105)"/>
      <path class="cls-1" d="M276.293,291.165h19.165v5.905H283.3v5.748h11.827v5.905H283.3v6.394H295.71v5.905H276.293V291.165Z" transform="translate(-241.27 -208.105)"/>
      <path class="cls-1" d="M412.65,291.275l0.678-.048c2.677-.205,5.874-0.3,8.142-0.3,4.487,0,7.26.6,9.433,2.157a8.755,8.755,0,0,1,3.685,7.417c0,3.858-1.716,6.457-5.448,8.19,0.851,1.243,1.559,2.251,2.772,3.857,2.3,3.087,4.866,6.283,6.5,8.142l0.378,0.41s-7.339,1.527-9.984-1.843a86.488,86.488,0,0,1-6.126-8.851l-0.346-.551h-1.087c-0.283,0-.756,0-1.291-0.031h-0.583v11.2H412.65V291.275Zm6.725,13.228a8.4,8.4,0,0,0,1.874.157c4.583,0,6.378-1.134,6.378-4.031,0-2.818-1.843-4.173-5.543-4.173-0.583,0-1.26,0-1.953-.063l-0.756.063V304.5Z" transform="translate(-241.27 -208.105)"/>
      <path class="cls-1" d="M374.447,319.526c-0.221-4.44-.331-6.709-0.551-10.142-0.126-1.811-.252-3.7-0.426-5.669-0.126-2.016-.2-3.1-0.33-4.362l-0.63-7.181-0.126-1.134h-7.591c-2.031,0-2.566.472-3.543,3.149-1.323,3.606-3.339,11.433-4.174,14.613l-1.338,5.544L354.4,308.8c-0.851-3.181-2.866-11.007-4.2-14.613-0.961-2.678-1.512-3.149-3.528-3.149h-7.59l-0.126,1.134-0.63,7.181c-0.126,1.26-.205,2.347-0.331,4.362-0.173,1.969-.3,3.858-0.425,5.669-0.2,3.433-.331,5.7-0.536,10.142l-0.094,1.48h6.5l0.047-.771c0.126-3.622.252-6.63,0.551-12.031,0.284-5.748.362-8.378,0.362-10.535,0-.835.032-1.166,0.032-1.387,0.3,0.93.6,1.8,0.85,2.725,0.252,0.9.583,1.984,0.678,2.268l1.26,4.031c0.5,1.639,1.039,3.434,2.016,6.678,0.835,2.8,1.638,5.622,2.268,7.795l0.331,1.229h7.795l0.33-1.229c0.647-2.173,1.434-4.992,2.269-7.795,0.976-3.244,1.512-5.039,2.016-6.678l1.26-4.031c0.094-.283.425-1.37,0.661-2.268,0.268-.929.567-1.795,0.866-2.725,0,0.221.016,0.552,0.016,1.387,0,2.157.079,4.787,0.394,10.535,0.283,5.4.409,8.409,0.535,12.031l0.048,0.771h6.5Z" transform="translate(-241.27 -208.105)"/>
      <path class="cls-1" d="M408.492,319.763c-1.339-3.874-3.275-8.725-5.606-14.425-1.055-2.441-1.983-4.661-2.9-6.725-0.3-.709-0.6-1.417-1.716-3.89l-0.6-1.355-0.581-1.291-0.473-1.008h-6.362l-0.473,1.008-0.582,1.291-0.583,1.355c-1.134,2.473-1.433,3.181-1.717,3.89-0.929,2.064-1.857,4.283-2.9,6.725-2.346,5.7-4.283,10.551-5.622,14.425l-0.456,1.26h7.212l0.205-.756c0.661-1.969,1.339-3.858,2.221-6.409l0.252-.771H399.06l0.252,0.771c0.882,2.551,1.559,4.441,2.236,6.409l0.2,0.756h7.2ZM393.44,307.511h-3.528l0.426-1.213s2.5-6.913,3.1-9.024h0c0.6,2.11,3.118,9.024,3.118,9.024l0.409,1.213H393.44Z" transform="translate(-241.27 -208.105)"/>
    </g>
  </g>
</svg>
