<svg version="1.1" id="Layer_1" xmlns="http://www.w3.org/2000/svg" xmlns:xlink="http://www.w3.org/1999/xlink" x="0px" y="0px"
	 width="100%" viewBox="0 0 1042 533" enable-background="new 0 0 1042 533" xml:space="preserve">
<path fill="#000000" opacity="1.000000" stroke="none" 
	d="
M780.000000,534.000000 
	C520.000000,534.000000 260.500000,534.000000 1.000000,534.000000 
	C1.000000,356.333344 1.000000,178.666672 1.000000,1.000000 
	C348.333344,1.000000 695.666687,1.000000 1043.000000,1.000000 
	C1043.000000,178.666672 1043.000000,356.333344 1043.000000,534.000000 
	C955.500000,534.000000 868.000000,534.000000 780.000000,534.000000 
M735.793152,416.224854 
	C736.862244,416.427704 737.931274,416.630554 739.469421,416.992645 
	C739.469421,416.992645 739.951294,417.107422 740.343506,417.792084 
	C749.753052,419.527496 759.102966,422.225189 768.583679,422.812469 
	C793.955017,424.384003 818.918701,422.082092 842.916870,412.632629 
	C861.551758,405.295013 878.532349,395.289185 893.388428,381.954956 
	C905.271362,371.289276 915.630188,359.255188 924.086853,345.537079 
	C938.550842,322.074249 946.290833,296.535858 947.795959,269.238037 
	C948.380676,258.633301 946.992310,247.870102 945.932983,237.235825 
	C944.311646,220.960327 939.536621,205.357864 931.776489,191.120880 
	C924.822083,178.362183 916.753845,166.009567 907.684204,154.672012 
	C901.087585,146.425873 892.058777,140.125427 883.855225,132.345932 
	C882.917297,131.858719 881.979309,131.371521 880.809448,130.293060 
	C879.911072,129.847855 879.012634,129.402649 877.831116,128.317200 
	C867.759583,122.858421 858.096985,116.354004 847.509949,112.213432 
	C835.107239,107.362762 821.899719,104.569778 808.732910,100.259521 
	C807.821838,100.228569 806.910706,100.197609 805.269104,100.020050 
	C804.526489,99.974777 803.783936,99.929512 802.688171,99.228004 
	C801.458679,99.207558 800.229126,99.187103 798.269104,99.020050 
	C797.526489,98.974785 796.783936,98.929512 795.618164,98.183365 
	C793.411987,98.177795 791.205811,98.172226 788.269104,98.020050 
	C787.526489,97.974785 786.783936,97.929512 785.570007,97.155151 
	C777.713379,97.158989 769.856750,97.162819 761.292236,97.027779 
	C760.195068,97.407410 759.097839,97.787033 757.152527,98.020210 
	C755.435059,98.069031 753.717590,98.117844 751.292236,98.027779 
	C750.195068,98.407410 749.097839,98.787033 747.338989,99.022636 
	C746.892700,99.070648 746.446411,99.118652 745.197998,99.036438 
	C742.395142,99.691933 739.535400,100.167870 736.799866,101.035629 
	C727.497131,103.986656 717.934265,106.468178 710.273865,114.208046 
	C709.476196,115.459244 708.678589,116.710442 707.242188,118.286247 
	C706.883667,119.857491 706.525146,121.428734 706.019836,123.731453 
	C705.973450,124.474892 705.927063,125.218330 705.256958,126.269859 
	C705.226807,127.179893 705.196716,128.089920 705.028137,129.661560 
	C705.407654,130.441162 705.787170,131.220779 706.020813,132.527313 
	C706.069580,133.067093 706.118408,133.606873 706.057190,134.941055 
	C706.427002,135.627487 706.796814,136.313919 707.024719,137.610886 
	C707.313416,138.089630 707.602112,138.568375 707.995667,139.774216 
	C710.292053,143.196747 712.588501,146.619278 714.994934,150.734436 
	C715.649475,151.194794 716.303955,151.655167 717.218872,152.738266 
	C720.270142,155.177185 723.218750,157.759491 726.390503,160.030121 
	C739.963379,169.746887 755.147949,176.098938 771.245239,181.722031 
	C771.774597,181.147919 772.303955,180.573807 773.168457,179.310913 
	C773.653564,178.158081 774.193054,177.024765 774.614990,175.849243 
	C777.461365,167.919281 780.282776,159.980362 783.769592,151.691254 
	C783.082275,150.465866 782.691345,148.578979 781.661621,148.117554 
	C771.515686,143.571136 761.263611,139.261475 750.743408,134.265091 
	C748.261719,132.442169 745.530762,130.875992 743.342468,128.750961 
	C734.857849,120.511665 737.001160,110.416672 748.361206,107.170822 
	C755.943542,105.004349 763.926392,103.483772 771.781006,103.225349 
	C780.751465,102.930214 789.904907,103.633728 798.755127,105.181862 
	C818.195312,108.582458 836.445923,115.625328 853.203125,126.091415 
	C868.172607,135.441010 881.636536,146.689316 891.706726,161.347153 
	C898.293152,170.934006 904.042419,181.095978 910.024719,191.610870 
	C910.313416,192.089615 910.602112,192.568375 910.992859,193.705948 
	C911.384094,194.470749 911.775391,195.235565 912.024719,196.610855 
	C912.313416,197.089600 912.602112,197.568359 912.992920,198.705963 
	C913.384155,199.470779 913.775391,200.235596 914.031921,201.769760 
	C916.077087,208.894669 918.122314,216.019592 920.057129,223.939468 
	C920.426941,224.626450 920.796753,225.313431 921.020813,226.527313 
	C921.069580,227.067093 921.118347,227.606873 921.057190,228.941071 
	C921.427002,229.627518 921.796814,230.313965 922.022522,231.661514 
	C922.070557,232.107422 922.118591,232.553345 922.020569,233.786713 
	C922.402588,235.524597 922.784607,237.262497 923.022522,239.661514 
	C923.070557,240.107422 923.118591,240.553345 923.019714,241.926376 
	C922.973389,252.271530 922.927063,262.616669 922.256958,273.269867 
	C922.226868,274.179932 922.196716,275.089966 922.020142,276.817352 
	C921.973694,278.198853 921.927246,279.580322 921.256958,281.269867 
	C921.226807,282.179932 921.196716,283.089966 921.018433,284.645966 
	C920.972534,285.084595 920.926636,285.523193 920.256958,286.269867 
	C920.226807,287.179932 920.196716,288.089966 920.018433,289.645966 
	C919.972534,290.084595 919.926636,290.523193 919.256958,291.269867 
	C919.226807,292.179932 919.196716,293.089966 919.018433,294.645966 
	C918.972473,295.084625 918.926514,295.523315 918.210754,296.335815 
	C917.806824,297.892090 917.429382,299.455811 916.994995,301.003571 
	C911.311279,321.257751 902.354919,339.876495 889.048706,357.024231 
	C889.067505,357.234924 889.086304,357.445587 888.578552,357.972443 
	C886.347595,360.634155 884.116577,363.295837 881.271729,366.209808 
	C877.166992,370.435089 873.062195,374.660400 868.336182,379.150482 
	C866.852661,380.419525 865.369080,381.688568 863.422668,383.083649 
	C863.125488,383.268585 862.970459,383.535919 862.354004,384.136749 
	C861.080383,385.145691 859.806702,386.154633 858.316162,387.314636 
	C858.316162,387.314636 858.162109,387.529388 857.616943,387.885925 
	C845.609497,394.175812 833.905884,401.172058 821.490479,406.513672 
	C812.832397,410.238770 803.198608,411.696228 793.338989,414.022614 
	C792.892700,414.070618 792.446411,414.118652 791.292236,414.027771 
	C790.195068,414.407410 789.097839,414.787018 787.134705,415.020142 
	C785.089844,415.068970 783.044983,415.117798 780.292236,415.027802 
	C779.195068,415.407410 778.097839,415.787018 776.089233,416.020050 
	C772.392700,416.068909 768.696167,416.117767 764.269104,416.019989 
	C763.526489,415.974762 762.783936,415.929504 761.605896,415.175964 
	C759.070496,415.172852 756.535034,415.169708 753.269104,415.019958 
	C752.526489,414.974731 751.783936,414.929504 750.688171,414.228027 
	C749.458679,414.207550 748.229126,414.187103 746.181946,414.018768 
	C737.930359,412.055817 729.678772,410.092834 721.340149,408.109192 
	C721.829956,411.598999 726.734436,414.220520 735.793152,416.224854 
M386.508698,385.994659 
	C385.485352,402.877838 384.461975,419.761017 383.432098,436.752014 
	C390.902130,436.752014 397.309601,436.752014 403.811646,436.752014 
	C404.549683,422.869965 405.295044,409.230988 405.992279,395.589508 
	C406.396667,387.677124 406.716492,379.760437 407.104492,371.847137 
	C407.126190,371.403931 407.423035,370.974243 407.591827,370.538269 
	C407.961487,370.656006 408.331146,370.773773 408.700775,370.891510 
	C415.292389,392.896667 421.884003,414.901794 428.461639,436.860260 
	C436.642273,436.860260 444.614258,436.860260 452.312195,436.860260 
	C459.059296,414.403534 465.745209,392.150452 472.431152,369.897369 
	C472.838074,369.962219 473.244995,370.027069 473.651917,370.091919 
	C474.714935,392.305084 475.777924,414.518219 476.842072,436.755005 
	C483.878632,436.755005 490.290466,436.755005 497.680115,436.755005 
	C495.538513,406.376465 493.418854,376.309570 491.282104,346.000000 
	C482.218353,346.000000 473.903229,346.223755 465.609222,345.902100 
	C461.679565,345.749695 459.905975,348.239716 458.205627,350.715393 
	C456.987610,352.488861 456.594727,354.866211 455.990356,357.018158 
	C451.305267,373.700317 446.675568,390.398041 441.961823,407.072052 
	C441.635925,408.224762 440.771240,409.225189 439.886536,410.768341 
	C436.830566,399.398407 434.166412,388.964447 431.202240,378.616394 
	C428.645294,369.689789 425.835968,360.831940 422.956818,352.002869 
	C421.758820,348.329193 419.270111,345.962555 415.038513,345.986572 
	C406.887878,346.032806 398.736755,346.000031 389.631561,346.000031 
	C388.736450,359.141693 387.850159,372.153931 386.508698,385.994659 
M648.545105,264.047729 
	C654.241821,269.738007 659.494751,275.976257 665.718262,281.016022 
	C684.500122,296.225555 705.661865,307.504852 727.842712,316.907806 
	C731.266174,318.359100 734.941650,319.215973 738.591553,320.376678 
	C740.545593,308.506165 742.104492,297.546814 744.295776,286.715424 
	C744.882568,283.814697 744.086365,283.736725 741.910461,282.869965 
	C722.598816,275.177063 703.810791,266.405792 687.001709,253.975601 
	C668.161255,240.043228 652.043945,223.782257 643.705078,201.229004 
	C640.907654,193.662918 638.327454,186.016693 639.959839,177.673782 
	C640.750610,173.632553 641.145081,169.513809 641.850647,164.493378 
	C640.541199,166.150131 639.596924,167.047943 639.008484,168.137863 
	C635.399109,174.823227 631.995728,181.622314 628.285217,188.250015 
	C622.638733,198.335907 621.567200,209.169128 624.184570,220.047958 
	C628.164429,236.589737 636.135376,251.208359 648.545105,264.047729 
M311.437256,438.051544 
	C319.910156,440.894806 328.477142,440.224060 336.813812,437.914429 
	C362.603455,430.769562 376.763702,405.206757 370.013428,379.065704 
	C365.030396,359.768433 353.025604,347.756836 333.186920,343.972321 
	C312.454071,340.017242 294.078583,347.404724 282.938812,364.517090 
	C275.940216,375.267975 274.063110,386.912964 275.819824,399.757843 
	C278.263000,417.622589 293.960114,434.737823 311.437256,438.051544 
M178.999924,352.887207 
	C178.080963,351.604034 177.425262,349.589691 176.202759,349.149536 
	C162.347305,344.160950 148.112839,342.697205 133.685410,346.054718 
	C118.755257,349.529236 107.120750,357.476776 100.570030,371.878815 
	C96.712013,380.360809 96.804436,389.317047 96.984932,398.328888 
	C97.185692,408.351990 101.089447,416.939667 107.729156,424.107544 
	C116.857834,433.962341 129.056213,437.171295 141.902283,437.913483 
	C152.893127,438.548492 163.794510,437.566315 174.657684,435.234253 
	C178.535873,434.401733 179.073730,433.115570 179.046494,429.858490 
	C178.935043,416.529510 179.007996,403.199066 178.986954,389.869171 
	C178.984970,388.609955 178.800461,387.351013 178.720016,386.335693 
	C165.589706,386.335693 152.850891,386.335693 140.338303,386.335693 
	C140.338303,392.751221 140.338303,398.827606 140.338303,405.281738 
	C146.420776,405.281738 152.164978,405.281738 157.678879,405.281738 
	C157.678879,410.104248 157.678879,414.521057 157.678879,419.035065 
	C155.859238,419.035065 154.234497,418.652924 152.883316,419.099121 
	C145.842438,421.424255 139.219666,419.190674 133.152328,416.448456 
	C122.171127,411.485443 116.518631,397.572784 120.553917,385.185455 
	C122.281219,379.883057 125.222672,374.176208 129.315903,370.606384 
	C138.646759,362.468628 150.510895,362.922791 161.920990,364.593689 
	C167.632919,365.430145 173.070816,368.137878 179.000000,370.122223 
	C179.000000,364.450684 179.000000,359.133301 178.999924,352.887207 
M644.407715,346.000000 
	C633.318481,346.000000 622.229309,346.000000 611.322083,346.000000 
	C611.322083,376.712708 611.322083,406.783508 611.322083,436.674133 
	C618.389954,436.674133 625.131958,436.674133 632.233337,436.674133 
	C632.233337,425.256500 632.233337,414.161865 632.233337,403.089874 
	C639.191162,402.914001 639.176453,402.924072 642.962585,408.449066 
	C648.068970,415.900635 653.357361,423.233154 658.275024,430.806732 
	C662.670837,437.576721 679.460510,440.386078 689.722046,436.252136 
	C680.334290,424.191956 670.911133,412.086273 661.420898,399.894379 
	C675.884094,391.680420 680.391602,381.974579 674.988037,363.244049 
	C674.427246,361.300110 673.424438,359.356659 672.183167,357.757202 
	C665.402588,349.019745 656.040283,345.984650 644.407715,346.000000 
M686.391296,122.944916 
	C682.038452,126.050644 677.612122,129.059158 673.347839,132.281952 
	C663.878540,139.438446 658.472778,148.851639 659.079651,160.891647 
	C659.692627,173.052551 662.542419,185.004974 670.322144,194.453568 
	C678.079712,203.875198 686.718750,212.906250 696.295776,220.420395 
	C712.915588,233.460114 731.988953,242.365356 752.648010,249.503754 
	C755.834961,237.670486 758.919006,226.219406 762.066956,214.531158 
	C760.869507,214.011490 759.683105,213.555023 758.547791,212.995056 
	C745.062988,206.344376 731.230164,200.299850 718.202759,192.848007 
	C704.092041,184.776535 692.378784,173.721390 685.381348,158.652115 
	C682.332947,152.087311 679.348938,145.056381 682.094421,137.627151 
	C684.213318,131.893311 687.188171,126.475769 689.843628,120.786568 
	C689.037903,121.270645 688.008484,121.889153 686.391296,122.944916 
M598.986816,435.035614 
	C598.859680,433.408691 599.103821,431.640747 598.547668,430.176819 
	C593.435608,416.720337 588.429382,403.214905 582.909058,389.924469 
	C576.777588,375.162872 570.140320,360.611328 563.779968,346.097717 
	C556.703430,346.097717 550.057678,346.097717 542.671509,346.097717 
	C530.315491,376.099762 517.886719,406.278595 505.234436,436.999939 
	C512.908264,436.999939 519.401428,437.174408 525.871155,436.862946 
	C527.282471,436.795013 529.322876,435.272980 529.853027,433.936493 
	C532.152100,428.140900 534.072632,422.189453 535.973511,416.244415 
	C536.705688,413.954651 537.704224,412.816132 540.382568,412.928162 
	C546.032227,413.164429 551.698975,412.960907 557.358032,413.013031 
	C561.498352,413.051147 566.380981,411.917603 569.535706,413.733429 
	C571.944275,415.119781 572.150452,420.313904 573.363098,423.804932 
	C573.887024,425.313141 574.522339,426.783112 575.031494,428.295868 
	C577.623230,435.997070 577.614624,436.018494 586.192627,435.992035 
	C590.348816,435.979218 594.504700,435.882202 598.986816,435.035614 
M248.482864,365.000000 
	C252.253494,365.000000 256.024109,365.000000 259.716187,365.000000 
	C259.716187,358.362183 259.716187,352.290924 259.716187,346.281555 
	C240.363098,346.281555 221.295090,346.281555 202.275497,346.281555 
	C202.275497,376.629089 202.275497,406.694275 202.275497,436.726929 
	C221.953400,436.726929 241.354614,436.726929 260.724640,436.726929 
	C260.724640,430.378418 260.724640,424.307587 260.724640,417.846008 
	C248.379684,417.846008 236.304977,417.846008 224.277847,417.846008 
	C224.277847,411.706299 224.277847,405.968384 224.277847,399.840698 
	C235.958923,399.840698 247.367264,399.840698 258.719482,399.840698 
	C258.719482,393.368866 258.719482,387.297791 258.719482,380.835693 
	C247.035355,380.835693 235.626724,380.835693 224.283310,380.835693 
	C224.283310,375.361206 224.283310,370.289032 224.283310,365.000000 
	C232.206024,365.000000 239.847534,365.000000 248.482864,365.000000 
z"/>
<path fill="#5EC5ED" opacity="1.000000" stroke="none" 
	d="
M889.105103,357.656219 
	C889.086304,357.445587 889.067505,357.234924 889.561890,356.911377 
	C891.503967,355.984650 893.382385,355.510803 894.293884,354.305664 
	C906.904175,337.632904 914.874939,318.763458 920.124207,298.664886 
	C920.317993,297.922791 919.322083,296.869995 918.880554,295.961975 
	C918.926514,295.523315 918.972473,295.084625 919.415649,294.281250 
	C920.417297,293.311188 921.021667,292.705841 921.626038,292.100494 
	C921.044250,291.720917 920.462524,291.341370 919.880737,290.961823 
	C919.926636,290.523193 919.972534,290.084595 920.415649,289.281250 
	C921.417297,288.311188 922.021667,287.705841 922.626038,287.100464 
	C922.044312,286.720917 921.462524,286.341370 920.880737,285.961792 
	C920.926636,285.523193 920.972534,285.084595 921.415649,284.281250 
	C922.417297,283.311157 923.021667,282.705811 923.626038,282.100464 
	C923.044250,281.720917 922.462524,281.341370 921.880737,280.961823 
	C921.927246,279.580322 921.973694,278.198853 922.416504,276.366943 
	C923.417297,275.311188 924.021667,274.705841 924.626038,274.100525 
	C924.044250,273.720978 923.462463,273.341400 922.880737,272.961853 
	C922.927063,262.616669 922.973389,252.271530 923.373840,241.419052 
	C924.022034,240.593521 924.316101,240.275299 924.610107,239.957123 
	C924.128967,239.638229 923.647766,239.319321 923.166626,239.000397 
	C922.784607,237.262497 922.402588,235.524597 922.374268,233.349243 
	C923.022095,232.593552 923.316101,232.275330 923.610168,231.957123 
	C923.128967,231.638214 922.647827,231.319305 922.166626,231.000397 
	C921.796814,230.313965 921.427002,229.627518 921.434875,228.466888 
	C921.597290,227.328598 921.381958,226.664490 921.166626,226.000397 
	C920.796753,225.313431 920.426941,224.626450 920.481384,223.423615 
	C919.715454,217.476547 918.687866,212.001831 917.251221,206.636642 
	C916.713013,204.626694 915.222778,202.871658 914.166626,201.000397 
	C913.775391,200.235596 913.384155,199.470779 913.182007,198.224396 
	C912.969543,197.162018 912.568054,196.581192 912.166626,196.000366 
	C911.775391,195.235565 911.384094,194.470749 911.181946,193.224380 
	C910.969604,192.161987 910.568115,191.581177 910.166626,191.000366 
	C904.042419,181.095978 898.293152,170.934006 891.706726,161.347153 
	C881.636536,146.689316 868.172607,135.441010 853.203125,126.091415 
	C836.445923,115.625328 818.195312,108.582458 798.755127,105.181862 
	C789.904907,103.633728 780.751465,102.930214 771.781006,103.225349 
	C763.926392,103.483772 755.943542,105.004349 748.361206,107.170822 
	C737.001160,110.416672 734.857849,120.511665 743.342468,128.750961 
	C745.530762,130.875992 748.261719,132.442169 750.913940,134.934174 
	C756.233765,138.718475 761.233398,142.125046 766.574341,144.866959 
	C771.909180,147.605743 777.585632,149.679199 783.112305,152.044342 
	C780.282776,159.980362 777.461365,167.919281 774.614990,175.849243 
	C774.193054,177.024765 773.653564,178.158081 772.709595,179.686279 
	C771.819214,180.412125 771.387756,180.762573 770.956299,181.113037 
	C755.147949,176.098938 739.963379,169.746887 726.390503,160.030121 
	C723.218750,157.759491 720.270142,155.177185 717.058716,152.087036 
	C716.227356,150.971130 715.556152,150.506470 714.884888,150.041809 
	C712.588501,146.619278 710.292053,143.196747 708.183350,139.258514 
	C707.969604,138.162003 707.568115,137.581177 707.166626,137.000351 
	C706.796814,136.313919 706.427002,135.627487 706.434875,134.466888 
	C706.597290,133.328598 706.381958,132.664490 706.166626,132.000397 
	C705.787170,131.220779 705.407654,130.441162 705.420532,129.289032 
	C706.417358,128.311172 707.021667,127.705856 707.626038,127.100525 
	C707.044250,126.720940 706.462524,126.341362 705.880737,125.961777 
	C705.927063,125.218330 705.973450,124.474892 706.430054,123.320297 
	C710.133728,120.396194 710.312439,119.546501 707.880981,117.961639 
	C708.678589,116.710442 709.476196,115.459244 710.992676,114.094635 
	C712.538208,113.968498 713.460144,114.193939 714.177368,113.907227 
	C724.320374,109.852745 734.448669,105.760475 744.528625,101.552765 
	C745.229065,101.260391 745.519165,99.984924 746.000122,99.166656 
	C746.446411,99.118652 746.892700,99.070648 747.730957,99.418121 
	C750.734985,102.371185 751.372253,100.279999 752.000122,98.166656 
	C753.717590,98.117844 755.435059,98.069031 757.637756,98.416916 
	C760.734985,101.371185 761.372253,99.279999 762.000122,97.166656 
	C769.856750,97.162819 777.713379,97.158989 785.834412,97.855804 
	C787.065735,98.426529 788.032715,98.296593 788.999634,98.166656 
	C791.205811,98.172226 793.411987,98.177795 795.858521,98.869904 
	C797.065735,99.426521 798.032715,99.296585 798.999634,99.166656 
	C800.229126,99.187103 801.458679,99.207558 802.893494,99.892227 
	C804.065735,100.426529 805.032715,100.296593 805.999634,100.166656 
	C806.910706,100.197609 807.821838,100.228569 808.940918,100.953705 
	C816.577881,103.985832 823.927368,106.627480 831.453003,108.595726 
	C845.251343,112.204529 857.783020,118.555740 870.126770,125.440193 
	C872.656311,126.850998 875.445007,127.797119 878.114258,128.957428 
	C879.012634,129.402649 879.911072,129.847855 880.964966,130.950592 
	C882.118469,132.057907 883.116394,132.507690 884.114319,132.957489 
	C892.058777,140.125427 901.087585,146.425873 907.684204,154.672012 
	C916.753845,166.009567 924.822083,178.362183 931.776489,191.120880 
	C939.536621,205.357864 944.311646,220.960327 945.932983,237.235825 
	C946.992310,247.870102 948.380676,258.633301 947.795959,269.238037 
	C946.290833,296.535858 938.550842,322.074249 924.086853,345.537079 
	C915.630188,359.255188 905.271362,371.289276 893.388428,381.954956 
	C878.532349,395.289185 861.551758,405.295013 842.916870,412.632629 
	C818.918701,422.082092 793.955017,424.384003 768.583679,422.812469 
	C759.102966,422.225189 749.753052,419.527496 740.306458,417.130493 
	C741.557251,416.164764 742.873047,415.944763 744.124146,415.529907 
	C745.123474,415.198486 746.044128,414.629944 746.999634,414.166626 
	C748.229126,414.187103 749.458679,414.207550 750.893433,414.892212 
	C752.065735,415.426483 753.032654,415.296539 753.999634,415.166595 
	C756.535034,415.169708 759.070496,415.172852 761.852295,415.866180 
	C763.065735,416.426453 764.032654,416.296539 764.999634,416.166626 
	C768.696167,416.117767 772.392700,416.068909 776.606140,416.416809 
	C779.735107,419.371246 780.372253,417.279816 781.000122,415.166626 
	C783.044983,415.117798 785.089844,415.068970 787.628906,415.416870 
	C790.735107,418.371246 791.372253,416.279816 792.000122,414.166626 
	C792.446411,414.118652 792.892700,414.070618 793.747681,414.443420 
	C794.504517,415.187714 794.907593,415.835388 795.192749,415.787048 
	C801.512390,414.716217 807.957703,414.062683 814.100830,412.338348 
	C829.613525,407.984070 843.973328,401.072144 856.784119,391.197815 
	C857.663513,390.520020 857.721863,388.777008 858.162109,387.529388 
	C858.162109,387.529388 858.316162,387.314636 858.810669,387.472015 
	C862.942688,388.742523 863.118347,386.478302 862.957458,383.885681 
	C862.970459,383.535919 863.125488,383.268585 864.078369,383.032562 
	C867.909241,383.438599 869.522217,382.284912 868.957458,378.885681 
	C873.062195,374.660400 877.166992,370.435089 881.962830,366.094879 
	C887.683411,366.267609 887.108459,360.331726 890.556641,358.863403 
	C890.072815,358.461029 889.588928,358.058624 889.105103,357.656219 
z"/>
<path fill="#FFFFFF" opacity="1.000000" stroke="none" 
	d="
M386.736267,385.580383 
	C387.850159,372.153931 388.736450,359.141693 389.631561,346.000031 
	C398.736755,346.000031 406.887878,346.032806 415.038513,345.986572 
	C419.270111,345.962555 421.758820,348.329193 422.956818,352.002869 
	C425.835968,360.831940 428.645294,369.689789 431.202240,378.616394 
	C434.166412,388.964447 436.830566,399.398407 439.886536,410.768341 
	C440.771240,409.225189 441.635925,408.224762 441.961823,407.072052 
	C446.675568,390.398041 451.305267,373.700317 455.990356,357.018158 
	C456.594727,354.866211 456.987610,352.488861 458.205627,350.715393 
	C459.905975,348.239716 461.679565,345.749695 465.609222,345.902100 
	C473.903229,346.223755 482.218353,346.000000 491.282104,346.000000 
	C493.418854,376.309570 495.538513,406.376465 497.680115,436.755005 
	C490.290466,436.755005 483.878632,436.755005 476.842072,436.755005 
	C475.777924,414.518219 474.714935,392.305084 473.651917,370.091919 
	C473.244995,370.027069 472.838074,369.962219 472.431152,369.897369 
	C465.745209,392.150452 459.059296,414.403534 452.312195,436.860260 
	C444.614258,436.860260 436.642273,436.860260 428.461639,436.860260 
	C421.884003,414.901794 415.292389,392.896667 408.700775,370.891510 
	C408.331146,370.773773 407.961487,370.656006 407.591827,370.538269 
	C407.423035,370.974243 407.126190,371.403931 407.104492,371.847137 
	C406.716492,379.760437 406.396667,387.677124 405.992279,395.589508 
	C405.295044,409.230988 404.549683,422.869965 403.811646,436.752014 
	C397.309601,436.752014 390.902130,436.752014 383.432098,436.752014 
	C384.461975,419.761017 385.485352,402.877838 386.736267,385.580383 
z"/>
<path fill="#5EC5ED" opacity="1.000000" stroke="none" 
	d="
M648.286621,263.796387 
	C636.135376,251.208359 628.164429,236.589737 624.184570,220.047958 
	C621.567200,209.169128 622.638733,198.335907 628.285217,188.250015 
	C631.995728,181.622314 635.399109,174.823227 639.008484,168.137863 
	C639.596924,167.047943 640.541199,166.150131 641.850647,164.493378 
	C641.145081,169.513809 640.750610,173.632553 639.959839,177.673782 
	C638.327454,186.016693 640.907654,193.662918 643.705078,201.229004 
	C652.043945,223.782257 668.161255,240.043228 687.001709,253.975601 
	C703.810791,266.405792 722.598816,275.177063 741.910461,282.869965 
	C744.086365,283.736725 744.882568,283.814697 744.295776,286.715424 
	C742.104492,297.546814 740.545593,308.506165 738.591553,320.376678 
	C734.941650,319.215973 731.266174,318.359100 727.842712,316.907806 
	C705.661865,307.504852 684.500122,296.225555 665.718262,281.016022 
	C659.494751,275.976257 654.241821,269.738007 648.286621,263.796387 
z"/>
<path fill="#FFFFFF" opacity="1.000000" stroke="none" 
	d="
M311.006775,438.027771 
	C293.960114,434.737823 278.263000,417.622589 275.819824,399.757843 
	C274.063110,386.912964 275.940216,375.267975 282.938812,364.517090 
	C294.078583,347.404724 312.454071,340.017242 333.186920,343.972321 
	C353.025604,347.756836 365.030396,359.768433 370.013428,379.065704 
	C376.763702,405.206757 362.603455,430.769562 336.813812,437.914429 
	C328.477142,440.224060 319.910156,440.894806 311.006775,438.027771 
M300.949677,377.512177 
	C297.206116,383.947205 296.179932,390.684509 297.952423,398.020477 
	C301.457977,412.529327 314.584747,421.993591 330.656708,418.279907 
	C342.006775,415.657349 352.184326,398.582520 349.210663,386.159180 
	C346.665955,375.527771 339.987885,365.168945 325.673645,363.204254 
	C317.444000,362.074677 307.133698,365.919434 300.949677,377.512177 
z"/>
<path fill="#FFFFFF" opacity="1.000000" stroke="none" 
	d="
M178.999969,353.351562 
	C179.000000,359.133301 179.000000,364.450684 179.000000,370.122223 
	C173.070816,368.137878 167.632919,365.430145 161.920990,364.593689 
	C150.510895,362.922791 138.646759,362.468628 129.315903,370.606384 
	C125.222672,374.176208 122.281219,379.883057 120.553917,385.185455 
	C116.518631,397.572784 122.171127,411.485443 133.152328,416.448456 
	C139.219666,419.190674 145.842438,421.424255 152.883316,419.099121 
	C154.234497,418.652924 155.859238,419.035065 157.678879,419.035065 
	C157.678879,414.521057 157.678879,410.104248 157.678879,405.281738 
	C152.164978,405.281738 146.420776,405.281738 140.338303,405.281738 
	C140.338303,398.827606 140.338303,392.751221 140.338303,386.335693 
	C152.850891,386.335693 165.589706,386.335693 178.720016,386.335693 
	C178.800461,387.351013 178.984970,388.609955 178.986954,389.869171 
	C179.007996,403.199066 178.935043,416.529510 179.046494,429.858490 
	C179.073730,433.115570 178.535873,434.401733 174.657684,435.234253 
	C163.794510,437.566315 152.893127,438.548492 141.902283,437.913483 
	C129.056213,437.171295 116.857834,433.962341 107.729156,424.107544 
	C101.089447,416.939667 97.185692,408.351990 96.984932,398.328888 
	C96.804436,389.317047 96.712013,380.360809 100.570030,371.878815 
	C107.120750,357.476776 118.755257,349.529236 133.685410,346.054718 
	C148.112839,342.697205 162.347305,344.160950 176.202759,349.149536 
	C177.425262,349.589691 178.080963,351.604034 178.999969,353.351562 
z"/>
<path fill="#FFFFFF" opacity="1.000000" stroke="none" 
	d="
M644.892639,346.000000 
	C656.040283,345.984650 665.402588,349.019745 672.183167,357.757202 
	C673.424438,359.356659 674.427246,361.300110 674.988037,363.244049 
	C680.391602,381.974579 675.884094,391.680420 661.420898,399.894379 
	C670.911133,412.086273 680.334290,424.191956 689.722046,436.252136 
	C679.460510,440.386078 662.670837,437.576721 658.275024,430.806732 
	C653.357361,423.233154 648.068970,415.900635 642.962585,408.449066 
	C639.176453,402.924072 639.191162,402.914001 632.233337,403.089874 
	C632.233337,414.161865 632.233337,425.256500 632.233337,436.674133 
	C625.131958,436.674133 618.389954,436.674133 611.322083,436.674133 
	C611.322083,406.783508 611.322083,376.712708 611.322083,346.000000 
	C622.229309,346.000000 633.318481,346.000000 644.892639,346.000000 
M632.000000,375.474609 
	C632.000000,377.800934 632.169800,380.142670 631.960144,382.449921 
	C631.645752,385.910217 632.945251,387.436096 636.480164,387.014648 
	C640.035889,386.590698 643.769409,386.817780 647.126038,385.786438 
	C650.926880,384.618652 654.687012,382.747192 655.025696,377.721069 
	C655.542236,370.055389 654.697815,366.990417 649.245728,365.244659 
	C643.864929,363.521698 638.037964,363.192322 632.000000,362.183624 
	C632.000000,367.219086 632.000000,370.854431 632.000000,375.474609 
z"/>
<path fill="#5EC5ED" opacity="1.000000" stroke="none" 
	d="
M686.685181,122.726288 
	C688.008484,121.889153 689.037903,121.270645 689.843628,120.786568 
	C687.188171,126.475769 684.213318,131.893311 682.094421,137.627151 
	C679.348938,145.056381 682.332947,152.087311 685.381348,158.652115 
	C692.378784,173.721390 704.092041,184.776535 718.202759,192.848007 
	C731.230164,200.299850 745.062988,206.344376 758.547791,212.995056 
	C759.683105,213.555023 760.869507,214.011490 762.066956,214.531158 
	C758.919006,226.219406 755.834961,237.670486 752.648010,249.503754 
	C731.988953,242.365356 712.915588,233.460114 696.295776,220.420395 
	C686.718750,212.906250 678.079712,203.875198 670.322144,194.453568 
	C662.542419,185.004974 659.692627,173.052551 659.079651,160.891647 
	C658.472778,148.851639 663.878540,139.438446 673.347839,132.281952 
	C677.612122,129.059158 682.038452,126.050644 686.685181,122.726288 
z"/>
<path fill="#FFFFFF" opacity="1.000000" stroke="none" 
	d="
M598.823792,435.429443 
	C594.504700,435.882202 590.348816,435.979218 586.192627,435.992035 
	C577.614624,436.018494 577.623230,435.997070 575.031494,428.295868 
	C574.522339,426.783112 573.887024,425.313141 573.363098,423.804932 
	C572.150452,420.313904 571.944275,415.119781 569.535706,413.733429 
	C566.380981,411.917603 561.498352,413.051147 557.358032,413.013031 
	C551.698975,412.960907 546.032227,413.164429 540.382568,412.928162 
	C537.704224,412.816132 536.705688,413.954651 535.973511,416.244415 
	C534.072632,422.189453 532.152100,428.140900 529.853027,433.936493 
	C529.322876,435.272980 527.282471,436.795013 525.871155,436.862946 
	C519.401428,437.174408 512.908264,436.999939 505.234436,436.999939 
	C517.886719,406.278595 530.315491,376.099762 542.671509,346.097717 
	C550.057678,346.097717 556.703430,346.097717 563.779968,346.097717 
	C570.140320,360.611328 576.777588,375.162872 582.909058,389.924469 
	C588.429382,403.214905 593.435608,416.720337 598.547668,430.176819 
	C599.103821,431.640747 598.859680,433.408691 598.823792,435.429443 
M554.998596,371.431824 
	C554.000000,371.426392 552.229370,371.142120 552.115845,371.456329 
	C549.333984,379.160004 546.727966,386.927185 544.105652,394.638489 
	C550.568420,394.638489 556.720032,394.638489 563.121826,394.638489 
	C560.328796,386.911285 557.681335,379.586761 554.998596,371.431824 
z"/>
<path fill="#FFFFFF" opacity="1.000000" stroke="none" 
	d="
M247.985962,365.000000 
	C239.847534,365.000000 232.206024,365.000000 224.283310,365.000000 
	C224.283310,370.289032 224.283310,375.361206 224.283310,380.835693 
	C235.626724,380.835693 247.035355,380.835693 258.719482,380.835693 
	C258.719482,387.297791 258.719482,393.368866 258.719482,399.840698 
	C247.367264,399.840698 235.958923,399.840698 224.277847,399.840698 
	C224.277847,405.968384 224.277847,411.706299 224.277847,417.846008 
	C236.304977,417.846008 248.379684,417.846008 260.724640,417.846008 
	C260.724640,424.307587 260.724640,430.378418 260.724640,436.726929 
	C241.354614,436.726929 221.953400,436.726929 202.275497,436.726929 
	C202.275497,406.694275 202.275497,376.629089 202.275497,346.281555 
	C221.295090,346.281555 240.363098,346.281555 259.716187,346.281555 
	C259.716187,352.290924 259.716187,358.362183 259.716187,365.000000 
	C256.024109,365.000000 252.253494,365.000000 247.985962,365.000000 
z"/>
<path fill="#5EC5ED" opacity="1.000000" stroke="none" 
	d="
M857.889526,387.707642 
	C857.721863,388.777008 857.663513,390.520020 856.784119,391.197815 
	C843.973328,401.072144 829.613525,407.984070 814.100830,412.338348 
	C807.957703,414.062683 801.512390,414.716217 795.192749,415.787048 
	C794.907593,415.835388 794.504517,415.187714 794.078491,414.515442 
	C803.198608,411.696228 812.832397,410.238770 821.490479,406.513672 
	C833.905884,401.172058 845.609497,394.175812 857.889526,387.707642 
z"/>
<path fill="#5EC5ED" opacity="1.000000" stroke="none" 
	d="
M918.545654,296.148895 
	C919.322083,296.869995 920.317993,297.922791 920.124207,298.664886 
	C914.874939,318.763458 906.904175,337.632904 894.293884,354.305664 
	C893.382385,355.510803 891.503967,355.984650 889.673218,356.614288 
	C902.354919,339.876495 911.311279,321.257751 916.994995,301.003571 
	C917.429382,299.455811 917.806824,297.892090 918.545654,296.148895 
z"/>
<path fill="#5EC5ED" opacity="1.000000" stroke="none" 
	d="
M877.972656,128.637314 
	C875.445007,127.797119 872.656311,126.850998 870.126770,125.440193 
	C857.783020,118.555740 845.251343,112.204529 831.453003,108.595726 
	C823.927368,106.627480 816.577881,103.985832 809.095093,101.266068 
	C821.899719,104.569778 835.107239,107.362762 847.509949,112.213432 
	C858.096985,116.354004 867.759583,122.858421 877.972656,128.637314 
z"/>
<path fill="#5EC5ED" opacity="1.000000" stroke="none" 
	d="
M745.599060,99.101540 
	C745.519165,99.984924 745.229065,101.260391 744.528625,101.552765 
	C734.448669,105.760475 724.320374,109.852745 714.177368,113.907227 
	C713.460144,114.193939 712.538208,113.968498 711.298462,113.969383 
	C717.934265,106.468178 727.497131,103.986656 736.799866,101.035629 
	C739.535400,100.167870 742.395142,99.691933 745.599060,99.101540 
z"/>
<path fill="#5EC5ED" opacity="1.000000" stroke="none" 
	d="
M746.590820,414.092712 
	C746.044128,414.629944 745.123474,415.198486 744.124146,415.529907 
	C742.873047,415.944763 741.557251,416.164764 740.110352,416.788147 
	C739.951294,417.107422 739.469421,416.992645 739.224243,416.548584 
	C738.026611,412.627838 736.573853,415.067932 735.266296,415.790558 
	C726.734436,414.220520 721.829956,411.598999 721.340149,408.109192 
	C729.678772,410.092834 737.930359,412.055817 746.590820,414.092712 
z"/>
<path fill="#5EC5ED" opacity="1.000000" stroke="none" 
	d="
M783.440918,151.867798 
	C777.585632,149.679199 771.909180,147.605743 766.574341,144.866959 
	C761.233398,142.125046 756.233765,138.718475 751.063110,135.243958 
	C761.263611,139.261475 771.515686,143.571136 781.661621,148.117554 
	C782.691345,148.578979 783.082275,150.465866 783.440918,151.867798 
z"/>
<path fill="#5EC5ED" opacity="1.000000" stroke="none" 
	d="
M914.099243,201.385071 
	C915.222778,202.871658 916.713013,204.626694 917.251221,206.636642 
	C918.687866,212.001831 919.715454,217.476547 920.536560,223.026123 
	C918.122314,216.019592 916.077087,208.894669 914.099243,201.385071 
z"/>
<path fill="#5EC5ED" opacity="1.000000" stroke="none" 
	d="
M888.841797,357.814331 
	C889.588928,358.058624 890.072815,358.461029 890.556641,358.863403 
	C887.108459,360.331726 887.683411,366.267609 882.269775,365.968750 
	C884.116577,363.295837 886.347595,360.634155 888.841797,357.814331 
z"/>
<path fill="#5EC5ED" opacity="1.000000" stroke="none" 
	d="
M707.561523,118.123932 
	C710.312439,119.546501 710.133728,120.396194 706.503479,122.954559 
	C706.525146,121.428734 706.883667,119.857491 707.561523,118.123932 
z"/>
<path fill="#5EC5ED" opacity="1.000000" stroke="none" 
	d="
M868.646851,379.018066 
	C869.522217,382.284912 867.909241,383.438599 864.309814,382.969543 
	C865.369080,381.688568 866.852661,380.419525 868.646851,379.018066 
z"/>
<path fill="#5EC5ED" opacity="1.000000" stroke="none" 
	d="
M862.655762,384.011230 
	C863.118347,386.478302 862.942688,388.742523 858.919067,387.396484 
	C859.806702,386.154633 861.080383,385.145691 862.655762,384.011230 
z"/>
<path fill="#5EC5ED" opacity="1.000000" stroke="none" 
	d="
M791.646179,414.097198 
	C791.372253,416.279816 790.735107,418.371246 788.061890,415.490112 
	C789.097839,414.787018 790.195068,414.407410 791.646179,414.097198 
z"/>
<path fill="#5EC5ED" opacity="1.000000" stroke="none" 
	d="
M780.646179,415.097229 
	C780.372253,417.279816 779.735107,419.371246 777.061890,416.490112 
	C778.097839,415.787018 779.195068,415.407410 780.646179,415.097229 
z"/>
<path fill="#5EC5ED" opacity="1.000000" stroke="none" 
	d="
M751.646179,98.097214 
	C751.372253,100.279999 750.734985,102.371185 748.061829,99.490135 
	C749.097839,98.787033 750.195068,98.407410 751.646179,98.097214 
z"/>
<path fill="#5EC5ED" opacity="1.000000" stroke="none" 
	d="
M761.646179,97.097214 
	C761.372253,99.279999 760.734985,101.371185 758.061829,98.490135 
	C759.097839,97.787033 760.195068,97.407410 761.646179,97.097214 
z"/>
<path fill="#5EC5ED" opacity="1.000000" stroke="none" 
	d="
M922.568848,273.115845 
	C923.462463,273.341400 924.044250,273.720978 924.626038,274.100525 
	C924.021667,274.705841 923.417297,275.311188 922.489746,275.958282 
	C922.196716,275.089966 922.226868,274.179932 922.568848,273.115845 
z"/>
<path fill="#5EC5ED" opacity="1.000000" stroke="none" 
	d="
M735.529724,416.007690 
	C736.573853,415.067932 738.026611,412.627838 738.989746,416.468933 
	C737.931274,416.630554 736.862244,416.427704 735.529724,416.007690 
z"/>
<path fill="#5EC5ED" opacity="1.000000" stroke="none" 
	d="
M920.568848,286.115845 
	C921.462524,286.341370 922.044312,286.720917 922.626038,287.100464 
	C922.021667,287.705841 921.417297,288.311188 920.489746,288.958282 
	C920.196716,288.089966 920.226807,287.179932 920.568848,286.115845 
z"/>
<path fill="#5EC5ED" opacity="1.000000" stroke="none" 
	d="
M921.568848,281.115845 
	C922.462524,281.341370 923.044250,281.720917 923.626038,282.100464 
	C923.021667,282.705811 922.417297,283.311157 921.489746,283.958252 
	C921.196716,283.089966 921.226807,282.179932 921.568848,281.115845 
z"/>
<path fill="#5EC5ED" opacity="1.000000" stroke="none" 
	d="
M919.568848,291.115845 
	C920.462524,291.341370 921.044250,291.720917 921.626038,292.100494 
	C921.021667,292.705841 920.417297,293.311188 919.489746,293.958282 
	C919.196716,293.089966 919.226807,292.179932 919.568848,291.115845 
z"/>
<path fill="#5EC5ED" opacity="1.000000" stroke="none" 
	d="
M705.568848,126.115814 
	C706.462524,126.341362 707.044250,126.720940 707.626038,127.100525 
	C707.021667,127.705856 706.417358,128.311172 705.489807,128.958221 
	C705.196716,128.089920 705.226807,127.179893 705.568848,126.115814 
z"/>
<path fill="#5EC5ED" opacity="1.000000" stroke="none" 
	d="
M764.634399,416.093292 
	C764.032654,416.296539 763.065735,416.426453 762.070068,416.220337 
	C762.783936,415.929504 763.526489,415.974762 764.634399,416.093292 
z"/>
<path fill="#5EC5ED" opacity="1.000000" stroke="none" 
	d="
M788.634399,98.093353 
	C788.032715,98.296593 787.065735,98.426529 786.070068,98.220352 
	C786.783936,97.929512 787.526489,97.974785 788.634399,98.093353 
z"/>
<path fill="#5EC5ED" opacity="1.000000" stroke="none" 
	d="
M753.634399,415.093262 
	C753.032654,415.296539 752.065735,415.426483 751.070068,415.220337 
	C751.783936,414.929504 752.526489,414.974731 753.634399,415.093262 
z"/>
<path fill="#5EC5ED" opacity="1.000000" stroke="none" 
	d="
M798.634399,99.093353 
	C798.032715,99.296585 797.065735,99.426521 796.070068,99.220345 
	C796.783936,98.929512 797.526489,98.974785 798.634399,99.093353 
z"/>
<path fill="#5EC5ED" opacity="1.000000" stroke="none" 
	d="
M805.634399,100.093353 
	C805.032715,100.296593 804.065735,100.426529 803.070068,100.220352 
	C803.783936,99.929512 804.526489,99.974777 805.634399,100.093353 
z"/>
<path fill="#5EC5ED" opacity="1.000000" stroke="none" 
	d="
M883.984741,132.651703 
	C883.116394,132.507690 882.118469,132.057907 881.080933,131.246216 
	C881.979309,131.371521 882.917297,131.858719 883.984741,132.651703 
z"/>
<path fill="#5EC5ED" opacity="1.000000" stroke="none" 
	d="
M714.939941,150.388123 
	C715.556152,150.506470 716.227356,150.971130 716.928589,151.775665 
	C716.303955,151.655167 715.649475,151.194794 714.939941,150.388123 
z"/>
<path fill="#5EC5ED" opacity="1.000000" stroke="none" 
	d="
M707.095703,137.305618 
	C707.568115,137.581177 707.969604,138.162003 708.130920,138.894974 
	C707.602112,138.568375 707.313416,138.089630 707.095703,137.305618 
z"/>
<path fill="#5EC5ED" opacity="1.000000" stroke="none" 
	d="
M706.093750,132.263855 
	C706.381958,132.664490 706.597290,133.328598 706.489868,134.069672 
	C706.118408,133.606873 706.069580,133.067093 706.093750,132.263855 
z"/>
<path fill="#5EC5ED" opacity="1.000000" stroke="none" 
	d="
M771.100769,181.417542 
	C771.387756,180.762573 771.819214,180.412125 772.542053,180.030670 
	C772.303955,180.573807 771.774597,181.147919 771.100769,181.417542 
z"/>
<path fill="#5EC5ED" opacity="1.000000" stroke="none" 
	d="
M910.095703,191.305603 
	C910.568115,191.581177 910.969604,192.161987 911.130920,192.894958 
	C910.602112,192.568375 910.313416,192.089615 910.095703,191.305603 
z"/>
<path fill="#5EC5ED" opacity="1.000000" stroke="none" 
	d="
M912.095703,196.305618 
	C912.568054,196.581192 912.969543,197.162018 913.130920,197.894974 
	C912.602112,197.568359 912.313416,197.089600 912.095703,196.305618 
z"/>
<path fill="#5EC5ED" opacity="1.000000" stroke="none" 
	d="
M921.093750,226.263855 
	C921.381958,226.664490 921.597290,227.328598 921.489868,228.069672 
	C921.118347,227.606873 921.069580,227.067093 921.093750,226.263855 
z"/>
<path fill="#5EC5ED" opacity="1.000000" stroke="none" 
	d="
M922.094604,231.330963 
	C922.647827,231.319305 923.128967,231.638214 923.610168,231.957123 
	C923.316101,232.275330 923.022095,232.593552 922.447327,232.955505 
	C922.118591,232.553345 922.070557,232.107422 922.094604,231.330963 
z"/>
<path fill="#5EC5ED" opacity="1.000000" stroke="none" 
	d="
M923.094604,239.330963 
	C923.647766,239.319321 924.128967,239.638229 924.610107,239.957123 
	C924.316101,240.275299 924.022034,240.593521 923.447266,240.955490 
	C923.118591,240.553345 923.070557,240.107422 923.094604,239.330963 
z"/>
<path fill="#000000" opacity="1.000000" stroke="none" 
	d="
M300.986267,377.128357 
	C307.133698,365.919434 317.444000,362.074677 325.673645,363.204254 
	C339.987885,365.168945 346.665955,375.527771 349.210663,386.159180 
	C352.184326,398.582520 342.006775,415.657349 330.656708,418.279907 
	C314.584747,421.993591 301.457977,412.529327 297.952423,398.020477 
	C296.179932,390.684509 297.206116,383.947205 300.986267,377.128357 
z"/>
<path fill="#000000" opacity="1.000000" stroke="none" 
	d="
M632.000000,374.982178 
	C632.000000,370.854431 632.000000,367.219086 632.000000,362.183624 
	C638.037964,363.192322 643.864929,363.521698 649.245728,365.244659 
	C654.697815,366.990417 655.542236,370.055389 655.025696,377.721069 
	C654.687012,382.747192 650.926880,384.618652 647.126038,385.786438 
	C643.769409,386.817780 640.035889,386.590698 636.480164,387.014648 
	C632.945251,387.436096 631.645752,385.910217 631.960144,382.449921 
	C632.169800,380.142670 632.000000,377.800934 632.000000,374.982178 
z"/>
<path fill="#000000" opacity="1.000000" stroke="none" 
	d="
M555.016235,371.847015 
	C557.681335,379.586761 560.328796,386.911285 563.121826,394.638489 
	C556.720032,394.638489 550.568420,394.638489 544.105652,394.638489 
	C546.727966,386.927185 549.333984,379.160004 552.115845,371.456329 
	C552.229370,371.142120 554.000000,371.426392 555.016235,371.847015 
z"/>
</svg>