<svg height="500" id="svg13153" version="1.1" viewBox="-2.24115303 -2.24115303 90.18740706 79.18740706" width="500" xmlns="http://www.w3.org/2000/svg" xmlns:svg="http://www.w3.org/2000/svg">
<defs id="defs13155"></defs>
<path d="M 23.10125,28 C 22.98,36.80875 25.8225,44.895 31.4975,52.55625 l -7.155,6.82 C 14.71125,49.7675 8.57875,39.61625 5.94625,28.6425 c 2.35625,1.26375 5.05,1.98 7.91125,1.98 3.4075,0 6.59625,-0.875 9.24375,-2.6225 z m 28.3175,40.10625 C 48.735,70.225 45.87,72.3175 42.825,74.39125 39.76625,72.3075 36.9125,70.21875 34.23625,68.10625 31.4875,65.93875 28.93,63.745 26.5625,61.5225 l 6.865,-6.56125 c 2.6575,3.19375 5.69,6.13625 9.4,9.135 C 58.95125,51.16875 65.21875,36.3325 61.76,19.51 l -32.04375,0 c 0.63375,-1.76625 0.90625,-3.67 0.90625,-5.65375 0,-2.83875 -0.705,-5.5125 -1.95,-7.855 l 51.71375,0 c 3.80625,23.86625 -5.85,43.86375 -28.9675,62.105" id="path13029" style="fill:#00417f;fill-opacity:1;fill-rule:nonzero;stroke:none"></path>
<path d="M 0,13.85625 C 0,6.2025 6.20375,0 13.85625,0 c 7.6525,0 13.85625,6.2025 13.85625,13.85625 0,7.6525 -6.20375,13.85625 -13.85625,13.85625 C 6.20375,27.7125 0,21.50875 0,13.85625" id="path13031" style="fill:#aebfd9;fill-opacity:1;fill-rule:nonzero;stroke:none"></path>

</svg>
