<?xml version="1.0" encoding="UTF-8" standalone="no"?>
<svg
   xmlns:dc="http://purl.org/dc/elements/1.1/"
   xmlns:cc="http://creativecommons.org/ns#"
   xmlns:rdf="http://www.w3.org/1999/02/22-rdf-syntax-ns#"
   xmlns:svg="http://www.w3.org/2000/svg"
   xmlns="http://www.w3.org/2000/svg"
   xmlns:sodipodi="http://sodipodi.sourceforge.net/DTD/sodipodi-0.dtd"
   xmlns:inkscape="http://www.inkscape.org/namespaces/inkscape"
   width="100"
   height="100"
   id="svg3847"
   version="1.1"
   inkscape:version="1.0.1 (3bc2e813f5, 2020-09-07)"
   sodipodi:docname="Malayalam letter Ma.svg">
  <defs
     id="defs3849">
    <clipPath
       clipPathUnits="userSpaceOnUse"
       id="clipEmfPath1">
      <path
         d="M -80.591194,-15.488563 H 190.38629 V 46.755196 H -80.591194 Z"
         id="path1150" />
    </clipPath>
    <pattern
       id="EMFhbasepattern"
       patternUnits="userSpaceOnUse"
       width="6"
       height="6"
       x="0"
       y="0" />
    <clipPath
       clipPathUnits="userSpaceOnUse"
       id="clipEmfPath1-0">
      <path
         d="M -79.102238,-15.85616 H 145.77668 V 82.423461 H -79.102238 Z"
         id="path14" />
    </clipPath>
    <clipPath
       clipPathUnits="userSpaceOnUse"
       id="clipEmfPath2">
      <path
         d="M 0.03571207,0.03571207 H 66.603013 V 66.531589 H 0.03571207 Z"
         id="path17" />
    </clipPath>
    <pattern
       id="EMFhbasepattern-7"
       patternUnits="userSpaceOnUse"
       width="6"
       height="6"
       x="0"
       y="0" />
    <clipPath
       clipPathUnits="userSpaceOnUse"
       id="clipEmfPath1-3">
      <path
         d="M -79.102238,-15.85616 H 145.77668 V 82.423461 H -79.102238 Z"
         id="path49" />
    </clipPath>
    <clipPath
       clipPathUnits="userSpaceOnUse"
       id="clipEmfPath2-9">
      <path
         d="M 0.03571207,0.03571207 H 66.603013 V 66.531589 H 0.03571207 Z"
         id="path52" />
    </clipPath>
    <pattern
       id="EMFhbasepattern-2"
       patternUnits="userSpaceOnUse"
       width="6"
       height="6"
       x="0"
       y="0" />
  </defs>
  <sodipodi:namedview
     id="base"
     pagecolor="#ffffff"
     bordercolor="#666666"
     borderopacity="1.0"
     inkscape:pageopacity="0.0"
     inkscape:pageshadow="2"
     inkscape:zoom="3.726"
     inkscape:cx="81.684593"
     inkscape:cy="39.635198"
     inkscape:document-units="px"
     inkscape:current-layer="layer1"
     showgrid="false"
     inkscape:window-width="1024"
     inkscape:window-height="745"
     inkscape:window-x="-8"
     inkscape:window-y="-8"
     inkscape:window-maximized="1"
     inkscape:document-rotation="0"
     showguides="true" />
  <metadata
     id="metadata3852">
    <rdf:RDF>
      <cc:Work
         rdf:about="">
        <dc:format>image/svg+xml</dc:format>
        <dc:type
           rdf:resource="http://purl.org/dc/dcmitype/StillImage" />
        <dc:title></dc:title>
      </cc:Work>
    </rdf:RDF>
  </metadata>
  <g
     inkscape:label="Layer 1"
     inkscape:groupmode="layer"
     id="layer1"
     transform="translate(0,-952.4)">
    <text
       xml:space="preserve"
       style="font-style:normal;font-variant:normal;font-weight:normal;font-stretch:normal;font-size:85.3334px;font-family:Mandali;-inkscape-font-specification:Mandali;font-feature-settings:gsub;fill:#000000;stroke-width:0;stroke-linecap:round;stroke-miterlimit:4;stroke-dasharray:none"
       x="12.614063"
       y="1017.8858"
       id="text1148"><tspan
         sodipodi:role="line"
         id="tspan1146"
         x="12.614063"
         y="1017.8858" /></text>
    <g
       aria-label="മ"
       id="text202"
       style="font-size:85.3333px;font-family:Gayathri;-inkscape-font-specification:'Gayathri, Normal';fill:#000000;stroke-linecap:round;stroke-miterlimit:0"
       transform="translate(9.968039,-2.16718)">
      <path
         d="M 57.76112,1025.4005 H 22.302801 q -3.374998,0 -3.374998,-1.9167 v -21.9166 q 0,-8.54167 6.166664,-13.16667 q 6.208331,-4.66667 14.958327,-4.66667 q 9.08333,0 15.083327,4.83333 q 5.999998,4.79167 5.999998,13.00001 v 21.9166 q 0,1.9167 -3.374999,1.9167 z m -3.416665,-3.7917 v -20.0416 q 0,-11.91667 -11.624995,-13.83334 q 5.583331,3.5 5.583331,11.08333 q 0.08333,13.87501 -12.958328,22.79161 z m -28.624988,-0.042 q 6.45833,-2.7084 11.166662,-9.125 q 4.708331,-6.4583 4.708331,-13.62501 q 0,-3.125 -1.499999,-6.41666 q -1.458333,-3.33334 -5.166665,-3.33334 q -2.583332,0 -4.916664,2.04167 q -4.291665,3.875 -4.291665,10.45834 z"
         id="path204" />
    </g>
  </g>
</svg>
