<?xml version="1.0" encoding="UTF-8"?>
<!DOCTYPE svg PUBLIC "-//W3C//DTD SVG 1.1//EN" "http://www.w3.org/Graphics/SVG/1.1/DTD/svg11.dtd">
<!-- Creator: CorelDRAW 2019 (64-Bit) -->
<svg xmlns="http://www.w3.org/2000/svg" xml:space="preserve" width="151.937mm" height="151.945mm" version="1.1" style="shape-rendering:geometricPrecision; text-rendering:geometricPrecision; image-rendering:optimizeQuality; fill-rule:evenodd; clip-rule:evenodd"
viewBox="0 0 160.1847 160.1929"
 xmlns:xlink="http://www.w3.org/1999/xlink"
 xmlns:xodm="http://www.corel.com/coreldraw/odm/2003">
 <defs>
  <style type="text/css">
   <![CDATA[
    .fil0 {fill:#2C659C}
   ]]>
  </style>
 </defs>
 <g id="Layer_x0020_1">
  <metadata id="CorelCorpID_0Corel-Layer"/>
  <g id="_811491328">
   <path class="fil0" d="M78.9027 134.8589c-30.195,-0.6521 -54.2243,-25.7509 -53.5711,-55.9509 0.3154,-14.6306 6.3099,-28.2625 16.8788,-38.3805 10.5688,-10.1218 24.4454,-15.5162 39.0672,-15.2007 30.2001,0.6533 54.2346,25.7571 53.5762,55.956 -0.3155,14.6268 -6.3047,28.2586 -16.8787,38.3804 -10.569,10.1131 -24.4419,15.5162 -39.0724,15.1957zm-39.8125 -97.5869l0 0c-11.4371,10.9552 -17.9258,25.7 -18.2635,41.5403 -0.7143,32.6792 25.3049,59.8462 57.9841,60.5603 15.8318,0.3379 30.8485,-5.5037 42.2844,-16.449 11.4409,-10.9589 17.9258,-25.7123 18.2724,-41.544 0.7005,-32.6842 -25.3052,-59.8511 -57.9895,-60.5567 -15.8302,-0.3416 -30.8471,5.4987 -42.288,16.449z"/>
   <path class="fil0" d="M78.4395 156.5457c-42.1563,-0.9117 -75.7126,-35.9522 -74.7923,-78.1147 0.4335,-20.415 8.8029,-39.4401 23.5613,-53.5625 14.7486,-14.1312 34.1201,-21.6683 54.5437,-21.226 20.4148,0.4434 39.4411,8.8126 53.5724,23.5661 14.1273,14.7485 21.6631,34.1201 21.2211,54.54 -0.9155,42.1576 -35.9524,75.7126 -78.1062,74.7972zm-53.7425 -134.2981l0 0c-15.4503,14.797 -24.2095,34.7213 -24.678,56.1088 -0.9551,44.1561 34.1823,80.8572 78.3371,81.8174 44.1512,0.9552 80.8574,-34.1909 81.8088,-78.347 0.4684,-21.3875 -7.4275,-41.6745 -22.2197,-57.1298 -14.8068,-15.4503 -34.7311,-24.2132 -56.1187,-24.6779 -0.6682,-0.0149 -1.3351,-0.0211 -2.0009,-0.0186 -20.6446,0.0533 -40.1566,7.9071 -55.1286,22.247z"/>
   <path class="fil0" d="M96.03 127.7181c-29.7343,5.3373 -53.5625,-6.2353 -57.9223,-20.5068 -2.8182,-9.2374 1.2795,-11.2396 1.9316,-17.9084 -5.1484,2.7476 -6.0987,-4.3994 -1.5551,-5.0093 4.8106,-0.6433 6.9631,4.4082 4.6267,11.1304 -3.3648,9.6571 2.5463,14.1448 4.2021,13.6454 0.0745,-0.5043 0.6793,-1.7401 0.9737,-2.2829 -4.0493,-5.1707 -2.3624,-12.7126 4.5434,-13.325 2.8135,-0.2546 2.5327,1.7961 0.579,2.0805 -5.2939,0.7676 -5.0392,6.6736 -2.8358,7.4275 0.3863,0 0.8371,-0.1006 1.2272,-0.4955 -0.0918,-1.1999 0.7402,-2.9177 2.1166,-2.5761 3.0492,0.7664 1.8792,4.6529 -0.2113,4.9683 -0.7887,2.3935 -2.2916,5.7273 -1.9623,7.4625 0.3153,1.7265 1.529,2.0643 2.5239,1.0694 0.7365,-0.7365 1.0904,-2.5189 1.5638,-4.4516 -0.4993,-2.1873 0.5613,-3.843 2.4108,-3.0543 1.2831,0.5427 1.4283,2.5152 0.1614,4.0442 -0.1614,1.8705 -0.9812,4.0007 -0.801,5.4378 0.1788,1.4371 2.1425,1.3415 2.8567,0.5565 0.7056,-0.775 1.4409,-5.8589 1.7265,-6.9755 -1.1042,-0.9775 -0.6707,-3.9748 1.595,-4.1548 2.6642,-0.2099 2.0456,3.4096 1.2916,4.325 0.7502,2.827 -0.4682,6.0166 0.0745,7.2786 0.5441,1.2669 2.6172,1.5638 3.5537,0.5341 0.9341,-1.0384 -0.2409,-3.2158 0.2807,-5.7658 -0.8979,-2.1998 0.1492,-3.9609 1.4545,-4.0666 2.9711,-0.2359 2.1253,2.437 1.5774,4.3162 0.154,1.9241 0.4832,4.2244 1.149,5.9943 0.4285,1.1526 2.3352,1.4147 2.9661,-0.0658 0.3987,-0.9204 -0.508,-3.5449 -0.7228,-5.3981 -1.2844,-2.9934 -0.1925,-3.8083 0.9551,-3.9039 1.0954,-0.0931 2.581,0.5255 2.3834,3.4828 0.6,1.9935 1.113,4.3994 1.8533,5.9732 0.3378,1.2484 1.8668,1.375 2.3537,0.0783 0.4733,-1.2968 -0.4211,-2.8258 -1.38,-4.9162 -2.1302,-2.073 -0.1938,-3.6629 1.021,-3.7647 1.2136,-0.0956 3.1066,0.2323 2.7115,3.4579 0.6571,1.9538 1.0917,3.7374 1.5204,4.7808 0.5042,1.1962 2.1736,1.3365 2.8841,0.5565 0.7141,-0.7937 -0.6534,-2.1736 -1.0087,-3.869 -1.6073,-1.5601 -1.3141,-3.694 0.518,-3.8431 0.9365,-0.0707 2.7737,0.0311 2.5986,2.7736 0.5377,1.1825 0.5464,2.6903 1.3402,3.9834 0.9551,1.5687 2.4407,0.9763 3.0318,-0.4348 0.5827,-1.4234 -3.0977,-5.5385 -0.2186,-5.7707 2.8791,-0.2235 3.3823,3.5499 4.3163,4.4567 0.9327,0.8942 1.6469,0.298 2.0892,-0.1926 0.7538,-0.8321 -1.2521,-3.094 0.149,-3.7374 2.827,-1.293 2.7785,1.9315 4.7809,1.9675 8.7554,0.1354 15.6478,-14.2367 14.6219,-18.2946 -2.9264,-1.7352 -1.8967,-6.0775 0.5526,-6.121 6.0341,-0.1093 5.1834,8.4176 0.6087,18.3157 -6.003,12.9749 -20.7602,19.6572 -27.0576,20.7875z"/>
   <path class="fil0" d="M103.8278 57.0248c-0.9738,0.9378 -4.0455,1.139 -5.618,0.2187 -1.3018,-0.7664 -1.6036,-6.48 -0.9465,-8.0227 0.6571,-1.5476 7.3743,-1.6085 7.9047,-0.5477 0.5341,1.0595 -0.3677,7.4177 -1.3402,8.3517zm-12.0333 -7.0637l0 0c0.2149,0.8148 1.0171,4.4168 1.201,6.5855 0.1054,0.8062 -0.184,1.7887 -0.6707,1.9725 -1.2048,0.4596 -3.212,0.3503 -4.3026,-0.0658 -1.1962,-0.4608 -0.3862,-5.228 -4.7809,-6.0825 0.6051,-0.4249 0.9205,-0.872 1.0435,-1.9191 0.0781,-0.6831 0.9241,-1.4234 1.9588,-1.5513 2.0109,-0.2236 3.2678,-0.2844 3.9436,-0.2584 0.6745,0.0224 1.3924,0.4869 1.6074,1.3191zm-8.501 23.6791l0 0c1.7713,0.0348 1.503,-15.967 -0.8718,-16.0204 -2.6508,-0.0522 -1.6956,15.9632 0.8718,16.0204zm25.489 -14.2231l0 0c-0.1007,-0.0397 -0.1218,-0.2062 -0.1007,-0.2807 1.3502,-5.1919 2.3363,-7.4749 2.8271,-12.6507 0.118,-1.2396 -0.7677,-2.2382 -1.5912,-2.4445 -3.1946,-0.7975 -4.6702,-0.7713 -5.9112,-0.8682 -0.1315,-0.0088 -0.4248,-0.0658 -0.5166,-0.2447 -0.3677,-0.749 -0.9154,-3.0145 -0.9205,-4.1585 1.8669,-3.9609 -1.468,-5.3323 -4.6143,-5.2801 -2.063,-0.1007 -4.1709,0.8495 -4.4118,2.4009 -0.2844,2.9971 3.0318,4.0927 4.2155,4.1983 0.1963,0.4248 0.6833,2.5189 0.7615,3.3475 0.0136,0.1092 -0.0918,0.2285 -0.2359,0.2285 -5.3149,0.1007 -12.1949,1.0297 -15.6877,1.3005 -0.4993,0.0745 -0.7403,-0.2149 -0.8445,-0.503 -0.6484,-1.7923 -3.4184,-10.2447 1.7785,-10.0783 3.0804,0.0956 5.6567,-2.4282 2.734,-4.3472 -0.754,-0.4907 -4.6926,-0.9775 -6.8228,-0.6049 -1.765,0.3068 -2.6197,2.2967 -2.3961,4.0405 0.3454,2.7339 -6.4588,3.0096 -8.4697,2.1998 -1.4383,-0.5826 -3.2032,-2.2917 -3.8168,-3.396 -1.3105,-2.335 -3.571,-0.5527 -3.1598,0.6969 2.822,8.5008 11.8135,7.1507 14.1672,7.2687 0.118,0.0086 0.319,0.1627 0.3279,0.2236 0.5738,3.0717 2.4058,6.3098 2.3972,7.5059 -1.1181,1.2446 -0.6398,3.9052 0.9376,4.3647 -1.9326,1.8494 -2.7959,8.3169 -2.4841,13.6841 0.39,6.8401 3.1548,13.4741 7.501,12.7599 5.5298,-0.903 3.3524,-13.6927 4.6926,-14.7846 0.6757,-0.5427 2.4717,-0.39 3.1288,-0.3105 0.1491,0.0174 0.2285,0.1887 0.2199,0.272 -0.4348,5.0168 -1.6259,13.0655 -1.9191,15.213 -0.303,2.1862 -0.4782,3.3176 0.626,5.3373 1.2185,2.2258 3.4393,9.3069 0.8409,16.7954 -0.0782,0.2931 -0.3243,0.39 -0.4074,0.4074 -2.3488,0.5341 -3.5972,1.2706 -4.4516,1.8494 -0.9243,0.626 -1.9191,1.9365 -1.2396,2.7252 0.9812,0.898 7.2948,0.5515 9.241,-2.3662 0.0484,-0.0745 0.1839,-0.3465 0.2063,-0.4074 0.6744,-1.8805 1.5152,-3.2555 2.1513,-4.4566 2.9089,-5.5558 3.3338,-12.3872 -0.6572,-15.4676 -1.1178,-0.8632 -2.2654,-1.6868 -1.175,-3.8517 2.1116,-4.1796 2.3352,-8.7455 2.6036,-12.606 0.1043,-1.5514 2.6853,-2.4407 3.6629,-0.9725 2.4182,5.7259 0.5167,10.6645 0.4818,12.6978 -0.0484,2.0419 0.718,2.9848 0.9813,4.2069 1.6482,7.4662 0.8197,13.5127 -0.6706,21.221 -0.0088,0.1665 -0.1405,0.2808 -0.2894,0.3279 -1.7526,0.5876 -2.8258,0.9552 -3.925,1.7228 -1.1092,0.7751 -1.5427,1.77 -1.0608,2.3091 1.4682,1.6556 8.0972,-0.1355 8.6014,-2.0371 1.2446,-4.7236 10.1789,-15.6787 3.9612,-22.6766 -2.8346,-3.1897 -2.8346,-1.9104 -2.8655,-3.5226 -0.0175,-0.7713 1.7786,-5.0081 2.2296,-8.2859 0.4695,-3.4132 -1.7614,-6.6601 -1.2048,-8.5493 0.0135,-0.0522 0.1576,-0.1441 0.2198,-0.1354 0.9203,0.1788 3.1101,0.7626 4.526,1.5725 0.4335,0.2409 1.1963,0.0484 1.3017,-1.6433 0.118,-1.8395 -4.5447,-3.6145 -5.4737,-3.9473z"/>
   <path class="fil0" d="M52.6527 82.818c-0.9019,-0.503 -0.2013,-2.3177 1.1128,-2.5189 0.9205,-0.1454 4.0404,-0.5167 5.1225,-0.0435 0.8371,0.3627 1.4282,2.1203 0.9601,2.637 -0.8981,0.9949 -5.8976,0.6447 -7.1954,-0.0745zm-10.4287 -5.7744l0 0c-0.0869,-1.0831 1.3713,-2.3003 2.4892,-2.0644 0.898,0.1888 3.6766,3.1202 3.8082,3.8083 0.2361,1.2569 -0.7713,2.2518 -1.6134,2.3177 -1.3055,0.0969 -4.5834,-2.8829 -4.684,-4.0616zm0.5527 -5.8987l0 0c-0.6395,0.7627 -2.0679,1.2409 -2.7561,0.6881 -1.0346,-0.8285 -1.3451,-4.2107 -0.6744,-5.6528 0.4509,-0.9675 2.8083,-1.5029 3.2469,-0.3986 0.3017,0.7626 0.6569,4.8068 0.1837,5.3633zm0.8063 -9.6001l0 0c-1.1441,0.5702 -2.2085,-0.2099 -2.3228,-1.6172 -0.1229,-1.406 3.1984,-4.8467 4.3995,-4.5212 0.5873,0.1577 1.468,1.2794 1.3711,2.2693 -0.0658,0.6918 -2.7822,3.5312 -3.4478,3.869zm17.9567 12.252l0 0c-1.1873,-0.5179 -4.2764,-4.5882 -3.1772,-5.6924 1.0297,-1.0297 5.3683,-3.2295 6.0652,-2.5811 2.694,2.5066 -0.5528,9.2896 -2.888,8.2735zm-12.6333 -0.8247l0 0c0,1.293 4.9249,4.5 7.8749,3.1114 1.0906,-0.5081 -0.929,-5.5782 -2.2183,-6.0552 -1.5949,-0.6012 -5.6566,2.16 -5.6566,2.9438zm1.0087 -12.365l0 0c-3.3091,0.6968 -4.6367,6.778 -3.1166,8.2946 0.4993,0.4993 5.4864,-1.3538 5.9074,-2.668 0.4945,-1.5514 -2.2133,-5.7496 -2.7908,-5.6266zm12.2642 1.1091l0 0c0,-2.0333 -6.9146,-4.9522 -8.8646,-2.5376 -0.5566,0.6918 2.1302,4.6839 3.448,5.4553 0.9029,0.5341 5.4166,-1.6259 5.4166,-2.9177zm-3.8778 -8.8473l0 0c0.2796,0.6086 0.6224,1.4234 -0.0136,2.1252 -0.5304,0.5874 -5.3199,0.749 -6.0341,0.7005 -1.5152,-0.1006 -2.2171,-1.6432 -1.7177,-2.422 0.908,-1.4111 7.2388,-1.534 7.7654,-0.4037zm10.5329 6.1259l0 0c-0.1576,0.8372 -1.5376,1.1614 -2.1376,1.0906 -0.7317,-0.0832 -3.8567,-2.5276 -4.0579,-3.3821 -0.2671,-1.1217 0.4907,-1.8358 1.2099,-2.0209 1.9449,-0.4857 5.2092,3.1114 4.9856,4.3124zm2.673 11.318l0 0c-0.7055,0.4782 -2.0508,0.5565 -2.6158,-0.2982 -0.3902,-0.5912 -0.5167,-4.9335 -0.2584,-5.5782 0.2669,-0.6695 1.7265,-1.165 2.555,-0.7092 0.9464,0.5217 1.4767,5.8192 0.3192,6.5856zm-4.6356 4.3386l0 0c-0.5962,0.0559 -3.2294,2.8866 -3.382,3.7114 -0.2372,1.2793 1.0508,2.5711 1.9103,2.3214 1.4023,-0.3987 4.4343,-3.8294 3.9958,-4.9249 -0.4037,-1.0074 -1.7873,-1.1737 -2.5241,-1.1079zm8.0712 -9.7157l0 0c-0.5044,-6.0551 -6.147,-14.0604 -14.4032,-15.4317 -8.9555,-1.4855 -22.8856,2.1066 -24.3934,15.274 -1.5601,13.6233 8.8736,23.745 21.3962,22.7862 13.5834,-1.0434 18.1059,-14.0568 17.4004,-22.6284z"/>
   <polygon class="fil0" points="55.3492,12.0762 54.9553,15.1305 52.9831,17.4929 56.0372,17.8829 58.4034,19.8628 58.7847,16.8048 60.7658,14.4473 57.7116,14.0536 "/>
   <polygon class="fil0" points="112.4976,144.4304 110.0182,142.6083 106.9417,142.4231 108.7513,139.9303 108.9438,136.8549 111.4293,138.6771 114.501,138.8659 112.6826,141.3549 "/>
   <polygon class="fil0" points="47.4595,144.3148 49.9486,142.5052 53.029,142.3301 51.2192,139.8284 51.0392,136.7518 48.5513,138.5703 45.4795,138.7454 47.2806,141.2395 "/>
   <path class="fil0" d="M30.4552 131.0965l3.1325 -3.6765c1.4248,-1.6744 3.7026,-1.5514 5.8727,0.3018 2.186,1.8631 2.6729,4.1013 1.2484,5.7707l-3.1326 3.6765c-0.3863,0.4522 -0.4038,0.7055 0.113,1.139l-1.1166 0.8459 -3.0233 -2.5761 0.6695 -1.2272c0.5129,0.4385 0.7626,0.3813 1.1439,-0.0658l3.1512 -3.689c0.6222,-0.7316 0.5652,-1.6258 -0.4173,-2.4581 -1.0023,-0.8545 -1.9054,-0.785 -2.5278,-0.0533l-3.1461 3.6902c-0.3851,0.4471 -0.3986,0.7055 0.1007,1.1303l-1.1081 0.8546 -2.7649 -2.3575 0.657 -1.2359c0.5119,0.4385 0.7627,0.3813 1.1477,-0.0696z"/>
   <path class="fil0" d="M20.3882 118.8508l6.6252 -4.9646 1.2433 1.6657 -2.0717 7.0016c-0.1454,0.487 -0.5168,1.257 -0.5168,1.257 0,0 0.5949,-0.5565 0.8931,-0.7801l2.9189 -2.1861c0.4596,-0.3465 0.5515,-0.5874 0.1491,-1.1265l1.2657 -0.5912 1.9984 2.6605 -0.9116 1.0682c-0.4024,-0.5427 -0.6707,-0.5341 -1.1351,-0.1838l-4.8678 3.6418c-0.4732,0.3552 -0.5427,0.5999 -0.1353,1.1439l-1.2758 0.5738 -1.7961 -2.3935 1.8795 -6.3657c0.1538,-0.5006 0.5439,-1.2756 0.5439,-1.2756 0,0 -0.6099,0.5614 -0.9514,0.8197l-2.4841 1.8669c-0.4734,0.3502 -0.5479,0.5912 -0.1405,1.134l-1.2669 0.5876 -2.0059 -2.6767 0.9192 -1.0483c0.4086,0.544 0.6495,0.5266 1.1228,0.1713z"/>
   <path class="fil0" d="M22.9357 106.158l1.7265 3.4828 -1.1043 0.8632c-0.2979,-0.6049 -0.56,-0.6484 -1.0781,-0.39l-5.4465 2.6953c-0.5291,0.2634 -0.6433,0.4907 -0.3502,1.0955l-1.349 0.3502 -1.7228 -3.484 1.1005 -0.8632c0.2983,0.6048 0.5478,0.6533 1.0782,0.39l5.4465 -2.6991c0.5168,-0.2533 0.6433,-0.4856 0.3503,-1.0955l1.3489 -0.3453z"/>
   <path class="fil0" d="M10.5756 95.7419l8.9604 0.8061 0.7851 2.6728 -7.0986 5.495c-0.5129,0.3987 -0.5738,0.6136 -0.3949,1.2098l-1.4011 0.0956 -1.0955 -3.7063 1.226 -0.6844c0.1764,0.5304 0.39,0.6099 0.8422,0.2808l3.4305 -2.5811c0.5702,-0.3938 1.7749,-0.9638 1.7749,-0.9638 0,0 -1.3277,0.1453 -2.0295,0.1093l-4.3151 -0.4199c-0.5787,-0.0397 -0.6968,0.2099 -0.5302,0.7577l-1.3986 0.1093 -0.9726 -3.3039 1.2271 -0.6607c0.184,0.6136 0.3378,0.7266 0.99,0.7838z"/>
   <path class="fil0" d="M17.2021 81.7113l0.7316 8.0238 -1.3364 0.4286c-0.0608,-0.6744 -0.2931,-0.8061 -0.8669,-0.7528l-6.0552 0.5515c-0.5876,0.0522 -0.7764,0.2236 -0.7155,0.898l-1.3923 -0.1838 -0.6968 -7.6687 2.4705 -0.2273 0.3204 1.0607c-0.8023,0.1876 -0.9639,0.4248 -0.8596,1.5862l0.1677 1.7836 2.5016 -0.2286 -0.1453 -1.6172c-0.0647,-0.6869 -0.2051,-0.9328 -0.744,-0.8844l0.1664 -1.1303 2.4754 -0.2285 0.3901 1.0868c-0.5565,0.0485 -0.6533,0.3155 -0.5911,1.0037l0.1491 1.6122 2.7251 -0.2447 -0.2236 -2.4767c-0.1007,-1.0732 -0.4212,-1.2483 -1.17,-1.3179l0.1142 -1.144 2.5848 0.0696z"/>
   <path class="fil0" d="M8.9609 71.9436l-0.1701 1.5426 2.9697 0.3329 0.1666 -1.4942c0.1278,-1.1253 -0.3765,-1.7787 -1.2832,-1.8794 -0.9067,-0.0969 -1.5563,0.3851 -1.6831,1.498zm9.3554 -4.3063l0 0 -0.3415 3.0717c-1.6259,1.3452 -4.176,-0.0447 -4.4132,2.0544l-0.1353 1.2446 1.981 0.2187c0.5689,0.0658 0.8013,-0.0472 0.8757,-0.718l1.3328 0.4385 -0.4297 3.8294 -1.3937 0.1491c0.0745,-0.6881 -0.1267,-0.846 -0.7006,-0.9117l-6.0427 -0.6744c-0.5738,-0.0659 -0.8062,0.0608 -0.8807,0.7316l-1.3239 -0.4509 0.5825 -5.2416c0.2857,-2.5363 1.4941,-3.9126 3.4231,-3.6977 1.2621,0.1404 2.0594,0.9117 2.401,2.2606 0.4955,-1.2532 1.7215,-1.4371 2.4618,-1.5067 0.8596,-0.0795 1.1615,-0.2149 1.2534,-1.0036l0.0273 -0.2372 1.3227 0.4434z"/>
   <path class="fil0" d="M20.4725 60.9461c-0.626,1.9501 -1.7127,3.1599 -2.2469,3.6766l-1.9637 -1.231 0.2894 -0.903c1.2395,0.0088 2.0159,-0.9812 2.3525,-2.0109 0.2508,-0.7887 0.1454,-1.7265 -0.6918,-1.9985 -0.7191,-0.2273 -1.2222,0.2112 -2.0333,1.7402 -0.8062,1.5725 -2.1116,2.9797 -4.1226,2.3313 -1.9637,-0.631 -2.5065,-2.7438 -1.7885,-4.9733 0.5477,-1.7091 1.4456,-2.8879 1.95,-3.4058l1.8532 1.1836 -0.2844 0.8856c-1.0819,0.113 -1.7265,1.0074 -1.9848,1.8098 -0.2809,0.8843 -0.0796,1.6383 0.5788,1.8531 0.6396,0.2062 1.1128,-0.2633 1.7077,-1.4023 1.0955,-2.0767 2.2794,-3.4356 4.479,-2.7301 2.1551,0.6968 2.6109,2.9885 1.9053,5.1745z"/>
   <path class="fil0" d="M25.0883 49.7611l-1.775 3.4568 -1.349 -0.3677c0.3105,-0.6012 0.1838,-0.8371 -0.329,-1.1005l-5.4119 -2.7736c-0.5254,-0.2671 -0.7751,-0.2273 -1.0869,0.3776l-1.0818 -0.8856 1.7749 -3.453 1.3452 0.3639c-0.3068,0.6048 -0.1938,0.8321 0.3328,1.1042l5.4068 2.7736c0.5131,0.2634 0.7752,0.2273 1.087,-0.3764l1.0869 0.8806z"/>
   <path class="fil0" d="M25.5663 35.4374c-0.6396,-0.3242 -1.0345,-0.359 -1.6828,0.5254l-0.6 0.8198 5.2316 3.8343c0.4647,0.3379 0.7229,0.359 1.1217,-0.1839l0.9328 1.0385 -2.2779 3.1065 -1.2844 -0.5602c0.4123,-0.5614 0.3154,-0.7986 -0.1491,-1.1402l-5.2317 -3.8343 -0.5999 0.816c-0.6484,0.8844 -0.4993,1.2484 0.0037,1.7651l-0.8358 0.7675 -1.9153 -1.7575 5.5037 -7.5109 2.2656 1.2843 -0.482 1.0297z"/>
   <path class="fil0" d="M32.3878 28.7735c-0.5166,-0.3018 -1.5725,-1.1874 -1.5725,-1.1874 0,0 0.7577,1.1838 1.0161,1.7054l1.1179 2.6332 1.95 -1.8234 -2.5115 -1.3278zm8.8822 1.6967l0 0 -2.7909 2.6022 -1.144 -0.8012c0.3689,-0.3515 0.4037,-0.5874 -0.1355,-0.8682l-0.7538 -0.385 -2.7166 2.5363 0.3193 0.7888c0.2422,0.5825 0.5216,0.508 0.9117,0.1403l0.7228 1.1961 -2.4047 2.2482 -1.1439 -0.8061c0.4421,-0.416 0.513,-0.6396 0.2583,-1.2358l-2.6207 -6.1744c-0.1665,-0.3764 -0.4112,-0.4907 -0.8932,-0.0385l-0.7104 -1.2098 4.0144 -3.7462 1.1515 0.7925c-0.4908,0.4608 -0.4286,0.6794 -0.0435,0.8682l6.0204 3.0543c0.5477,0.2932 0.7764,0.2671 1.2322,-0.1627l0.7265 1.201z"/>
   <path class="fil0" d="M47.0968 26.8868c-1.7354,1.0781 -3.3475,1.3017 -4.0927,1.3452l-0.6968 -2.2121 0.8023 -0.4956c0.9378,0.8061 2.1773,0.5565 3.0927,-0.0136 0.7056,-0.4335 1.2359,-1.2173 0.7677,-1.9675 -0.3987,-0.6434 -1.0644,-0.631 -2.6729,0.0137 -1.6296,0.6706 -3.5364,0.8979 -4.6542,-0.898 -1.0818,-1.7488 -0.1303,-3.7114 1.8631,-4.9472 1.5242,-0.9427 2.9711,-1.2669 3.689,-1.3328l0.6484 2.1041 -0.7925 0.4906c-0.8992,-0.6185 -1.9637,-0.3502 -2.6817,0.0919 -0.7937,0.4907 -1.1265,1.1962 -0.7627,1.7874 0.3553,0.5738 1.0162,0.5179 2.2086,0.0347 2.1823,-0.8719 3.9646,-1.1389 5.188,0.8248 1.1874,1.9228 0.0435,3.9647 -1.9065,5.1745z"/>
   <path class="fil0" d="M76.3392 13.1133c-0.7005,0.0969 -0.8235,0.3341 -0.749,0.8856l0.1092 0.8024c0.0745,0.5391 0.2062,0.657 0.5563,0.6086l-0.0918 1.3228c-1.4755,0.3031 -1.7302,0.9514 -3.987,1.2532 -3.032,0.4124 -5.7931,-0.7179 -6.3136,-4.5659 -0.4782,-3.5349 1.5774,-5.6341 4.8765,-6.0775 1.976,-0.2671 3.5014,0.3118 4.1498,0.5788l-0.2719 2.3923 -0.9031 0.118c-0.4509,-1.047 -1.4111,-1.3576 -2.4842,-1.2135 -1.893,0.2546 -2.7513,1.4644 -2.4319,3.8219 0.3204,2.3786 1.3277,3.299 3.1897,3.0493 0.4521,-0.0621 0.9999,-0.272 1.2978,-0.4819l-0.1714 -1.2706c-0.0745,-0.5565 -0.2359,-0.7539 -0.9601,-0.6571l-0.1838 0.0212 0.1006 -1.3937 3.9883 -0.5341 0.4683 1.3191 -0.1887 0.0211z"/>
   <path class="fil0" d="M85.8809 8.8766c-1.6174,-0.1317 -2.4619,0.7006 -2.6682,3.2779 -0.2111,2.576 0.4945,3.5312 2.1078,3.6579 1.652,0.1366 2.4668,-0.6968 2.6731,-3.2729 0.2048,-2.576 -0.4608,-3.5312 -2.1128,-3.6629zm-0.7092 8.825l0 0c-3.134,-0.2546 -5.223,-1.8805 -4.9075,-5.7843 0.3153,-3.9089 2.6368,-5.1795 5.7707,-4.9249 3.181,0.2533 5.2354,1.8756 4.9198,5.7843 -0.3155,3.9076 -2.6022,5.1783 -5.7831,4.9249z"/>
   <path class="fil0" d="M102.3745 13.2177c0.0745,-0.7142 -0.0349,-1.0955 -1.0945,-1.3849l-0.9774 -0.2671 -1.7091 6.2613c-0.149,0.5515 -0.0795,0.7975 0.5702,0.9775l-0.6311 1.2446 -3.7199 -1.0123 0.0696 -1.4023c0.6658,0.1789 0.8494,0.0038 1.0074,-0.5477l1.709 -6.2577 -0.9813 -0.272c-1.0558,-0.2844 -1.3414,-0.0124 -1.6431,0.6397l-1.0161 -0.5081 0.9589 -2.4146 8.979 2.4544 -0.3863 2.5723 -1.1351 -0.0832z"/>
   <path class="fil0" d="M113.2577 26.5329l-3.432 -1.7477 0.3516 -1.3589c0.6173,0.3155 0.8359,0.1802 1.0955,-0.3279l1.0596 -2.0817 -3.5091 -1.7836 -1.0569 2.0767c-0.2621,0.513 -0.241,0.7676 0.3601,1.0781l-0.8718 1.0869 -3.4408 -1.7488 0.3554 -1.3576c0.6135,0.3154 0.8371,0.1788 1.0955,-0.3329l2.7611 -5.4167c0.2671,-0.5254 0.2409,-0.7713 -0.3813,-1.0869l0.8981 -1.0768 3.4306 1.7439 -0.3639 1.349c-0.6049,-0.3018 -0.8149,-0.1839 -1.087,0.3415l-0.8446 1.6695 3.5053 1.7886 0.8494 -1.6744c0.2671,-0.5254 0.241,-0.7664 -0.3763,-1.0818l0.8894 -1.0831 3.4355 1.7488 -0.3638 1.3501c-0.6048,-0.3068 -0.8148,-0.185 -1.0869,0.3416l-2.7612 5.4205c-0.2584,0.5116 -0.2361,0.7664 0.3639,1.0732l-0.8756 1.0906z"/>
   <path class="fil0" d="M125.465 24.8995c-1.2521,-1.0297 -2.4221,-0.8371 -4.0617,1.1614 -1.647,1.9985 -1.6121,3.181 -0.3638,4.2106 1.2804,1.0521 2.4281,0.8323 4.0666,-1.1613 1.6394,-1.9935 1.6394,-3.1586 0.359,-4.2107zm-5.6255 6.8352l0 0c-2.4283,-1.9973 -3.2121,-4.5262 -0.7191,-7.5531 2.4891,-3.0282 5.1223,-2.7388 7.5505,-0.7416 2.4619,2.0246 3.2208,4.5361 0.7317,7.5593 -2.494,3.0282 -5.0962,2.7599 -7.563,0.7354z"/>
   <path class="fil0" d="M133.2068 35.9801l0.78 0.9726c0.6484,0.8024 1.3402,0.8546 1.9316,0.3776 0.5837,-0.4646 0.6843,-1.0918 0.0173,-1.9241l-0.7974 -0.9812 -1.9315 1.5551zm-1.3016 1.0471l0 0 0.8756 1.0955c0.7328,0.908 0.6396,1.7613 -0.0609,2.3227 -0.7054,0.5738 -1.5165,0.5081 -2.2258,-0.3726l-0.9328 -1.1564 2.344 -1.8892zm-2.4668 4.2679l0 0 -3.2034 -3.9735 0.8758 -1.0955c0.4259,0.5255 0.6931,0.503 1.1351,0.1441l4.7373 -3.812c0.4645,-0.3727 0.5218,-0.6174 0.1006,-1.144l1.2571 -0.6222 2.9885 3.7113c1.6121,1.9985 1.801,3.7114 0.3774,4.8554 -0.6582,0.5353 -1.7315,0.5477 -2.5237,0.149 0.4944,1.2931 0.0956,2.4408 -0.8025,3.1599 -1.5116,1.2173 -3.3436,0.6123 -4.9422,-1.3725z"/>
   <path class="fil0" d="M145.5184 52.0552l-4.2977 2.1961c-1.9588,0.9986 -4.0182,0.0173 -5.3161,-2.524 -1.3004,-2.5599 -0.8979,-4.8119 1.057,-5.8105l4.3062 -2.196c0.5267,-0.2708 0.6398,-0.4994 0.3291,-1.0993l1.359 -0.3502 1.8046 3.5362 -1.0904 0.8757c-0.3068,-0.5999 -0.5566,-0.6434 -1.0832,-0.3726l-4.3161 2.1997c-0.8584,0.4385 -1.1428,1.2881 -0.5652,2.432 0.6012,1.175 1.4645,1.4545 2.3176,1.0173l4.3214 -2.2047c0.5302,-0.272 0.6396,-0.4993 0.3415,-1.0868l1.3501 -0.3639 1.6521 3.2343 -1.0832 0.8943c-0.3068,-0.6012 -0.5563,-0.6447 -1.0868,-0.3776z"/>
   <path class="fil0" d="M149.3378 61.8689l-0.3986 -1.4979 -2.8929 0.7614 0.3862 1.4508c0.2894,1.0955 0.9987,1.5252 1.8756,1.288 0.8806,-0.2323 1.3104,-0.9241 1.0297,-2.0023zm-7.1692 7.4004l0 0 -0.7887 -2.9885c1.0295,-1.8446 3.9137,-1.4719 3.3697,-3.5139l-0.3192 -1.2085 -1.9289 0.5117c-0.5515,0.1453 -0.7317,0.3328 -0.5565,0.9862l-1.401 0.0696 -0.9863 -3.7237 1.2484 -0.6397c0.18,0.6658 0.4297,0.7403 0.9812,0.5962l5.8813 -1.5563c0.5565,-0.144 0.7265,-0.3502 0.5565,-1.0036l1.3972 -0.0559 1.3502 5.095c0.652,2.4668 0.0211,4.1895 -1.8583,4.6888 -1.2271,0.3205 -2.2432,-0.1055 -3.0492,-1.2395 -0.0138,1.3489 -1.0919,1.9624 -1.7539,2.2953 -0.7751,0.3813 -1.0074,0.6187 -0.806,1.385l0.062 0.2273 -1.3985 0.0745z"/>
   <path class="fil0" d="M147.1443 82.0591c-0.0349,-0.7092 -0.2621,-0.8496 -0.8185,-0.8235l-0.8111 0.0434c-0.5392,0.0224 -0.6707,0.1454 -0.6522,0.5043l-1.3104 -0.2061c-0.1752,-1.498 -0.8025,-1.8048 -0.9116,-4.084 -0.1541,-3.0531 1.2048,-5.7086 5.0875,-5.9024 3.5575,-0.1751 5.4813,2.0507 5.643,5.377 0.0969,1.9899 -0.6086,3.4617 -0.9329,4.084l-2.3574 -0.4733 -0.0434 -0.9116c1.0818,-0.359 1.4767,-1.288 1.4233,-2.3699 -0.0956,-1.9066 -1.2258,-2.8667 -3.6058,-2.7475 -2.3972,0.118 -3.4009,1.0421 -3.3077,2.9176 0.026,0.4559 0.1876,1.021 0.3715,1.3365l1.2792 -0.0608c0.5616,-0.0311 0.7714,-0.1751 0.7366,-0.903l-0.0086 -0.1839 1.3798 0.2187 0.1977 4.0144 -1.3491 0.3539 -0.0098 -0.1838z"/>
   <path class="fil0" d="M141.5026 93.7856l1.2186 -7.9617 1.3984 -0.0956c-0.1018,0.6707 0.0919,0.8495 0.6608,0.9378l6.0117 0.9204c0.5876,0.0869 0.8062,-0.0311 0.908,-0.7018l1.3092 0.5081 -1.1652 7.6165 -2.4543 -0.3727 -0.0522 -1.1042c0.8198,0.0037 1.0347,-0.1839 1.2099,-1.3365l0.2719 -1.7699 -2.4892 -0.3813 -0.241 1.6036c-0.1054,0.688 -0.031,0.9551 0.5082,1.0384l-0.4386 1.0607 -2.453 -0.3775 -0.1192 -1.1477c0.5528,0.0869 0.7054,-0.1491 0.816,-0.8286l0.241 -1.6035 -2.709 -0.4161 -0.3715 2.4581c-0.1576,1.0645 0.1094,1.3142 0.8236,1.5601l-0.3901 1.0818 -2.4941 -0.6881z"/>
   <path class="fil0" d="M144.8849 109.5836l-7.7469 -2.9227 0.7316 -1.9463 7.0241 -2.006c0.4868,-0.1453 1.3365,-0.2372 1.3365,-0.2372 0,0 -0.7887,-0.2062 -1.1392,-0.3416l-3.4132 -1.288c-0.539,-0.2013 -0.7887,-0.154 -1.0297,0.4819l-1.1787 -0.7539 1.1787 -3.1152 1.385 0.2013c-0.2373,0.631 -0.0832,0.8545 0.446,1.0521l5.6975 2.1463c0.5514,0.2112 0.7925,0.1403 1.0333,-0.4944l1.175 0.7713 -1.057 2.7947 -6.3793 1.8408c-0.5044,0.1354 -1.3676,0.2186 -1.3676,0.2186 0,0 0.8025,0.215 1.2011,0.3639l2.909 1.1006c0.5477,0.205 0.7937,0.1354 1.0296,-0.4956l1.1788 0.749 -1.1788 3.1338 -1.3798 -0.2149c0.2372,-0.6359 0.0969,-0.8321 -0.4559,-1.0384z"/>
   <path class="fil0" d="M133.0876 113.4242c1.0917,-1.7265 2.4407,-2.6295 3.0941,-2.9972l1.5947 1.6868 -0.508 0.7975c-1.201,-0.3154 -2.1998,0.4471 -2.7785,1.3638 -0.4423,0.6955 -0.5738,1.6333 0.1713,2.1066 0.6397,0.4037 1.2359,0.0969 2.4009,-1.1787 1.1751,-1.3179 2.7909,-2.3613 4.5746,-1.231 1.7401,1.1006 1.7439,3.2779 0.4906,5.2628 -0.9589,1.5166 -2.1202,2.4357 -2.7338,2.8083l-1.503 -1.6073 0.4994 -0.7849c1.078,0.1577 1.9189,-0.5429 2.3712,-1.257 0.4944,-0.7887 0.4906,-1.5688 -0.0969,-1.9414 -0.5703,-0.359 -1.1441,-0.0224 -2.0074,0.9327 -1.5774,1.7402 -3.063,2.7612 -5.0167,1.5253 -1.9153,-1.2098 -1.7788,-3.5412 -0.5528,-5.4863z"/>
   <path class="fil0" d="M125.7169 123.2441l2.5811 -2.9053 1.2136 0.6919c-0.4472,0.5092 -0.3814,0.7675 0.0435,1.1489l4.5485 4.0442c0.4384,0.3901 0.6918,0.4112 1.1388,-0.0919l0.8334 1.1217 -2.581 2.9052 -1.2134 -0.693c0.4508,-0.5081 0.3985,-0.7528 -0.0397,-1.1477l-4.5486 -4.0405c-0.4297,-0.3801 -0.6968,-0.4161 -1.144,0.0881l-0.8323 -1.1215z"/>
   <path class="fil0" d="M119.2531 128.9328c1.5962,-1.2793 3.1687,-1.6954 3.9052,-1.832l0.9552 2.1165 -0.7365 0.5876c-1.0297,-0.6881 -2.2309,-0.2894 -3.0718,0.385 -0.6484,0.518 -1.0781,1.3638 -0.5255,2.047 0.4733,0.5912 1.1342,0.4955 2.6556,-0.3329 1.5378,-0.8632 3.4046,-1.3191 4.7237,0.328 1.288,1.6084 0.5826,3.6728 -1.2533,5.1409 -1.3937,1.1167 -2.796,1.6123 -3.5015,1.7651l-0.8941 -2.0109 0.7279 -0.5826c0.9637,0.5031 1.9934,0.1093 2.6555,-0.416 0.718,-0.5789 0.9726,-1.3241 0.5391,-1.8669 -0.4211,-0.5266 -1.0744,-0.39 -2.1998,0.2323 -2.0593,1.1303 -3.7945,1.6122 -5.2416,-0.1975 -1.4198,-1.7613 -0.5291,-3.9263 1.2619,-5.3634z"/>
   <path class="fil0" d="M63.2165 151.8233l-5.1832 -1.4855 0.1043 -1.4111 0.667 0.1925c0.6832,0.1976 0.9018,0.0485 1.0558,-0.503l1.5116 -5.2801c-0.3677,0.1925 -0.9899,0.2807 -2.0469,0.0956l0.4346 -1.5241c1.1303,0.0397 1.8184,-0.0795 2.9798,-1.1353l2.1116 0.6048 -2.2916 8.0102c-0.1579,0.5515 -0.0226,0.8012 0.6446,0.99l0.6695 0.1925 -0.6571 1.2532z"/>
   <path class="fil0" d="M73.9694 144.3595c-0.9466,-0.0869 -1.6036,0.241 -1.6645,0.898 -0.062,0.6707 0.5119,1.2495 1.4147,1.7626 0.9465,-0.3379 1.6173,-0.8024 1.6831,-1.4768 0.0608,-0.6484 -0.5392,-1.1005 -1.4333,-1.1838zm-0.4074 4.3213l0 0c-1.1615,0.4198 -2.0109,1.0036 -2.0943,1.8569 -0.0707,0.7589 0.6707,1.3849 1.775,1.4942 1.0819,0.0969 1.9588,-0.359 2.0283,-1.1217 0.0795,-0.8719 -0.6658,-1.6036 -1.709,-2.2295zm-0.4647 4.9112l0 0c-2.8568,-0.2621 -4.5696,-1.5812 -4.4031,-3.3127 0.1403,-1.4979 1.4109,-2.2258 2.7997,-2.6729 -1.1303,-0.6484 -2.0729,-1.4495 -1.9626,-2.6456 0.1492,-1.5303 1.9279,-2.4146 4.5872,-2.165 2.5373,0.2359 4.1893,1.4457 4.0441,2.9797 -0.1094,1.1911 -1.1702,1.8047 -2.4009,2.2346 1.2756,0.6968 2.3922,1.647 2.2481,3.1462 -0.1627,1.7302 -2.1389,2.6991 -4.9124,2.4357z"/>
   <path class="fil0" d="M86.2336 144.4602c-1.2446,0.118 -1.8842,1.016 -1.7612,2.2916 0.1129,1.1911 0.8234,1.9228 2.0195,1.8098 1.0956,-0.1056 2.037,-0.877 1.9067,-2.2569 -0.0882,-0.9067 -0.6844,-1.9849 -2.165,-1.8445zm-0.0347 9.1666l0 0c-0.6882,0.0658 -2.0074,-0.0397 -2.4583,-0.3205l-0.1453 -1.4855c0.5081,0.1453 1.2397,0.2061 1.9017,0.1453 1.8495,-0.1801 2.9138,-1.1129 3.1425,-2.9487 -0.3341,0.5565 -1.3017,1.0906 -2.3277,1.1912 -2.5415,0.2409 -4.1312,-1.0993 -4.3287,-3.2207 -0.2149,-2.1637 1.3538,-3.8816 4.0964,-4.1411 3.1772,-0.3056 4.8378,1.5998 5.1012,4.3472 0.3154,3.2779 -1.1129,6.0639 -4.9819,6.4328z"/>
   <path class="fil0" d="M102.5309 150.3489l-5.2104 1.3763 -0.6311 -1.2669 0.6707 -0.1752c0.6832,-0.1838 0.7975,-0.4248 0.6534,-0.9774l-1.4074 -5.31c-0.2186,0.354 -0.7055,0.744 -1.7041,1.1341l-0.4074 -1.5378c0.99,-0.5391 1.5202,-0.9899 1.9798,-2.4978l2.1215 -0.5565 2.1252 8.0537c0.1491,0.5528 0.3986,0.6969 1.0643,0.5217l0.6707 -0.1788 0.0745 1.4147z"/>
  </g>
 </g>
</svg>
